<svg version="1.1" id="svg2" width="1066.6667" height="1066.6667" viewBox="289.51104736328125 485.6058654785156 487.6446533203125 95.45480346679688" sodipodi:docname="DBCODE_Final.ai" xmlns:inkscape="http://www.inkscape.org/namespaces/inkscape" xmlns:sodipodi="http://sodipodi.sourceforge.net/DTD/sodipodi-0.dtd" xmlns="http://www.w3.org/2000/svg" xmlns:svg="http://www.w3.org/2000/svg">
	<defs id="defs6">
		<clipPath clipPathUnits="userSpaceOnUse" id="clipPath16">
			<path d="M 0,800 H 800 V 0 H 0 Z" id="path14"></path>
		</clipPath>
	</defs>
	<sodipodi:namedview id="namedview4" pagecolor="#D3D3D3" bordercolor="#000000" borderopacity="0.25" inkscape:showpageshadow="2" inkscape:pageopacity="0.0" inkscape:pagecheckerboard="0" inkscape:deskcolor="#d1d1d1"></sodipodi:namedview>
	<g id="g8" inkscape:groupmode="layer" inkscape:label="DBCODE_Final" transform="matrix(1.3333333,0,0,-1.3333333,0,1066.6667)">
		<g id="g10">
			<g id="g12" clip-path="url(#clipPath16)">
				<g id="g18" transform="translate(326.9429,388.2205)">
					<path d="M 0,0 H -19.539 V 24.917 H 0 c 1.76,0 3.262,-0.05 4.461,-0.147 1.168,-0.096 2.137,-0.29 2.881,-0.577 0.699,-0.268 1.244,-0.66 1.617,-1.163 0.387,-0.521 0.676,-1.234 0.863,-2.118 0.194,-0.923 0.311,-2.082 0.344,-3.447 0.035,-1.396 0.053,-3.065 0.053,-5.007 0,-1.941 -0.018,-3.61 -0.053,-5.006 C 10.133,6.088 10.016,4.928 9.822,4.005 9.635,3.119 9.346,2.407 8.959,1.887 8.586,1.383 8.041,0.992 7.342,0.724 6.596,0.436 5.623,0.242 4.451,0.147 3.244,0.05 1.746,0 0,0 m 14.664,21.765 c -0.283,1.267 -0.742,2.388 -1.365,3.332 -0.637,0.96 -1.547,1.767 -2.707,2.399 C 9.455,28.117 8.004,28.584 6.279,28.882 4.578,29.178 2.465,29.327 0,29.327 H -24.551 V -4.41 H 0 c 2.469,0 4.582,0.149 6.279,0.444 1.725,0.298 3.176,0.765 4.315,1.386 1.16,0.634 2.07,1.441 2.705,2.401 0.623,0.943 1.082,2.064 1.365,3.331 0.277,1.233 0.443,2.649 0.494,4.207 0.047,1.537 0.072,3.251 0.072,5.099 0,1.847 -0.025,3.563 -0.072,5.101 -0.051,1.557 -0.217,2.973 -0.494,4.206" style="fill:#D3D3D3;fill-opacity:1;fill-rule:nonzero;stroke:none" id="path20"></path>
				</g>
				<g id="g22" transform="translate(357.15,399.4969)">
					<path d="m 0,0 h 18.201 c 1.531,0 2.889,-0.024 4.031,-0.073 1.118,-0.05 2.073,-0.145 2.84,-0.281 0.742,-0.133 1.342,-0.315 1.783,-0.54 0.409,-0.209 0.729,-0.482 0.952,-0.813 0.228,-0.344 0.388,-0.779 0.474,-1.296 0.094,-0.56 0.141,-1.231 0.141,-1.996 0,-0.996 -0.049,-1.855 -0.143,-2.555 -0.09,-0.662 -0.258,-1.224 -0.498,-1.674 -0.232,-0.429 -0.547,-0.765 -0.965,-1.027 -0.433,-0.272 -1.025,-0.487 -1.755,-0.638 -0.764,-0.157 -1.715,-0.261 -2.827,-0.309 -1.123,-0.05 -2.478,-0.074 -4.033,-0.074 L 0,-11.276 Z M 26.963,7.695 C 26.889,7.143 26.742,6.668 26.529,6.282 26.326,5.913 26.049,5.62 25.686,5.386 25.303,5.141 24.787,4.944 24.15,4.803 23.486,4.653 22.664,4.549 21.705,4.494 20.729,4.438 19.551,4.41 18.201,4.41 H 0 v 9.231 h 20.918 c 1.309,0 2.394,-0.053 3.23,-0.157 0.782,-0.097 1.401,-0.282 1.838,-0.548 0.403,-0.246 0.674,-0.587 0.832,-1.046 0.176,-0.514 0.266,-1.205 0.266,-2.055 0,-0.826 -0.041,-1.546 -0.121,-2.14 m 5.346,-8.083 c -0.336,0.575 -0.727,1.065 -1.161,1.459 -0.419,0.384 -0.859,0.71 -1.31,0.972 -0.422,0.239 -0.867,0.436 -1.338,0.592 0.242,0.12 0.477,0.259 0.701,0.414 0.363,0.245 0.723,0.56 1.07,0.938 0.352,0.382 0.666,0.856 0.938,1.409 0.266,0.542 0.484,1.189 0.645,1.923 0.162,0.73 0.242,1.577 0.242,2.516 0,1.279 -0.117,2.436 -0.348,3.437 -0.242,1.056 -0.736,1.953 -1.463,2.665 -0.721,0.704 -1.748,1.24 -3.051,1.595 -1.265,0.344 -2.941,0.519 -4.978,0.519 H -5.012 v -33.738 h 24.551 c 2.023,0 3.785,0.095 5.234,0.282 1.477,0.188 2.745,0.481 3.772,0.87 1.051,0.397 1.912,0.909 2.56,1.522 0.647,0.615 1.149,1.337 1.495,2.15 0.338,0.795 0.564,1.699 0.673,2.687 0.106,0.955 0.161,2.024 0.161,3.177 0,0.977 -0.106,1.855 -0.311,2.615 -0.207,0.759 -0.48,1.431 -0.814,1.996" style="fill:#D3D3D3;fill-opacity:1;fill-rule:nonzero;stroke:none" id="path24"></path>
				</g>
				<g id="g26" transform="translate(437.7769,413.2088)">
					<path d="m 0,0 c -0.455,0.864 -1.068,1.625 -1.824,2.261 -0.752,0.631 -1.709,1.159 -2.848,1.569 -1.117,0.4 -2.459,0.703 -3.992,0.899 -1.518,0.193 -3.311,0.292 -5.33,0.292 h -9.381 c -2.473,0 -4.588,-0.158 -6.285,-0.466 -1.727,-0.315 -3.176,-0.8 -4.307,-1.444 -1.154,-0.657 -2.06,-1.499 -2.693,-2.502 -0.619,-0.981 -1.078,-2.146 -1.361,-3.464 -0.278,-1.289 -0.438,-2.76 -0.481,-4.375 -0.041,-1.578 -0.062,-3.361 -0.062,-5.3 0,-1.941 0.021,-3.723 0.062,-5.299 0.043,-1.616 0.203,-3.088 0.481,-4.376 0.283,-1.316 0.742,-2.482 1.361,-3.465 0.635,-1.004 1.539,-1.845 2.693,-2.502 1.133,-0.643 2.582,-1.128 4.307,-1.442 1.697,-0.309 3.812,-0.466 6.285,-0.466 h 9.381 c 2.017,0 3.81,0.098 5.33,0.291 1.537,0.197 2.883,0.508 3.998,0.923 1.139,0.425 2.098,0.976 2.85,1.638 0.755,0.666 1.369,1.466 1.822,2.381 0.445,0.902 0.76,1.941 0.933,3.088 0.17,1.122 0.256,2.392 0.256,3.773 v 0.5 h -5.011 v -0.5 c 0,-1.105 -0.047,-2.085 -0.143,-2.915 -0.092,-0.791 -0.264,-1.473 -0.514,-2.027 -0.238,-0.53 -0.574,-0.973 -0.998,-1.32 -0.433,-0.354 -1.019,-0.638 -1.744,-0.845 -0.758,-0.217 -1.695,-0.368 -2.785,-0.45 -1.102,-0.084 -2.445,-0.127 -3.994,-0.127 h -9.381 c -1.764,0 -3.266,0.053 -4.459,0.157 -1.164,0.102 -2.131,0.309 -2.873,0.616 -0.699,0.287 -1.24,0.7 -1.609,1.229 -0.383,0.549 -0.668,1.303 -0.85,2.238 -0.188,0.979 -0.301,2.202 -0.336,3.637 -0.033,1.468 -0.051,3.222 -0.051,5.263 0,2.043 0.014,3.798 0.041,5.265 0.028,1.436 0.137,2.658 0.326,3.634 0.18,0.935 0.469,1.687 0.858,2.236 0.373,0.53 0.918,0.944 1.621,1.233 0.744,0.307 1.711,0.513 2.873,0.614 1.191,0.105 2.691,0.158 4.459,0.158 h 9.381 c 1.976,0 3.656,-0.07 4.994,-0.21 1.279,-0.134 2.314,-0.44 3.082,-0.91 0.744,-0.454 1.264,-1.11 1.588,-2.003 0.342,-0.936 0.514,-2.241 0.514,-3.879 v -0.5 h 5.011 v 0.5 c 0,1.27 -0.086,2.444 -0.258,3.492 C 0.764,-1.829 0.447,-0.854 0,0" style="fill:#D3D3D3;fill-opacity:1;fill-rule:nonzero;stroke:none" id="path28"></path>
				</g>
				<g id="g30" transform="translate(474.8687,387.5388)">
					<path d="m 0,0 h -12.078 c -1.764,0 -3.264,0.053 -4.459,0.157 -1.162,0.102 -2.129,0.309 -2.873,0.615 -0.699,0.288 -1.24,0.701 -1.608,1.23 -0.382,0.549 -0.669,1.303 -0.849,2.238 -0.19,0.979 -0.303,2.202 -0.336,3.637 -0.035,1.468 -0.053,3.222 -0.053,5.263 0,2.043 0.014,3.797 0.043,5.265 0.026,1.436 0.135,2.657 0.324,3.634 0.182,0.935 0.471,1.687 0.858,2.236 0.375,0.53 0.92,0.944 1.621,1.233 0.744,0.306 1.711,0.513 2.873,0.614 1.191,0.105 2.691,0.158 4.459,0.158 L 0,26.28 c 1.768,0 3.268,-0.053 4.459,-0.158 1.16,-0.101 2.123,-0.308 2.859,-0.613 0.696,-0.289 1.239,-0.704 1.614,-1.235 0.386,-0.548 0.675,-1.3 0.857,-2.235 0.188,-0.974 0.301,-2.196 0.336,-3.636 0.035,-1.467 0.053,-3.221 0.053,-5.263 0,-2.041 -0.018,-3.795 -0.053,-5.263 C 10.09,6.437 9.977,5.214 9.789,4.24 9.607,3.307 9.32,2.555 8.932,2.005 8.557,1.475 8.012,1.06 7.311,0.771 6.566,0.466 5.6,0.259 4.437,0.157 3.242,0.053 1.75,0 0,0 m 14.625,22.815 c -0.283,1.315 -0.738,2.48 -1.35,3.462 -0.627,1.004 -1.531,1.847 -2.685,2.504 C 9.459,29.425 8.012,29.91 6.285,30.225 4.586,30.533 2.471,30.69 0,30.69 h -12.078 c -2.473,0 -4.586,-0.157 -6.285,-0.465 -1.725,-0.315 -3.174,-0.8 -4.305,-1.444 -1.156,-0.657 -2.062,-1.499 -2.693,-2.502 -0.621,-0.981 -1.078,-2.146 -1.364,-3.465 -0.275,-1.288 -0.437,-2.759 -0.48,-4.375 -0.041,-1.577 -0.063,-3.36 -0.063,-5.299 0,-1.941 0.022,-3.723 0.063,-5.299 0.043,-1.616 0.205,-3.088 0.48,-4.376 0.286,-1.316 0.743,-2.482 1.364,-3.465 0.632,-1.004 1.539,-1.845 2.693,-2.502 1.131,-0.644 2.58,-1.128 4.305,-1.442 1.699,-0.309 3.812,-0.466 6.285,-0.466 L 0,-4.41 c 2.471,0 4.586,0.157 6.285,0.466 1.725,0.314 3.174,0.799 4.305,1.442 1.154,0.656 2.056,1.499 2.685,2.504 0.614,0.984 1.067,2.149 1.35,3.464 0.275,1.288 0.441,2.76 0.49,4.373 0.049,1.589 0.074,3.372 0.074,5.301 0,1.928 -0.025,3.712 -0.074,5.301 -0.049,1.613 -0.215,3.084 -0.49,4.374" style="fill:#D3D3D3;fill-opacity:1;fill-rule:nonzero;stroke:none" id="path32"></path>
				</g>
				<g id="g34" transform="translate(524.5738,388.2205)">
					<path d="M 0,0 H -19.539 V 24.917 H 0 c 1.762,0 3.262,-0.05 4.463,-0.147 1.166,-0.096 2.137,-0.29 2.881,-0.577 0.699,-0.268 1.242,-0.66 1.617,-1.163 0.385,-0.521 0.676,-1.234 0.861,-2.118 0.196,-0.923 0.311,-2.082 0.346,-3.447 0.033,-1.396 0.051,-3.065 0.051,-5.007 0,-1.941 -0.018,-3.61 -0.051,-5.006 C 10.133,6.088 10.018,4.928 9.822,4.005 9.637,3.119 9.346,2.407 8.961,1.887 8.586,1.383 8.043,0.992 7.344,0.724 6.596,0.436 5.623,0.242 4.453,0.147 3.246,0.05 1.748,0 0,0 m 14.666,21.765 c -0.285,1.267 -0.744,2.388 -1.367,3.332 -0.637,0.96 -1.547,1.767 -2.705,2.399 -1.139,0.621 -2.59,1.088 -4.313,1.386 C 4.578,29.178 2.465,29.327 0,29.327 H -24.551 V -4.41 H 0 c 2.469,0 4.582,0.149 6.281,0.444 1.723,0.298 3.174,0.765 4.313,1.386 1.16,0.634 2.07,1.441 2.705,2.401 0.623,0.943 1.082,2.064 1.367,3.331 0.275,1.233 0.441,2.649 0.492,4.207 0.049,1.537 0.072,3.251 0.072,5.099 0,1.847 -0.023,3.563 -0.072,5.101 -0.051,1.557 -0.217,2.973 -0.492,4.206" style="fill:#D3D3D3;fill-opacity:1;fill-rule:nonzero;stroke:none" id="path36"></path>
				</g>
				<g id="g38" transform="translate(582.8668,413.1375)">
					<path d="M 0,0 V 4.41 H -33.096 V -29.327 H 0 v 4.41 h -28.084 v 10.595 h 26.746 v 4.41 H -28.084 V 0 Z" style="fill:#D3D3D3;fill-opacity:1;fill-rule:nonzero;stroke:none" id="path40"></path>
				</g>
				<g id="g42" transform="translate(245.7193,435.7957)">
					<path d="m 0,0 c 11.238,0 21.317,-2.688 28.586,-7.452 v -7.269 C 19.668,-9.65 10.444,-7.513 0,-7.513 c -10.445,0 -19.668,-2.137 -28.586,-7.208 v 7.269 C -21.195,-2.688 -11.239,0 0,0" style="fill:#7655ff;fill-opacity:1;fill-rule:nonzero;stroke:none" id="path44"></path>
				</g>
				<g id="g46" transform="translate(217.1334,415.3318)">
					<path d="m 0,0 c 8.918,-5.069 18.141,-7.269 28.586,-7.269 10.444,0 19.668,2.2 28.586,7.269 v -7.269 c -7.269,-4.825 -17.348,-7.452 -28.586,-7.452 -11.239,0 -21.195,2.627 -28.586,7.452 z" style="fill:#7655ff;fill-opacity:1;fill-rule:nonzero;stroke:none" id="path48"></path>
				</g>
				<g id="g50" transform="translate(217.1334,397.1287)">
					<path d="m 0,0 c 8.918,-5.069 18.141,-7.269 28.586,-7.269 10.444,0 19.668,2.2 28.586,7.269 v -7.269 c -7.269,-4.825 -17.348,-7.452 -28.586,-7.452 -11.239,0 -21.195,2.627 -28.586,7.452 z" style="fill:#7655ff;fill-opacity:1;fill-rule:nonzero;stroke:none" id="path52"></path>
				</g>
				<g id="g54" transform="translate(217.1334,378.9256)">
					<path d="m 0,0 c 8.918,-5.069 18.141,-7.269 28.586,-7.269 10.444,0 19.668,2.2 28.586,7.269 v -7.269 c -7.269,-4.825 -17.348,-7.452 -28.586,-7.452 -11.239,0 -21.195,2.627 -28.586,7.452 z" style="fill:#7655ff;fill-opacity:1;fill-rule:nonzero;stroke:none" id="path56"></path>
				</g>
			</g>
		</g>
	</g>
</svg>