<?xml version="1.0" encoding="utf-8"?>
<svg viewBox="0 0 760 760" xmlns="http://www.w3.org/2000/svg">
	<g transform="matrix(0.07273400574922562, 0, 0, -0.07273400574922562, 90.69630432128906, 661.5789184570311)" fill="#7655FF" stroke="none" style="">
		<path d="M3478 7595 c-2 -2 -57 -6 -123 -9 -66 -4 -138 -8 -160 -11 -22 -2&#10;-65 -7 -95 -10 -70 -6 -135 -14 -180 -21 -19 -3 -53 -8 -75 -11 -100 -11 -159&#10;-20 -230 -35 -27 -5 -63 -12 -80 -14 -16 -3 -70 -14 -120 -25 -49 -10 -99 -21&#10;-110 -23 -100 -21 -401 -103 -460 -127 -11 -4 -49 -17 -85 -29 -36 -11 -72&#10;-24 -80 -27 -8 -3 -19 -7 -25 -8 -13 -4 -211 -82 -255 -102 -79 -35 -276 -127&#10;-285 -134 -5 -4 -46 -26 -90 -50 -44 -23 -119 -66 -167 -96 l-88 -54 0 -385&#10;c0 -211 2 -384 5 -384 3 0 22 11 43 23 125 79 613 305 802 371 41 15 82 29 90&#10;33 8 3 17 7 20 8 3 1 64 20 135 43 72 23 175 53 230 68 55 14 107 29 115 32 8&#10;2 22 6 30 7 8 1 47 10 85 19 39 10 81 20 95 22 14 2 39 7 55 11 40 9 34 8 90&#10;18 28 4 56 9 63 11 30 6 206 33 252 39 198 25 399 42 580 50 47 1 90 4 95 5 6&#10;1 15 1 20 0 6 -1 37 -1 70 0 115 5 320 5 328 2 4 -2 69 -5 145 -8 75 -2 166&#10;-6 202 -9 146 -10 207 -15 240 -20 19 -3 55 -8 80 -11 25 -2 61 -6 80 -9 19&#10;-2 57 -7 84 -11 27 -3 58 -8 70 -10 36 -8 90 -17 111 -19 11 -1 31 -5 45 -8&#10;14 -4 39 -8 55 -11 136 -20 565 -129 615 -156 11 -6 20 -9 20 -6 0 7 236 -74&#10;345 -118 49 -20 95 -36 102 -36 7 0 13 -4 13 -9 0 -5 12 -12 27 -16 15 -3 48&#10;-16 73 -27 76 -35 135 -61 140 -63 29 -10 127 -61 132 -69 4 -6 8 -8 8 -4 0 4&#10;28 -8 63 -27 34 -18 97 -52 140 -74 l77 -42 0 386 0 385 -46 28 c-26 15 -52&#10;33 -59 40 -8 6 -16 12 -18 12 -2 0 -47 24 -98 53 -88 50 -383 197 -395 197 -5&#10;0 -137 54 -199 81 -83 36 -459 155 -570 180 -22 5 -56 13 -75 19 -38 10 -196&#10;46 -245 55 -16 3 -43 7 -60 10 -16 3 -52 10 -80 15 -27 5 -70 12 -95 16 -25 4&#10;-56 8 -70 10 -14 2 -41 6 -60 8 -19 3 -51 8 -70 11 -19 3 -59 8 -90 10 -30 3&#10;-71 7 -90 9 -32 5 -100 11 -235 22 -62 5 -802 13 -807 9z"/>
		<path d="M6735 5370 c-55 -31 -103 -55 -107 -53 -3 2 -8 0 -10 -5 -9 -21 -422&#10;-207 -638 -287 -192 -71 -547 -180 -655 -200 -11 -2 -63 -13 -115 -25 -52 -11&#10;-105 -22 -118 -25 -12 -2 -48 -9 -80 -15 -31 -5 -68 -12 -82 -15 -14 -3 -45&#10;-8 -70 -11 -25 -3 -58 -8 -75 -11 -70 -12 -136 -19 -160 -18 -14 0 -25 -2 -25&#10;-5 0 -3 -12 -5 -27 -6 -16 0 -66 -4 -113 -8 -136 -13 -147 -14 -320 -21 -206&#10;-10 -517 -10 -675 -1 -66 4 -151 9 -190 11 -38 2 -88 6 -110 9 -22 2 -69 7&#10;-105 10 -36 4 -88 10 -116 14 -28 5 -61 8 -72 7 -12 -1 -22 2 -22 7 0 5 -4 7&#10;-9 4 -8 -5 -41 -1 -206 28 -46 8 -127 24 -151 29 -12 3 -37 8 -55 11 -19 3&#10;-90 19 -159 37 -69 17 -133 32 -143 34 -42 9 -406 124 -422 134 -5 3 -15 6&#10;-22 7 -23 4 -349 137 -443 181 -120 56 -271 132 -376 189 -45 24 -84 44 -88&#10;44 -3 0 -6 -172 -6 -382 l0 -383 28 -17 c15 -9 54 -33 87 -53 120 -75 335&#10;-186 495 -256 25 -11 59 -26 75 -34 17 -7 75 -30 130 -50 55 -20 109 -40 120&#10;-45 58 -23 347 -112 405 -125 8 -1 35 -8 60 -15 25 -7 53 -14 62 -16 10 -2 26&#10;-6 35 -8 68 -17 209 -46 243 -51 14 -2 25 -4 25 -5 0 -2 19 -5 135 -25 47 -8&#10;108 -17 135 -20 28 -4 61 -8 75 -11 14 -2 48 -6 76 -9 28 -2 64 -6 80 -9 27&#10;-4 132 -14 229 -22 304 -23 816 -22 1085 1 25 2 77 7 115 10 39 3 88 8 110 11&#10;22 2 65 6 95 9 30 2 55 5 55 5 0 3 30 7 84 14 30 4 64 9 75 11 12 2 37 7 56&#10;10 52 7 262 47 365 69 61 14 304 79 390 106 55 17 105 32 110 34 25 6 62 18&#10;80 26 11 4 88 34 170 65 187 72 522 234 645 313 14 9 34 21 45 27 11 6 37 22&#10;57 35 l38 25 0 388 c0 213 -1 387 -2 386 -2 -1 -48 -27 -103 -59z"/>
		<path d="M770 3106 l0 -384 128 -77 c114 -68 373 -202 478 -247 21 -9 55 -23&#10;74 -32 101 -43 170 -69 321 -120 91 -31 174 -58 185 -61 10 -2 69 -18 129 -35&#10;61 -16 122 -32 137 -35 15 -3 39 -10 54 -15 15 -6 29 -8 31 -6 3 3 16 1 30 -5&#10;13 -5 36 -11 51 -14 15 -3 41 -7 57 -10 17 -4 62 -12 100 -20 39 -8 86 -16&#10;105 -19 19 -3 46 -8 60 -11 13 -2 39 -6 57 -7 18 -1 33 -5 33 -8 0 -3 17 -5&#10;38 -6 20 -1 62 -4 92 -8 30 -4 73 -9 95 -11 22 -3 65 -7 95 -11 61 -7 103 -10&#10;295 -21 159 -9 672 -8 815 1 190 13 319 24 370 32 19 3 58 7 85 10 67 7 174&#10;22 215 29 8 1 35 6 60 10 25 4 54 9 65 11 11 3 35 7 54 10 40 7 52 9 111 23&#10;25 5 59 12 75 15 52 10 253 61 363 92 94 27 288 92 375 126 45 18 84 33 87 33&#10;31 8 275 119 370 169 52 27 112 58 132 68 20 10 40 22 43 28 4 6 11 8 16 5 5&#10;-4 9 -1 9 4 0 6 5 11 10 11 6 0 46 23 90 52 l80 52 0 383 c0 211 -2 383 -5&#10;383 -2 0 -21 -10 -42 -21 -21 -12 -85 -46 -143 -77 -58 -30 -109 -57 -115 -60&#10;-5 -4 -12 -7 -15 -8 -3 0 -43 -19 -90 -41 -134 -64 -197 -92 -225 -99 -14 -3&#10;-25 -10 -25 -15 0 -5 -3 -8 -7 -8 -5 1 -11 0 -15 -1 -5 -1 -11 -3 -15 -5 -5&#10;-1 -17 -5 -28 -10 -105 -43 -425 -156 -425 -150 0 2 -15 -2 -34 -10 -18 -8&#10;-44 -17 -57 -20 -13 -2 -73 -19 -134 -35 -60 -17 -119 -32 -130 -34 -11 -2&#10;-27 -6 -35 -9 -13 -5 -63 -16 -151 -32 -48 -9 -71 -14 -87 -19 -9 -3 -34 -7&#10;-54 -10 -21 -3 -55 -9 -75 -13 -21 -3 -46 -6 -55 -7 -10 0 -18 -3 -18 -6 0 -3&#10;-12 -5 -27 -6 -29 0 -143 -13 -177 -20 -11 -2 -43 -6 -73 -9 -238 -23 -248&#10;-24 -398 -32 -260 -13 -805 -6 -945 12 -19 2 -66 7 -105 9 -38 3 -81 8 -95 10&#10;-14 3 -52 7 -85 10 -33 3 -105 13 -160 22 -55 8 -113 17 -128 19 -27 4 -103&#10;18 -157 30 -14 2 -50 10 -80 16 -30 5 -68 14 -85 19 -16 5 -43 12 -60 15 -52&#10;9 -69 13 -120 28 -27 8 -93 27 -145 42 -109 31 -326 102 -355 115 -11 5 -56&#10;23 -100 39 -180 66 -539 232 -712 330 -40 23 -75 41 -78 41 -3 0 -5 -173 -5&#10;-384z"/>
		<path d="M770 1171 c0 -237 4 -391 9 -391 6 0 52 -26 103 -58 51 -31 111 -66&#10;133 -77 22 -11 42 -22 45 -25 4 -5 68 -37 275 -137 49 -23 320 -133 345 -139&#10;7 -1 41 -14 65 -24 21 -9 206 -67 240 -75 11 -3 89 -23 174 -45 150 -39 300&#10;-73 371 -84 19 -3 46 -8 60 -11 37 -8 68 -13 140 -24 158 -24 273 -38 370 -47&#10;93 -8 135 -12 135 -14 0 -7 298 -15 580 -15 385 0 508 6 790 39 22 3 65 8 95&#10;11 68 7 117 14 152 21 15 3 40 7 57 9 43 6 149 24 201 35 25 5 56 12 70 14 21&#10;4 213 47 275 62 11 3 27 7 35 9 8 2 16 4 18 5 2 3 5 4 47 14 17 5 59 16 95 27&#10;36 10 68 19 72 19 17 2 271 94 378 136 161 64 569 266 578 286 2 5 8 8 13 8 4&#10;0 40 20 79 45 l70 46 0 385 0 386 -82 -45 c-171 -93 -395 -202 -407 -197 -2 1&#10;-7 -2 -10 -7 -3 -5 -31 -19 -61 -32 -110 -46 -304 -123 -314 -126 -6 -1 -24&#10;-8 -41 -14 -55 -23 -348 -117 -392 -126 -10 -2 -29 -8 -43 -13 -14 -5 -28 -10&#10;-33 -11 -4 0 -17 -3 -30 -6 -12 -3 -31 -7 -42 -9 -11 -1 -27 -6 -35 -9 -8 -3&#10;-40 -11 -70 -17 -30 -6 -95 -20 -145 -31 -49 -11 -103 -21 -120 -24 -28 -3&#10;-65 -10 -110 -19 -11 -2 -42 -7 -70 -10 -27 -4 -57 -9 -65 -11 -8 -2 -42 -6&#10;-75 -9 -33 -3 -69 -8 -80 -10 -11 -2 -58 -7 -105 -11 -47 -3 -96 -8 -110 -10&#10;-169 -25 -989 -25 -1200 1 -25 3 -70 7 -100 9 -30 3 -75 7 -100 10 -76 10&#10;-114 15 -145 20 -16 2 -52 7 -80 11 -27 3 -59 8 -70 10 -26 6 -82 15 -109 18&#10;-11 2 -32 6 -46 10 -14 3 -36 8 -50 10 -26 5 -111 23 -145 31 -11 3 -30 7 -42&#10;10 -48 11 -61 14 -153 38 -105 28 -267 75 -290 84 -8 3 -19 7 -25 8 -14 3&#10;-164 58 -250 90 -38 15 -79 29 -90 32 -11 4 -30 13 -42 20 -12 8 -26 15 -30&#10;15 -12 1 -52 17 -110 44 -28 13 -54 24 -57 24 -3 0 -79 37 -168 82 -90 44&#10;-181 90 -203 101 -22 10 -48 26 -57 35 -10 8 -18 12 -18 8 0 -3 -11 1 -25 10&#10;l-25 16 0 -391z"/>
	</g>
</svg>