<?xml version="1.0" encoding="utf-8"?>
<svg xmlns="http://www.w3.org/2000/svg" fill="white" width="23" height="23" viewBox="0 0 23 23">
	<g id="layer-MC1-1" transform="matrix(0.22708900272846222, 0, 0, 0.22708900272846222, -71.42888641357422, 82.52457427978517)" style="">
		<g id="g8">
			<path id="path56-6" d="m 0,0 c 11.238,0 21.317,-2.688 28.586,-7.452 v -7.269 C 19.668,-9.65 10.444,-7.513 0,-7.513 c -10.445,0 -19.668,-2.137 -28.586,-7.208 v 7.269 C -21.195,-2.688 -11.239,0 0,0" style="fill-opacity:1;fill-rule:nonzero;stroke:none" transform="matrix(1.3333333,0,0,-1.3333333,366.0902,-358.00001)" clip-path="url(#clipPath57-9)"/>
			<path id="path58-9" d="m 0,0 c 8.918,-5.069 18.141,-7.269 28.586,-7.269 10.444,0 19.668,2.2 28.586,7.269 v -7.269 c -7.269,-4.825 -17.348,-7.452 -28.586,-7.452 -11.239,0 -21.195,2.627 -28.586,7.452 z" style="fill-opacity:1;fill-rule:nonzero;stroke:none" transform="matrix(1.3333333,0,0,-1.3333333,327.9755,-330.71495)" clip-path="url(#clipPath59-7)"/>
			<path id="path60-6" d="m 0,0 c 8.918,-5.069 18.141,-7.269 28.586,-7.269 10.444,0 19.668,2.2 28.586,7.269 v -7.269 c -7.269,-4.825 -17.348,-7.452 -28.586,-7.452 -11.239,0 -21.195,2.627 -28.586,7.452 z" style="fill-opacity:1;fill-rule:nonzero;stroke:none" transform="matrix(1.3333333,0,0,-1.3333333,327.9755,-306.44415)" clip-path="url(#clipPath61-2)"/>
			<path id="path62-6" d="m 0,0 c 8.918,-5.069 18.141,-7.269 28.586,-7.269 10.444,0 19.668,2.2 28.586,7.269 v -7.269 c -7.269,-4.825 -17.348,-7.452 -28.586,-7.452 -11.239,0 -21.195,2.627 -28.586,7.452 z" style="fill-opacity:1;fill-rule:nonzero;stroke:none" transform="matrix(1.3333333,0,0,-1.3333333,327.9755,-282.17321)" clip-path="url(#clipPath63-1)"/>
		</g>
	</g>
</svg>