<svg fill="#FF9D7C" xmlns="http://www.w3.org/2000/svg"  viewBox="0 0 50 50" width="16" height="16">
	<path d="M 5 4 C 4.45 4 4 4.45 4 5 L 4 13 L 13 13 L 13 4 L 5 4 z M 15 4 L 15 13 L 24 13 L 24 4 L 15 4 z M 26 4 L 26 13 L 35 13 L 35 4 L 26 4 z M 37 4 L 37 13 L 46 13 L 46 5 C 46 4.45 45.55 4 45 4 L 37 4 z M 4 15 L 4 24 L 13 24 L 13 15 L 4 15 z M 15 15 L 15 24 L 15 26 L 15 35 L 15 37 L 15 44 L 15 45 L 15 46 L 45 46 A 1.0001 1.0001 0 0 0 46 45 L 46 15 L 45 15 L 44 15 L 37 15 L 35 15 L 26 15 L 24 15 L 15 15 z M 17 17 L 24 17 L 24 24 L 17 24 L 17 17 z M 26 17 L 35 17 L 35 24 L 26 24 L 26 17 z M 37 17 L 44 17 L 44 24 L 37 24 L 37 17 z M 4 26 L 4 35 L 13 35 L 13 26 L 4 26 z M 17 26 L 24 26 L 24 35 L 17 35 L 17 26 z M 26 26 L 35 26 L 35 35 L 26 35 L 26 26 z M 37 26 L 44 26 L 44 35 L 37 35 L 37 26 z M 4 37 L 4 45 C 4 45.55 4.45 46 5 46 L 13 46 L 13 37 L 4 37 z M 17 37 L 24 37 L 24 44 L 17 44 L 17 37 z M 26 37 L 35 37 L 35 44 L 26 44 L 26 37 z M 37 37 L 44 37 L 44 44 L 37 44 L 37 37 z"/>
</svg>