<svg fill="#F999A3" xmlns="http://www.w3.org/2000/svg" xmlns:xlink="http://www.w3.org/1999/xlink" width="37.5pt" height="37.5pt" viewBox="0 0 37.5 37.5" version="1.1">
	<path d="M 2.082031 0 C 0.945312 0 0 0.945312 0 2.082031 L 0 5.78125 C -0.00390625 5.828125 -0.00390625 5.875 0 5.921875 L 0 29.601562 C 0 30.007812 0.332031 30.339844 0.738281 30.339844 L 14.058594 30.339844 C 14.324219 30.34375 14.574219 30.203125 14.710938 29.972656 C 14.84375 29.742188 14.84375 29.457031 14.710938 29.226562 C 14.574219 28.996094 14.324219 28.855469 14.058594 28.859375 L 1.480469 28.859375 L 1.480469 6.660156 L 31.078125 6.660156 L 31.078125 22.941406 C 31.078125 23.207031 31.214844 23.453125 31.445312 23.589844 C 31.679688 23.722656 31.960938 23.722656 32.191406 23.589844 C 32.425781 23.453125 32.5625 23.207031 32.558594 22.941406 L 32.558594 5.921875 C 32.566406 5.875 32.566406 5.828125 32.558594 5.78125 L 32.558594 2.082031 C 32.558594 0.945312 31.613281 0 30.480469 0 Z M 2.082031 1.480469 L 30.480469 1.480469 C 30.824219 1.480469 31.078125 1.738281 31.078125 2.082031 L 31.078125 5.179688 L 1.480469 5.179688 L 1.480469 2.082031 C 1.480469 1.738281 1.738281 1.480469 2.082031 1.480469 Z M 5.179688 11.101562 L 5.179688 12.578125 L 8.140625 12.578125 L 8.140625 11.101562 Z M 10.359375 11.101562 L 10.359375 12.578125 L 27.378906 12.578125 L 27.378906 11.101562 Z M 5.179688 14.800781 L 5.179688 16.28125 L 8.140625 16.28125 L 8.140625 14.800781 Z M 10.359375 14.800781 L 10.359375 16.28125 L 27.378906 16.28125 L 27.378906 14.800781 Z M 5.179688 18.5 L 5.179688 19.980469 L 8.140625 19.980469 L 8.140625 18.5 Z M 10.359375 18.5 L 10.359375 19.980469 L 27.378906 19.980469 L 27.378906 18.5 Z M 5.179688 22.199219 L 5.179688 23.679688 L 8.140625 23.679688 L 8.140625 22.199219 Z M 10.359375 22.199219 L 10.359375 23.679688 L 21.460938 23.679688 L 21.460938 22.199219 Z M 26.640625 23.679688 C 20.761719 23.679688 16.417969 29.902344 16.417969 29.902344 C 16.226562 30.160156 16.226562 30.519531 16.417969 30.78125 C 16.417969 30.78125 20.761719 37 26.640625 37 C 32.515625 37 36.859375 30.78125 36.859375 30.78125 C 37.054688 30.519531 37.054688 30.160156 36.859375 29.902344 C 36.859375 29.902344 32.515625 23.679688 26.640625 23.679688 Z M 26.640625 25.160156 C 31.050781 25.160156 34.660156 29.601562 35.242188 30.339844 C 34.660156 31.078125 31.050781 35.519531 26.640625 35.519531 C 22.230469 35.519531 18.621094 31.078125 18.039062 30.339844 C 18.621094 29.601562 22.230469 25.160156 26.640625 25.160156 Z M 26.640625 25.898438 C 24.199219 25.898438 22.199219 27.898438 22.199219 30.339844 C 22.199219 32.78125 24.199219 34.78125 26.640625 34.78125 C 29.082031 34.78125 31.078125 32.78125 31.078125 30.339844 C 31.078125 27.898438 29.082031 25.898438 26.640625 25.898438 Z M 26.640625 27.378906 C 28.285156 27.378906 29.601562 28.695312 29.601562 30.339844 C 29.601562 31.984375 28.285156 33.300781 26.640625 33.300781 C 24.996094 33.300781 23.679688 31.984375 23.679688 30.339844 C 23.679688 28.695312 24.996094 27.378906 26.640625 27.378906 Z M 26.640625 28.859375 C 25.820312 28.859375 25.160156 29.523438 25.160156 30.339844 C 25.160156 31.15625 25.820312 31.820312 26.640625 31.820312 C 27.457031 31.820312 28.121094 31.15625 28.121094 30.339844 C 28.121094 29.523438 27.457031 28.859375 26.640625 28.859375 Z M 26.640625 28.859375 "/>
</svg>