<svg fill="#7655FF" xmlns="http://www.w3.org/2000/svg"  viewBox="0 0 50 50" width="16" height="16">
	<path d="M 6 2 C 5.447 2 5 2.448 5 3 L 5 13 C 5 13.552 5.447 14 6 14 L 22 14 C 22.553 14 23 13.552 23 13 L 23 3 C 23 2.448 22.553 2 22 2 L 6 2 z M 13 16 L 13 42 A 1.0001 1.0001 0 0 0 14 43 L 25 43 L 25 41 L 15 41 L 15 26 L 25 26 L 25 24 L 15 24 L 15 16 L 13 16 z M 28 19 C 27.447 19 27 19.448 27 20 L 27 30 C 27 30.552 27.447 31 28 31 L 44 31 C 44.553 31 45 30.552 45 30 L 45 20 C 45 19.448 44.553 19 44 19 L 28 19 z M 28 36 C 27.447 36 27 36.448 27 37 L 27 47 C 27 47.552 27.447 48 28 48 L 44 48 C 44.553 48 45 47.552 45 47 L 45 37 C 45 36.448 44.553 36 44 36 L 28 36 z"/>
</svg>