<svg fill="#94a4ad" xmlns="http://www.w3.org/2000/svg"  viewBox="0 0 32 32" width="500px" height="500px">
	<path d="M 11 2 C 10.447 2 10 2.448 10 3 C 10 3.552 10.447 4 11 4 L 22.585938 4 L 28 9.4140625 L 28 28 L 11 28 C 10.447 28 10 28.448 10 29 C 10 29.552 10.447 30 11 30 L 29 30 C 29.553 30 30 29.552 30 29 L 30 9 C 30 8.735 29.895031 8.4799688 29.707031 8.2929688 L 23.707031 2.2929688 C 23.520031 2.1049688 23.266 2 23 2 L 11 2 z M 7 3 C 5.346 3 4 4.346 4 6 C 4 7.654 5.346 9 7 9 C 8.654 9 10 7.654 10 6 C 10 4.346 8.654 3 7 3 z M 7 9 L 5 9 C 2.936 9 2 12.835 2 14 C 2 14.552 2.447 15 3 15 C 3.553 15 4 14.552 4 14 C 4 13.115 4.6558438 11.331 5.0898438 11 L 8.9101562 11 C 9.3441562 11.331 10 13.115 10 14 C 10 14.552 10.447 15 11 15 C 11.553 15 12 14.552 12 14 C 12 12.835 11.064 9 9 9 L 7 9 z M 7 5 C 7.552 5 8 5.449 8 6 C 8 6.551 7.552 7 7 7 C 6.448 7 6 6.551 6 6 C 6 5.449 6.448 5 7 5 z M 18 6 C 17.74425 6 17.488469 6.0974688 17.292969 6.2929688 L 15 8.5859375 L 14.707031 8.2929688 C 14.316031 7.9019687 13.683969 7.9019688 13.292969 8.2929688 C 12.901969 8.6839688 12.901969 9.3160312 13.292969 9.7070312 L 14.292969 10.707031 C 14.487969 10.902031 14.744 11 15 11 C 15.256 11 15.512031 10.902031 15.707031 10.707031 L 18.707031 7.7070312 C 19.098031 7.3160312 19.098031 6.6839687 18.707031 6.2929688 C 18.511531 6.0974687 18.25575 6 18 6 z M 16 13 C 14.346 13 13 14.346 13 16 C 13 17.654 14.346 19 16 19 C 17.315 19 18.421172 18.143844 18.826172 16.964844 C 18.884172 16.975844 18.938 17 19 17 L 26 17 C 26.553 17 27 16.552 27 16 L 27 14 C 27 13.448 26.553 13 26 13 C 25.447 13 25 13.448 25 14 L 25 15 L 24 15 L 24 14 C 24 13.448 23.553 13 23 13 C 22.447 13 22 13.448 22 14 L 22 15 L 19 15 C 18.938 15 18.884172 15.024156 18.826172 15.035156 C 18.421172 13.856156 17.315 13 16 13 z M 7 15 C 5.346 15 4 16.346 4 18 C 4 19.654 5.346 21 7 21 C 8.654 21 10 19.654 10 18 C 10 16.346 8.654 15 7 15 z M 7 21 L 5 21 C 2.936 21 2 24.835 2 26 C 2 26.552 2.447 27 3 27 C 3.553 27 4 26.552 4 26 C 4 25.115 4.6558438 23.331 5.0898438 23 L 8.9101562 23 C 9.3441562 23.331 10 25.115 10 26 C 10 26.552 10.447 27 11 27 C 11.553 27 12 26.552 12 26 C 12 24.835 11.064 21 9 21 L 7 21 z M 16 15 C 16.552 15 17 15.449 17 16 C 17 16.551 16.552 17 16 17 C 15.448 17 15 16.551 15 16 C 15 15.449 15.448 15 16 15 z M 7 17 C 7.552 17 8 17.449 8 18 C 8 18.551 7.552 19 7 19 C 6.448 19 6 18.551 6 18 C 6 17.449 6.448 17 7 17 z M 14 21 C 13.74425 21 13.488469 21.097469 13.292969 21.292969 C 12.901969 21.683969 12.901969 22.316031 13.292969 22.707031 L 14.085938 23.5 L 13.292969 24.292969 C 12.901969 24.683969 12.901969 25.316031 13.292969 25.707031 C 13.487969 25.902031 13.744 26 14 26 C 14.256 26 14.512031 25.902031 14.707031 25.707031 L 15.5 24.914062 L 16.292969 25.707031 C 16.487969 25.902031 16.744 26 17 26 C 17.256 26 17.512031 25.902031 17.707031 25.707031 C 18.098031 25.316031 18.098031 24.683969 17.707031 24.292969 L 16.914062 23.5 L 17.707031 22.707031 C 18.098031 22.316031 18.098031 21.683969 17.707031 21.292969 C 17.316031 20.901969 16.683969 20.901969 16.292969 21.292969 L 15.5 22.085938 L 14.707031 21.292969 C 14.511531 21.097469 14.25575 21 14 21 z"/>
</svg>