<svg fill="#94a4ad" id="Layer_1" data-name="Layer 1" xmlns="http://www.w3.org/2000/svg" viewBox="0 0 16 16"><path d="M3.54,11h.79a.48.48,0,0,0,.39-.16C5.58,10,6.45,9.07,7.33,8.21c.17-.17.15-.27,0-.43L4.73,5.19A.54.54,0,0,0,4.29,5H3.6c0,.16.12.21.18.3a1.06,1.06,0,0,1,0,1.42,1,1,0,0,1-1.42,0C1.6,6.08.9,5.39.23,4.68A1,1,0,0,1,.28,3.23c.64-.65,1.29-1.3,2-1.94a1.06,1.06,0,0,1,1.49-.05,1.06,1.06,0,0,1,0,1.49l-.15.16c.06.12.16.07.23.07.36,0,.73,0,1.09,0a1.17,1.17,0,0,1,.95.4L8.68,6.19c.33.33.33.33.67,0,.93-.93,1.87-1.85,2.79-2.79a1.33,1.33,0,0,1,1-.43C13.78,3,14.4,3,15,3a1,1,0,0,1,1,1,1,1,0,0,1-1,1H13.75a.59.59,0,0,0-.45.18L10.69,7.8c-.16.16-.14.26,0,.41Q12,9.5,13.31,10.82a.55.55,0,0,0,.42.17H15a1,1,0,0,1,0,2H13.13a1.2,1.2,0,0,1-1-.39c-1-1-1.94-1.93-2.89-2.9-.22-.22-.34-.21-.55,0-.94,1-1.91,1.91-2.85,2.87a1.3,1.3,0,0,1-1,.43c-.41,0-.83,0-1.27,0,0,.15.12.2.19.29a1.07,1.07,0,0,1,0,1.42,1,1,0,0,1-1.45,0c-.69-.66-1.37-1.34-2-2a1,1,0,0,1,0-1.47c.65-.67,1.31-1.32,2-2a1.05,1.05,0,0,1,1.47,0,1.07,1.07,0,0,1,0,1.49C3.68,10.8,3.63,10.87,3.54,11Z"/></svg>