<svg fill="#94a4ad" id="Layer_1" data-name="Layer 1" xmlns="http://www.w3.org/2000/svg" viewBox="0 0 16 16">
	<path d="M3.7,9.1A3.72,3.72,0,0,0,7.42,5.38.41.41,0,0,0,7,5H4.12V2.07a.42.42,0,0,0-.42-.42,3.73,3.73,0,1,0,0,7.45ZM10,2.62a.42.42,0,0,0,.42.42h4.13A.41.41,0,0,0,15,2.62a.43.43,0,0,0-.41-.42H10.41a.42.42,0,0,0-.42.42Zm0-2.2a.42.42,0,0,0,.42.42h4.13A.42.42,0,0,0,15,.42.42.42,0,0,0,14.54,0H10.41A.42.42,0,0,0,10,.42Zm5.56,14.74a.42.42,0,1,1,0,.84H1.29a.42.42,0,0,1,0-.84h.88V11.47a.42.42,0,0,1,.42-.42H5a.41.41,0,0,1,.42.42h0v3.69H6.69V9.24a.42.42,0,0,1,.42-.42h2.4a.42.42,0,0,1,.42.42h0v5.92H11.2V5.78a.42.42,0,0,1,.42-.42H14a.41.41,0,0,1,.41.42v9.38ZM5.35,0A3.72,3.72,0,0,1,9.07,3.73a.42.42,0,0,1-.41.42H5.35a.42.42,0,0,1-.42-.42h0V.42A.42.42,0,0,1,5.35,0Z"/>
</svg>