<svg fill="#94a4ad" id="Layer_1" data-name="Layer 1" xmlns="http://www.w3.org/2000/svg" viewBox="0 0 16 16"><path d="M9.53,13.2a6.86,6.86,0,0,1-2.61-.51.33.33,0,0,0-.45.09c-.85.86-1.7,1.71-2.56,2.56A2.29,2.29,0,0,1,.09,14.29,2.19,2.19,0,0,1,.67,12.1c.83-.86,1.68-1.69,2.53-2.53a.4.4,0,0,0,.11-.51,6.58,6.58,0,1,1,7.23,4C10.18,13.15,9.8,13.17,9.53,13.2ZM13,9.49a8.09,8.09,0,0,1-3.58.88,8.11,8.11,0,0,1-3.63-.92A4.56,4.56,0,0,0,13,9.49Zm0-5.8A4.52,4.52,0,0,0,8.89,2C7.71,2.08,6.07,3,5.83,3.72A7.65,7.65,0,0,1,13,3.69ZM2.26,14.06a.57.57,0,0,0,.4-.2l2-2c.35-.34.34-.34,0-.68-.13-.14-.21-.14-.34,0-.73.75-1.48,1.49-2.22,2.23a.86.86,0,0,0-.14.18A.36.36,0,0,0,2.26,14.06Zm8-7.45a.89.89,0,1,0-1.78,0,.89.89,0,0,0,1.78,0ZM6.8,5.41A6.41,6.41,0,0,0,5.24,6.5a.12.12,0,0,0,0,.19A6.15,6.15,0,0,0,6.8,7.78,3.09,3.09,0,0,1,6.8,5.41Zm5.17,0A2.85,2.85,0,0,1,12,7.8a6.5,6.5,0,0,0,1.57-1.08c.08-.07.12-.14,0-.23A6.64,6.64,0,0,0,12,5.38Z"/></svg>