<svg fill="#94a4ad" id="Layer_1" data-name="Layer 1" xmlns="http://www.w3.org/2000/svg" viewBox="0 0 16 16">
	<path class="cls-1" d="M7.16,14.88H2.11A2.11,2.11,0,0,1,0,12.77V2.11A2.1,2.1,0,0,1,2.11,0h10.1a2.11,2.11,0,0,1,2.11,2.11V9a.43.43,0,0,1-.85,0V2.11A1.26,1.26,0,0,0,12.21.84H2.11A1.27,1.27,0,0,0,.84,2.11V12.77A1.27,1.27,0,0,0,2.11,14H7.16a.42.42,0,0,1,.42.42A.42.42,0,0,1,7.16,14.88Z"/>
	<path class="cls-1" d="M3.51,11.18A.41.41,0,0,1,3.17,11a4.79,4.79,0,0,1-.92-2.86V6.74A4.9,4.9,0,0,1,9.61,2.48a.42.42,0,1,1-.42.73,4,4,0,0,0-2-.54A4.07,4.07,0,0,0,3.09,6.74v1.4a4,4,0,0,0,.76,2.37.42.42,0,0,1-.1.59.43.43,0,0,1-.24.08Z"/>
	<path class="cls-1" d="M7.16,13.05a4.91,4.91,0,0,1-2.87-.92.42.42,0,0,1-.09-.59.41.41,0,0,1,.58-.09,4.06,4.06,0,0,0,2.38.76.42.42,0,1,1,0,.84Z"/>
	<path class="cls-1" d="M11.64,8.86h0a.42.42,0,0,1-.38-.45,2.44,2.44,0,0,0,0-.27V6.74a4,4,0,0,0-.71-2.29.42.42,0,0,1,.7-.48,4.87,4.87,0,0,1,.85,2.77v1.4c0,.11,0,.23,0,.34a.42.42,0,0,1-.42.38Z"/>
	<path class="cls-1" d="M7.16,11.37A3.23,3.23,0,0,1,3.93,8.14V6.74a3.24,3.24,0,0,1,.32-1.41.42.42,0,0,1,.57-.19A.42.42,0,0,1,5,5.7a2.3,2.3,0,0,0-.24,1v1.4a2.39,2.39,0,0,0,2.39,2.39.42.42,0,0,1,.42.42A.42.42,0,0,1,7.16,11.37Z"/>
	<path class="cls-1" d="M10,8a.42.42,0,0,1-.42-.42V6.74A2.39,2.39,0,0,0,7.16,4.35a.42.42,0,1,1,0-.84,3.23,3.23,0,0,1,3.23,3.23v.84A.42.42,0,0,1,10,8Z"/>
	<path class="cls-1" d="M5.47,4.91a.41.41,0,0,1-.33-.16.42.42,0,0,1,.08-.59,3.62,3.62,0,0,1,.32-.22.43.43,0,0,1,.58.16A.41.41,0,0,1,6,4.67a1.43,1.43,0,0,0-.24.16A.42.42,0,0,1,5.47,4.91Z"/>
	<path class="cls-1" d="M6,8.56a.42.42,0,0,1-.43-.42V6.74a1.55,1.55,0,0,1,2.71-1,.42.42,0,0,1-.64.55A.68.68,0,0,0,7.16,6a.7.7,0,0,0-.7.7v1.4A.42.42,0,0,1,6,8.56Z"/>
	<path class="cls-1" d="M7.16,9.68a1.58,1.58,0,0,1-.77-.2.42.42,0,1,1,.42-.73.68.68,0,0,0,.35.09.7.7,0,0,0,.7-.7V7.58a.42.42,0,1,1,.84,0v.56A1.54,1.54,0,0,1,7.16,9.68Z"/>
	<path class="cls-1" d="M12,8a4,4,0,1,0,4,4A4,4,0,0,0,12,8Zm1.91,3.2-2.17,2.2a.42.42,0,0,1-.3.12h0a.43.43,0,0,1-.3-.16l-1-1.36a.42.42,0,0,1,.67-.51l.75,1,1.83-1.85a.41.41,0,0,1,.59,0A.43.43,0,0,1,13.91,11.2Z"/>
</svg>