<svg fill="#94a4ad" id="Layer_1" data-name="Layer 1" xmlns="http://www.w3.org/2000/svg" viewBox="0 0 16 16"><path d="M13,15H12a1,1,0,0,1-1-1c0-.67,0-1.34,0-2a1,1,0,0,1,1.66-.75c.2.21.28.13.4-.07a6.29,6.29,0,0,0,.76-1.86c0-.18,0-.27-.17-.33A.93.93,0,0,1,13,8a.92.92,0,0,1,.69-1c.14,0,.17-.12.15-.28A6,6,0,0,0,9.24,2.21c-.16,0-.23,0-.28.15a1,1,0,0,1-1,.69,1,1,0,0,1-1-.69c0-.15-.12-.18-.28-.15A6,6,0,0,0,2.21,6.78c0,.16,0,.23.15.28A.92.92,0,0,1,3.05,8a.93.93,0,0,1-.67,1c-.18.07-.2.16-.16.33a5.9,5.9,0,0,0,4.49,4.52c.18,0,.25,0,.33-.17a1,1,0,0,1,2,.43c0,.3,0,.6,0,.9a1,1,0,0,1-1,1,8,8,0,1,1,7.87-9.47A7.82,7.82,0,0,1,14.4,12.8c-.12.15-.13.21.06.31A1,1,0,0,1,13.94,15H13Z"/><path d="M7,9H6A1,1,0,0,1,5,8,1,1,0,0,1,6,7c.42,0,.84,0,1.27,0a.62.62,0,0,0,.49-.21L9.2,5.34a1,1,0,0,1,1.11-.29,1,1,0,0,1,.41,1.69c-.48.52-1,1-1.49,1.5l-.44.44A1.09,1.09,0,0,1,7.93,9Z"/></svg>