<svg fill="#94a4ad" xmlns="http://www.w3.org/2000/svg"  viewBox="0 0 32 32" width="500px" height="500px">
	<path d="M 5 2 C 3.346 2 2 3.346 2 5 L 2 9 C 2 10.654 3.346 12 5 12 L 12.539062 12 C 11.585063 13.063 11 14.462 11 16 C 11 17.558 11.601125 18.974969 12.578125 20.042969 C 11.124125 20.248969 10 21.49 10 23 L 10 27 C 10 28.654 11.346 30 13 30 L 27 30 C 28.654 30 30 28.654 30 27 L 30 23 C 30 21.346 28.654 20 27 20 L 21.460938 20 C 22.332937 19.029 22.889469 17.776531 22.980469 16.394531 L 23.294922 16.707031 C 23.488922 16.902031 23.744 17 24 17 C 24.256 17 24.512031 16.902031 24.707031 16.707031 C 25.098031 16.316031 25.098031 15.683969 24.707031 15.292969 L 22.707031 13.292969 C 22.316031 12.901969 21.683969 12.901969 21.292969 13.292969 L 19.292969 15.292969 C 18.901969 15.683969 18.901969 16.316031 19.292969 16.707031 C 19.683969 17.098031 20.316031 17.098031 20.707031 16.707031 L 20.953125 16.460938 C 20.722125 18.446937 19.048 20 17 20 C 14.794 20 13 18.206 13 16 C 13 13.794 14.794 12 17 12 L 19 12 C 20.654 12 22 10.654 22 9 L 22 5 C 22 3.346 20.654 2 19 2 L 5 2 z M 5 4 L 19 4 C 19.552 4 20 4.449 20 5 L 20 9 C 20 9.551 19.552 10 19 10 L 5 10 C 4.448 10 4 9.551 4 9 L 4 5 C 4 4.449 4.448 4 5 4 z M 12 5 C 11.447 5 11 5.448 11 6 L 11 8 C 11 8.552 11.447 9 12 9 C 12.553 9 13 8.552 13 8 L 13 6 C 13 5.448 12.553 5 12 5 z M 15 5 C 14.447 5 14 5.448 14 6 L 14 8 C 14 8.552 14.447 9 15 9 C 15.553 9 16 8.552 16 8 L 16 6 C 16 5.448 15.553 5 15 5 z M 18 5 C 17.447 5 17 5.448 17 6 L 17 8 C 17 8.552 17.447 9 18 9 C 18.553 9 19 8.552 19 8 L 19 6 C 19 5.448 18.553 5 18 5 z M 13 22 L 27 22 C 27.552 22 28 22.449 28 23 L 28 27 C 28 27.551 27.552 28 27 28 L 13 28 C 12.448 28 12 27.551 12 27 L 12 23 C 12 22.449 12.448 22 13 22 z M 20 23 C 19.447 23 19 23.448 19 24 L 19 26 C 19 26.552 19.447 27 20 27 C 20.553 27 21 26.552 21 26 L 21 24 C 21 23.448 20.553 23 20 23 z M 23 23 C 22.447 23 22 23.448 22 24 L 22 26 C 22 26.552 22.447 27 23 27 C 23.553 27 24 26.552 24 26 L 24 24 C 24 23.448 23.553 23 23 23 z M 26 23 C 25.447 23 25 23.448 25 24 L 25 26 C 25 26.552 25.447 27 26 27 C 26.553 27 27 26.552 27 26 L 27 24 C 27 23.448 26.553 23 26 23 z"/>
</svg>