<svg fill="#94a4ad" xmlns="http://www.w3.org/2000/svg"  viewBox="0 0 32 32" width="32px" height="32px"><path d="M 8 5 C 6.3550302 5 5 6.3550302 5 8 L 5 12 C 5 13.64497 6.3550302 15 8 15 C 9.6449698 15 11 13.64497 11 12 L 11 8 C 11 6.3550302 9.6449698 5 8 5 z M 13 5 L 13 15 L 15 15 L 15 5 L 13 5 z M 20 5 C 18.35503 5 17 6.3550302 17 8 L 17 12 C 17 13.64497 18.35503 15 20 15 C 21.64497 15 23 13.64497 23 12 L 23 8 C 23 6.3550302 21.64497 5 20 5 z M 25 5 L 25 15 L 27 15 L 27 5 L 25 5 z M 8 7 C 8.5650302 7 9 7.4349698 9 8 L 9 12 C 9 12.56503 8.5650302 13 8 13 C 7.4349698 13 7 12.56503 7 12 L 7 8 C 7 7.4349698 7.4349698 7 8 7 z M 20 7 C 20.56503 7 21 7.4349698 21 8 L 21 12 C 21 12.56503 20.56503 13 20 13 C 19.43497 13 19 12.56503 19 12 L 19 8 C 19 7.4349698 19.43497 7 20 7 z M 5 17 L 5 27 L 7 27 L 7 17 L 5 17 z M 12 17 C 10.35503 17 9 18.35503 9 20 L 9 24 C 9 25.64497 10.35503 27 12 27 C 13.64497 27 15 25.64497 15 24 L 15 20 C 15 18.35503 13.64497 17 12 17 z M 17 17 L 17 27 L 19 27 L 19 17 L 17 17 z M 24 17 C 22.35503 17 21 18.35503 21 20 L 21 24 C 21 25.64497 22.35503 27 24 27 C 25.64497 27 27 25.64497 27 24 L 27 20 C 27 18.35503 25.64497 17 24 17 z M 12 19 C 12.56503 19 13 19.43497 13 20 L 13 24 C 13 24.56503 12.56503 25 12 25 C 11.43497 25 11 24.56503 11 24 L 11 20 C 11 19.43497 11.43497 19 12 19 z M 24 19 C 24.56503 19 25 19.43497 25 20 L 25 24 C 25 24.56503 24.56503 25 24 25 C 23.43497 25 23 24.56503 23 24 L 23 20 C 23 19.43497 23.43497 19 24 19 z"/></svg>