<svg fill="#94a4ad" xmlns="http://www.w3.org/2000/svg"  viewBox="0 0 32 32" width="500px" height="500px">
	<path d="M 5 2 C 3.346 2 2 3.346 2 5 L 2 17.039062 C 2 18.671063 3.3289375 20 4.9609375 20 C 7.1889375 20 9 21.812062 9 24.039062 L 9 29 C 9 29.553 9.448 30 10 30 C 10.552 30 11 29.553 11 29 L 11 24.039062 C 11 20.709063 8.2919375 18 4.9609375 18 C 4.4319375 18 4 17.569 4 17 L 4 12 L 28 12 L 28 17.039062 C 28 17.568062 27.568062 18 27.039062 18 C 23.709063 18 21 20.709062 21 24.039062 L 21 29 C 21 29.553 21.448 30 22 30 C 22.552 30 23 29.553 23 29 L 23 24.039062 C 23 21.811062 24.811062 20 27.039062 20 C 28.671063 20 30 18.671062 30 17.039062 L 30 5 C 30 3.346 28.654 2 27 2 L 5 2 z M 5 4 L 27 4 C 27.551 4 28 4.448 28 5 L 28 10 L 4 10 L 4 5 C 4 4.448 4.449 4 5 4 z M 17 5 C 16.448 5 16 5.447 16 6 L 16 8 C 16 8.553 16.448 9 17 9 C 17.552 9 18 8.553 18 8 L 18 6 C 18 5.447 17.552 5 17 5 z M 20 5 C 19.448 5 19 5.447 19 6 L 19 8 C 19 8.553 19.448 9 20 9 C 20.552 9 21 8.553 21 8 L 21 6 C 21 5.447 20.552 5 20 5 z M 23 5 C 22.448 5 22 5.447 22 6 L 22 8 C 22 8.553 22.448 9 23 9 C 23.552 9 24 8.553 24 8 L 24 6 C 24 5.447 23.552 5 23 5 z M 26 5 C 25.448 5 25 5.447 25 6 L 25 8 C 25 8.553 25.448 9 26 9 C 26.552 9 27 8.553 27 8 L 27 6 C 27 5.447 26.552 5 26 5 z M 17 13 C 16.448 13 16 13.447 16 14 L 16 16 C 16 16.553 16.448 17 17 17 C 17.552 17 18 16.553 18 16 L 18 14 C 18 13.447 17.552 13 17 13 z M 20 13 C 19.448 13 19 13.447 19 14 L 19 16 C 19 16.553 19.448 17 20 17 C 20.552 17 21 16.553 21 16 L 21 14 C 21 13.447 20.552 13 20 13 z M 23 13 C 22.448 13 22 13.447 22 14 L 22 16 C 22 16.553 22.448 17 23 17 C 23.552 17 24 16.553 24 16 L 24 14 C 24 13.447 23.552 13 23 13 z M 26 13 C 25.448 13 25 13.447 25 14 L 25 16 C 25 16.553 25.448 17 26 17 C 26.552 17 27 16.553 27 16 L 27 14 C 27 13.447 26.552 13 26 13 z M 13 20 C 12.448 20 12 20.447 12 21 L 12 29 C 12 29.553 12.448 30 13 30 L 19 30 C 19.552 30 20 29.553 20 29 L 20 23 C 20 22.734 19.895031 22.479969 19.707031 22.292969 L 17.707031 20.292969 C 17.520031 20.104969 17.265 20 17 20 L 13 20 z M 14 22 L 16.585938 22 L 18 23.414062 L 18 28 L 14 28 L 14 22 z"/>
</svg>