<svg fill="#94a4ad" id="Layer_1" data-name="Layer 1" xmlns="http://www.w3.org/2000/svg" viewBox="0 0 16 16"><path d="M6,8.09c0-.81,0-1.62,0-2.42a1,1,0,0,1,.64-1l3.81-1.91a1.18,1.18,0,0,1,1.11,0l3.81,1.91a1.09,1.09,0,0,1,.64,1q0,2.43,0,4.86a1,1,0,0,1-.59,1l-3.89,2a1.14,1.14,0,0,1-1,0L6.6,11.52a1,1,0,0,1-.61-1Zm2,.54C8,9,8,9.34,8,9.69a.32.32,0,0,0,.19.32l1.53.77c.18.09.24,0,.24-.16,0-.72,0-1.45,0-2.18a.29.29,0,0,0-.18-.29L8.24,7.36c-.16-.08-.22,0-.22.15C8,7.88,8,8.26,8,8.63Zm5.94,0c0-.36,0-.73,0-1.09,0-.21-.06-.26-.25-.16l-1.5.75a.34.34,0,0,0-.2.35c0,.7,0,1.41,0,2.12,0,.23.06.27.27.17.47-.25,1-.49,1.44-.73A.35.35,0,0,0,14,9.66C14,9.31,14,9,14,8.63ZM11,4.78l-.16,0-1.31.65c-.17.09-.11.16,0,.22l1.25.63a.36.36,0,0,0,.36,0l1.25-.62c.21-.11.13-.18,0-.26l-1.06-.52Z"/><path d="M2.52,5.61H1a1,1,0,0,1-1-1,1,1,0,0,1,1-1H4a1,1,0,0,1,1,1,1,1,0,0,1-1,1Z"/><path d="M2.52,8.6H1a1,1,0,0,1-1-1,1,1,0,0,1,1-1H4a1,1,0,0,1,1,1,1,1,0,0,1-1,1Z"/><path d="M2.53,9.55H4a1,1,0,0,1,0,2H1a1,1,0,1,1,0-2Z"/></svg>