<svg fill="#94a4ad" id="Layer_1" data-name="Layer 1" xmlns="http://www.w3.org/2000/svg" viewBox="0 0 16 16"><path d="M10.67,1.77H15a.89.89,0,0,1,1,1V7.93a.88.88,0,0,1-1,1H6.3a.89.89,0,0,1-1-1V2.75a.89.89,0,0,1,1-1Zm0,1.82H7.45c-.23,0-.33,0-.32.31,0,1,0,1.93,0,2.9,0,.23.06.31.29.31H13.9c.24,0,.29-.09.29-.31q0-1.44,0-2.88c0-.27-.09-.33-.35-.33Z"/><path d="M8,11.57H3.65a.89.89,0,0,1-1-1V5.31a.87.87,0,0,1,.74-.87.9.9,0,0,1,1,.6,1,1,0,0,1,0,.39c0,1.33,0,2.66,0,4,0,.26.07.34.34.34H12.4a.9.9,0,1,1,0,1.8Z"/><path d="M5.34,14.23H1a.89.89,0,0,1-1-1V8A.87.87,0,0,1,.74,7.1a.9.9,0,0,1,1,.6,1,1,0,0,1,0,.39c0,1.34,0,2.68,0,4,0,.25.07.32.31.32H9.74a.9.9,0,1,1,0,1.8Z"/></svg>