<svg fill="#94a4ad" xmlns="http://www.w3.org/2000/svg"  viewBox="0 0 32 32" width="500px" height="500px">
	<path d="M 3 2 C 2.448 2 2 2.447 2 3 L 2 7 C 2 7.553 2.448 8 3 8 C 3.552 8 4 7.553 4 7 L 4 4 L 5 4 C 5.552 4 6 3.553 6 3 C 6 2.447 5.552 2 5 2 L 3 2 z M 27 2 C 26.448 2 26 2.447 26 3 C 26 3.553 26.448 4 27 4 L 28 4 L 28 7 C 28 7.553 28.448 8 29 8 C 29.552 8 30 7.553 30 7 L 30 3 C 30 2.447 29.552 2 29 2 L 27 2 z M 9 3 C 7.346 3 6 4.346 6 6 L 6 12 C 6 12.553 6.448 13 7 13 L 25 13 C 25.552 13 26 12.553 26 12 L 26 6 C 26 4.346 24.654 3 23 3 L 9 3 z M 9 5 L 23 5 C 23.551 5 24 5.448 24 6 L 24 11 L 8 11 L 8 6 C 8 5.448 8.449 5 9 5 z M 16 6 C 15.448 6 15 6.447 15 7 L 15 9 C 15 9.553 15.448 10 16 10 C 16.552 10 17 9.553 17 9 L 17 7 C 17 6.447 16.552 6 16 6 z M 19 6 C 18.448 6 18 6.447 18 7 L 18 9 C 18 9.553 18.448 10 19 10 C 19.552 10 20 9.553 20 9 L 20 7 C 20 6.447 19.552 6 19 6 z M 22 6 C 21.448 6 21 6.447 21 7 L 21 9 C 21 9.553 21.448 10 22 10 C 22.552 10 23 9.553 23 9 L 23 7 C 23 6.447 22.552 6 22 6 z M 3 14 C 2.448 14 2 14.447 2 15 C 2 15.553 2.448 16 3 16 L 12.808594 16 L 17.628906 17.929688 C 17.746906 17.976688 17.873 18 18 18 L 26.585938 18 L 26.292969 18.292969 C 25.901969 18.683969 25.901969 19.316031 26.292969 19.707031 C 26.487969 19.902031 26.744 20 27 20 C 27.256 20 27.512031 19.902031 27.707031 19.707031 L 29.707031 17.707031 C 30.098031 17.316031 30.098031 16.683969 29.707031 16.292969 L 27.707031 14.292969 C 27.316031 13.901969 26.683969 13.901969 26.292969 14.292969 C 25.901969 14.683969 25.901969 15.316031 26.292969 15.707031 L 26.585938 16 L 18.191406 16 L 13.371094 14.070312 C 13.253094 14.023312 13.127 14 13 14 L 3 14 z M 7 19 C 6.448 19 6 19.447 6 20 L 6 26 C 6 27.654 7.346 29 9 29 L 23 29 C 24.654 29 26 27.654 26 26 L 26 20 C 26 19.447 25.552 19 25 19 L 7 19 z M 8 21 L 24 21 L 24 26 C 24 26.552 23.551 27 23 27 L 9 27 C 8.449 27 8 26.552 8 26 L 8 21 z M 16 22 C 15.448 22 15 22.447 15 23 L 15 25 C 15 25.553 15.448 26 16 26 C 16.552 26 17 25.553 17 25 L 17 23 C 17 22.447 16.552 22 16 22 z M 19 22 C 18.448 22 18 22.447 18 23 L 18 25 C 18 25.553 18.448 26 19 26 C 19.552 26 20 25.553 20 25 L 20 23 C 20 22.447 19.552 22 19 22 z M 22 22 C 21.448 22 21 22.447 21 23 L 21 25 C 21 25.553 21.448 26 22 26 C 22.552 26 23 25.553 23 25 L 23 23 C 23 22.447 22.552 22 22 22 z M 3 24 C 2.448 24 2 24.447 2 25 L 2 29 C 2 29.553 2.448 30 3 30 L 5 30 C 5.552 30 6 29.553 6 29 C 6 28.447 5.552 28 5 28 L 4 28 L 4 25 C 4 24.447 3.552 24 3 24 z M 29 24 C 28.448 24 28 24.447 28 25 L 28 28 L 27 28 C 26.448 28 26 28.447 26 29 C 26 29.553 26.448 30 27 30 L 29 30 C 29.552 30 30 29.553 30 29 L 30 25 C 30 24.447 29.552 24 29 24 z"/>
</svg>