<svg fill="#94a4ad" xmlns="http://www.w3.org/2000/svg" viewBox="0 0 16 16">
	<path d="M2.67,15.47H13.33V16H2.67Z"/>
	<path d="M8,.92a3.73,3.73,0,1,0,3.73,3.73A3.73,3.73,0,0,0,8,.92ZM9.79,4.19a.29.29,0,0,1,.06.29.27.27,0,0,1-.25.17H6.67v2.4H6.13V2.25A.27.27,0,0,1,6.4,2H9.6a.27.27,0,0,1,.25.17.28.28,0,0,1-.06.29l-.88.88Z"/>
	<path d="M6.86,4.27H9.14l-.61-.61a.28.28,0,0,1,0-.38l.61-.61H6.86Z"/>
	<path d="M11.24,1.26A4.74,4.74,0,0,0,8,0L7.57,0A4.89,4.89,0,0,0,3.2,4.92,6.43,6.43,0,0,0,4,8.05l4,6.63,4-6.63a6.42,6.42,0,0,0,.81-3.12V4.8a4.82,4.82,0,0,0-1.56-3.54ZM8,9.07A4.27,4.27,0,1,1,12.27,4.8,4.28,4.28,0,0,1,8,9.07Z"/>
</svg>