<svg fill="#94a4ad" xmlns="http://www.w3.org/2000/svg" viewBox="0 0 16 16">
	<path d="M12.78,7.53H11.9c0,.16,0,.31,0,.47s0,.31,0,.47h.88a1.51,1.51,0,0,0,1.44,1.09,1.56,1.56,0,0,0,0-3.12A1.51,1.51,0,0,0,12.78,7.53Z"/>
	<path d="M13.16,10.69a2.47,2.47,0,0,0-1.46.47l-.63-.64a3.34,3.34,0,0,1-.64.66l.63.65a2.69,2.69,0,0,0-.46,1.51,2.57,2.57,0,1,0,2.56-2.65Z"/>
	<path d="M2.54,4.69A2.2,2.2,0,0,0,3.78,4.3L4.93,5.48a3.34,3.34,0,0,1,.64-.66L4.42,3.64a2.41,2.41,0,0,0,.38-1.3A2.3,2.3,0,0,0,2.54,0,2.31,2.31,0,0,0,.27,2.34,2.31,2.31,0,0,0,2.54,4.69Z"/>
	<ellipse cx="8" cy="8" rx="3.02" ry="3.13"/>
	<path d="M4.1,8.47c0-.16,0-.31,0-.47s0-.31,0-.47H2.6a1.2,1.2,0,0,0-1.12-.78,1.25,1.25,0,0,0,0,2.5A1.2,1.2,0,0,0,2.6,8.47Z"/>
	<path d="M10.53,4.9l1.36-2.13a1.27,1.27,0,0,0,.34,0,1.38,1.38,0,0,0,1.35-1.4,1.36,1.36,0,1,0-2.71,0,1.43,1.43,0,0,0,.27.84L9.78,4.38a3.86,3.86,0,0,1,.75.52Z"/>
	<path d="M5.47,11.1,4.11,13.23a1.27,1.27,0,0,0-.34,0,1.41,1.41,0,0,0,0,2.81,1.39,1.39,0,0,0,1.36-1.41,1.43,1.43,0,0,0-.27-.84l1.36-2.13a3.86,3.86,0,0,1-.75-.52Z"/>
</svg>