<svg fill="#94a4ad" xmlns="http://www.w3.org/2000/svg"  viewBox="0 0 32 32" width="500px" height="500px">
	<path d="M 3 2 C 2.447 2 2 2.448 2 3 L 2 14 C 2 14.552 2.447 15 3 15 L 11 15 C 11.553 15 12 14.552 12 14 L 12 11 L 13 11 L 13 21 L 8.9609375 21 C 7.3289375 21 6 22.328 6 24 L 6 27.039062 C 6 28.671063 7.3289375 30 8.9609375 30 L 23.039062 30 C 24.671063 30 26 28.671062 26 27.039062 L 26 23.960938 C 26 22.328937 24.671062 21 23.039062 21 L 19 21 L 19 11 L 20 11 L 20 14 C 20 14.552 20.447 15 21 15 L 29 15 C 29.553 15 30 14.552 30 14 L 30 6 C 30 5.735 29.895031 5.4799688 29.707031 5.2929688 L 26.707031 2.2929688 C 26.520031 2.1049687 26.266 2 26 2 L 21 2 C 20.447 2 20 2.448 20 3 L 20 9 L 18 9 C 17.447 9 17 9.448 17 10 L 17 21 L 15 21 L 15 10 C 15 9.448 14.553 9 14 9 L 12 9 L 12 6 C 12 5.735 11.895031 5.4799688 11.707031 5.2929688 L 8.7070312 2.2929688 C 8.5200312 2.1049687 8.266 2 8 2 L 3 2 z M 4 4 L 7.5859375 4 L 10 6.4140625 L 10 13 L 4 13 L 4 4 z M 22 4 L 25.585938 4 L 28 6.4140625 L 28 13 L 22 13 L 22 4 z M 9 23 L 23.039062 23 C 23.568062 23 24 23.431938 24 23.960938 L 24 27.039062 C 24 27.569063 23.568062 27.998047 23.039062 27.998047 L 8.9609375 27.998047 C 8.4319375 27.999047 8 27.568062 8 27.039062 L 8 23.960938 C 8 23.431938 8.431 23 9 23 z M 16 24 C 15.447 24 15 24.448 15 25 L 15 26 C 15 26.552 15.447 27 16 27 C 16.553 27 17 26.552 17 26 L 17 25 C 17 24.448 16.553 24 16 24 z M 19 24 C 18.447 24 18 24.448 18 25 L 18 26 C 18 26.552 18.447 27 19 27 C 19.553 27 20 26.552 20 26 L 20 25 C 20 24.448 19.553 24 19 24 z M 22 24 C 21.447 24 21 24.448 21 25 L 21 26 C 21 26.552 21.447 27 22 27 C 22.553 27 23 26.552 23 26 L 23 25 C 23 24.448 22.553 24 22 24 z"/>
</svg>