<svg fill="#94a4ad" xmlns="http://www.w3.org/2000/svg"  viewBox="0 0 32 32" width="500px" height="500px">
	<path d="M 3 2 C 2.448 2 2 2.448 2 3 L 2 18 C 2 18.552 2.448 19 3 19 L 9.0800781 19 C 9.0330781 19.328 9 19.66 9 20 C 9 23.86 12.14 27 16 27 C 17.048 27 18.040594 26.762656 18.933594 26.347656 L 21.878906 29.292969 C 22.333906 29.748969 22.939938 30 23.585938 30 C 24.230937 30 24.836969 29.748969 25.292969 29.292969 C 26.232969 28.351969 26.232969 26.819906 25.292969 25.878906 L 22.347656 22.933594 C 22.762656 22.040594 23 21.048 23 20 C 23 19.66 22.966922 19.328 22.919922 19 L 29 19 C 29.553 19 30 18.552 30 18 L 30 6 C 30 5.735 29.895031 5.4799688 29.707031 5.2929688 L 26.707031 2.2929688 C 26.520031 2.1049687 26.266 2 26 2 L 18 2 C 17.447 2 17 2.448 17 3 L 17 13.080078 C 16.672 13.033078 16.34 13 16 13 C 15.66 13 15.328 13.033078 15 13.080078 L 15 6 C 15 5.735 14.895031 5.4799688 14.707031 5.2929688 L 11.707031 2.2929688 C 11.520031 2.1049687 11.265 2 11 2 L 3 2 z M 4 4 L 10.585938 4 L 13 6.4140625 L 13 13.685547 C 11.55 14.377547 10.377547 15.55 9.6855469 17 L 4 17 L 4 4 z M 19 4 L 25.585938 4 L 28 6.4140625 L 28 17 L 22.314453 17 C 21.622453 15.55 20.45 14.377547 19 13.685547 L 19 4 z M 8 6 C 7.448 6 7 6.448 7 7 L 7 11.585938 L 6.7070312 11.292969 C 6.3160312 10.901969 5.6839688 10.901969 5.2929688 11.292969 C 4.9019687 11.683969 4.9019688 12.316031 5.2929688 12.707031 L 7.2929688 14.707031 C 7.4879688 14.902031 7.744 15 8 15 C 8.256 15 8.5120312 14.902031 8.7070312 14.707031 L 10.707031 12.707031 C 11.098031 12.316031 11.098031 11.683969 10.707031 11.292969 C 10.316031 10.901969 9.6839688 10.901969 9.2929688 11.292969 L 9 11.585938 L 9 7 C 9 6.448 8.552 6 8 6 z M 24 6 C 23.447 6 23 6.448 23 7 L 23 11.585938 L 22.707031 11.292969 C 22.316031 10.901969 21.683969 10.901969 21.292969 11.292969 C 20.901969 11.683969 20.901969 12.316031 21.292969 12.707031 L 23.292969 14.707031 C 23.487969 14.902031 23.744 15 24 15 C 24.256 15 24.512031 14.902031 24.707031 14.707031 L 26.707031 12.707031 C 27.098031 12.316031 27.098031 11.683969 26.707031 11.292969 C 26.316031 10.901969 25.683969 10.901969 25.292969 11.292969 L 25 11.585938 L 25 7 C 25 6.448 24.553 6 24 6 z M 16 15 C 18.757 15 21 17.243 21 20 C 21 22.757 18.757 25 16 25 C 13.243 25 11 22.757 11 20 C 11 17.243 13.243 15 16 15 z M 21.226562 24.638672 L 23.878906 27.292969 C 24.039906 27.454969 24.039906 27.717906 23.878906 27.878906 C 23.665906 28.091906 23.501969 28.087906 23.292969 27.878906 L 20.640625 25.224609 C 20.847625 25.040609 21.042563 24.845672 21.226562 24.638672 z"/>
</svg>