<svg fill="#94a4ad" id="Layer_1" data-name="Layer 1" xmlns="http://www.w3.org/2000/svg" viewBox="0 0 16 16"><path d="M7.42,2.5V.62a.58.58,0,1,1,1.16,0V4.32c0,.28,0,.28.26.34a3.44,3.44,0,0,1,0,6.66c-.29.08-.29.08-.29.38v3.72a.57.57,0,0,1-.42.56.6.6,0,0,1-.66-.26.64.64,0,0,1-.08-.36V11.71c0-.31,0-.31-.29-.39A3.43,3.43,0,0,1,7.2,4.66c.18,0,.23-.12.22-.29C7.41,3.74,7.42,3.12,7.42,2.5Zm2.8,5.26-.17.16L8.47,9.51a.61.61,0,0,1-.93,0L6.48,8.46a.6.6,0,1,1,.84-.85l.55.56c.09.1.16.11.26,0l1.49-1.5c.09-.08.1-.14,0-.23A2.25,2.25,0,0,0,5.76,8.21a2.26,2.26,0,0,0,2.45,2A2.2,2.2,0,0,0,10.06,8.9,1.82,1.82,0,0,0,10.22,7.76Z"/></svg>