<svg fill="#94a4ad" xmlns="http://www.w3.org/2000/svg"  viewBox="0 0 32 32" width="500px" height="500px">
	<path d="M 2.859375 2.0097656 C 2.605875 2.0460156 2.3647188 2.1798906 2.1992188 2.4003906 C 1.8672187 2.8423906 1.9583906 3.4697813 2.4003906 3.8007812 L 5.3320312 6 L 2.4003906 8.1992188 C 1.9583906 8.5302188 1.8672187 9.1576094 2.1992188 9.5996094 C 2.3952187 9.8616094 2.6969531 10 3.0019531 10 C 3.2109531 10 3.4196094 9.9357813 3.5996094 9.8007812 L 7.5996094 6.8007812 C 7.8516094 6.6117812 8 6.315 8 6 C 8 5.685 7.8516094 5.3882188 7.5996094 5.1992188 L 3.5996094 2.1992188 C 3.3791094 2.0337187 3.112875 1.9735156 2.859375 2.0097656 z M 9.8574219 2.0097656 C 9.6040469 2.0460156 9.3647187 2.1798906 9.1992188 2.4003906 C 8.8672188 2.8423906 8.9583906 3.4697813 9.4003906 3.8007812 L 12.332031 6 L 9.4003906 8.1992188 C 8.9583906 8.5302188 8.8672188 9.1576094 9.1992188 9.5996094 C 9.3952188 9.8616094 9.6969531 10 10.001953 10 C 10.210953 10 10.419609 9.9357813 10.599609 9.8007812 L 14.599609 6.8007812 C 14.851609 6.6117812 15 6.315 15 6 C 15 5.685 14.851609 5.3882188 14.599609 5.1992188 L 10.599609 2.1992188 C 10.378609 2.0337187 10.110797 1.9735156 9.8574219 2.0097656 z M 17.859375 2.0097656 C 17.606 2.0461406 17.366672 2.1798906 17.201172 2.4003906 C 16.869172 2.8423906 16.958391 3.4697813 17.400391 3.8007812 L 20.332031 6 L 17.400391 8.1992188 C 16.958391 8.5302188 16.867219 9.1576094 17.199219 9.5996094 C 17.395219 9.8616094 17.696953 10 18.001953 10 C 18.210953 10 18.419609 9.9357813 18.599609 9.8007812 L 22.599609 6.8007812 C 22.851609 6.6117812 23 6.315 23 6 C 23 5.685 22.851609 5.3882188 22.599609 5.1992188 L 18.599609 2.1992188 C 18.379609 2.0332188 18.11275 1.9733906 17.859375 2.0097656 z M 24.859375 2.0097656 C 24.606125 2.0461406 24.366672 2.1798906 24.201172 2.4003906 C 23.869172 2.8423906 23.958391 3.4697813 24.400391 3.8007812 L 27.332031 6 L 24.400391 8.1992188 C 23.958391 8.5302187 23.867219 9.1576094 24.199219 9.5996094 C 24.395219 9.8616094 24.696953 10 25.001953 10 C 25.210953 10 25.419609 9.9357813 25.599609 9.8007812 L 29.599609 6.8007812 C 29.851609 6.6117812 30 6.315 30 6 C 30 5.685 29.851609 5.3882188 29.599609 5.1992188 L 25.599609 2.1992188 C 25.379109 2.0332188 25.112625 1.9733906 24.859375 2.0097656 z M 9 12 C 7.346 12 6 13.346 6 15 L 6 27 C 6 28.654 7.346 30 9 30 L 23 30 C 24.654 30 26 28.654 26 27 L 26 15 C 26 13.346 24.654 12 23 12 L 9 12 z M 9 14 L 23 14 C 23.552 14 24 14.449 24 15 L 24 20 L 8 20 L 8 15 C 8 14.449 8.448 14 9 14 z M 16 15 C 15.447 15 15 15.448 15 16 L 15 18 C 15 18.552 15.447 19 16 19 C 16.553 19 17 18.552 17 18 L 17 16 C 17 15.448 16.553 15 16 15 z M 19 15 C 18.447 15 18 15.448 18 16 L 18 18 C 18 18.552 18.447 19 19 19 C 19.553 19 20 18.552 20 18 L 20 16 C 20 15.448 19.553 15 19 15 z M 22 15 C 21.447 15 21 15.448 21 16 L 21 18 C 21 18.552 21.447 19 22 19 C 22.553 19 23 18.552 23 18 L 23 16 C 23 15.448 22.553 15 22 15 z M 8 22 L 24 22 L 24 27 C 24 27.551 23.552 28 23 28 L 9 28 C 8.448 28 8 27.551 8 27 L 8 22 z M 16 23 C 15.447 23 15 23.448 15 24 L 15 26 C 15 26.552 15.447 27 16 27 C 16.553 27 17 26.552 17 26 L 17 24 C 17 23.448 16.553 23 16 23 z M 19 23 C 18.447 23 18 23.448 18 24 L 18 26 C 18 26.552 18.447 27 19 27 C 19.553 27 20 26.552 20 26 L 20 24 C 20 23.448 19.553 23 19 23 z M 22 23 C 21.447 23 21 23.448 21 24 L 21 26 C 21 26.552 21.447 27 22 27 C 22.553 27 23 26.552 23 26 L 23 24 C 23 23.448 22.553 23 22 23 z"/>
</svg>