<svg fill="#94a4ad" xmlns="http://www.w3.org/2000/svg"  viewBox="0 0 32 32" width="500px" height="500px">
	<path d="M 11 2 C 6.037 2 2 6.037 2 11 C 2 15.963 6.037 20 11 20 C 15.963 20 20 15.963 20 11 C 20 9.17 19.436156 7.39925 18.410156 5.90625 C 18.756156 5.74925 19 5.405 19 5 C 19 4.447 18.553 4 18 4 L 16 4 C 15.447 4 15 4.447 15 5 L 15 7 C 15 7.553 15.447 8 16 8 C 16.446 8 16.810453 7.7047344 16.939453 7.3027344 C 17.626453 8.4057344 18 9.683 18 11 C 18 14.859 14.859 18 11 18 C 7.141 18 4 14.859 4 11 C 4 7.141 7.141 4 11 4 C 11.553 4 12 3.553 12 3 C 12 2.447 11.553 2 11 2 z M 21 4 C 20.447 4 20 4.447 20 5 C 20 5.553 20.447 6 21 6 L 27.039062 6 C 27.568062 6 28 6.4319375 28 6.9609375 L 28 12 L 22 12 C 21.447 12 21 12.447 21 13 C 21 13.553 21.447 14 22 14 L 28 14 L 28 20 L 14 20 C 13.447 20 13 20.447 13 21 C 13 21.553 13.447 22 14 22 L 28 22 L 28 27.039062 C 28 27.568062 27.568062 28 27.039062 28 L 12.960938 28 C 12.431937 28 12 27.568062 12 27.039062 L 12 22 C 12 21.447 11.553 21 11 21 C 10.447 21 10 21.447 10 22 L 10 27.039062 C 10 28.671063 11.328938 30 12.960938 30 L 27.039062 30 C 28.671063 30 30 28.671062 30 27.039062 L 30 6.9609375 C 30 5.3289375 28.671062 4 27.039062 4 L 21 4 z M 12 7 C 11.541 7 11.141297 7.3128125 11.029297 7.7578125 L 10.373047 10.380859 L 8.5546875 9.1679688 C 8.1996875 8.9319688 7.7315781 8.9450781 7.3925781 9.2050781 C 7.0535781 9.4650781 6.9167344 9.9114063 7.0527344 10.316406 L 7.6113281 12 L 6 12 C 5.596 12 5.2301719 12.243188 5.0761719 12.617188 C 4.9211719 12.991188 5.0069687 13.421031 5.2929688 13.707031 L 7.2929688 15.707031 C 7.6839688 16.098031 8.3160313 16.098031 8.7070312 15.707031 C 9.0980313 15.316031 9.0980312 14.683969 8.7070312 14.292969 L 8.4140625 14 L 9 14 C 9.321 14 9.6235 13.846938 9.8125 13.585938 C 10.0005 13.324938 10.051219 12.987594 9.9492188 12.683594 L 9.8691406 12.449219 L 10.445312 12.832031 C 10.716313 13.014031 11.057375 13.049594 11.359375 12.933594 C 11.663375 12.816594 11.89075 12.557188 11.96875 12.242188 L 12 12.123047 L 12.029297 12.242188 C 12.096297 12.513188 12.273578 12.741953 12.517578 12.876953 C 12.762578 13.008953 13.049406 13.037266 13.316406 12.947266 L 14.025391 12.712891 L 13.105469 14.552734 C 12.858469 15.046734 13.058734 15.647531 13.552734 15.894531 C 13.696734 15.965531 13.848047 16 13.998047 16 C 14.365047 16 14.718531 15.798266 14.894531 15.447266 L 16.894531 11.447266 C 17.075531 11.086266 17.020859 10.64975 16.755859 10.34375 C 16.490859 10.03875 16.066594 9.9197812 15.683594 10.050781 L 13.707031 10.708984 L 12.970703 7.7578125 C 12.858703 7.3128125 12.459 7 12 7 z M 23 7 C 22.447 7 22 7.447 22 8 L 22 10 C 22 10.553 22.447 11 23 11 C 23.553 11 24 10.553 24 10 L 24 8 C 24 7.447 23.553 7 23 7 z M 26 7 C 25.447 7 25 7.447 25 8 L 25 10 C 25 10.553 25.447 11 26 11 C 26.553 11 27 10.553 27 10 L 27 8 C 27 7.447 26.553 7 26 7 z M 20 15 C 19.447 15 19 15.447 19 16 L 19 18 C 19 18.553 19.447 19 20 19 C 20.553 19 21 18.553 21 18 L 21 16 C 21 15.447 20.553 15 20 15 z M 23 15 C 22.447 15 22 15.447 22 16 L 22 18 C 22 18.553 22.447 19 23 19 C 23.553 19 24 18.553 24 18 L 24 16 C 24 15.447 23.553 15 23 15 z M 26 15 C 25.447 15 25 15.447 25 16 L 25 18 C 25 18.553 25.447 19 26 19 C 26.553 19 27 18.553 27 18 L 27 16 C 27 15.447 26.553 15 26 15 z M 20 23 C 19.447 23 19 23.447 19 24 L 19 26 C 19 26.553 19.447 27 20 27 C 20.553 27 21 26.553 21 26 L 21 24 C 21 23.447 20.553 23 20 23 z M 23 23 C 22.447 23 22 23.447 22 24 L 22 26 C 22 26.553 22.447 27 23 27 C 23.553 27 24 26.553 24 26 L 24 24 C 24 23.447 23.553 23 23 23 z M 26 23 C 25.447 23 25 23.447 25 24 L 25 26 C 25 26.553 25.447 27 26 27 C 26.553 27 27 26.553 27 26 L 27 24 C 27 23.447 26.553 23 26 23 z"/>
</svg>