<svg fill="#94a4ad" xmlns="http://www.w3.org/2000/svg"  viewBox="0 0 32 32" width="500px" height="500px">
	<path d="M9.293 12.707C9.48 12.895 9.735 13 10 13h2c.552 0 1-.447 1-1v-2c0-.266-.105-.52-.293-.707L6.121 2.707c-.912-.912-2.501-.912-3.415 0C2.251 3.163 2 3.77 2 4.414 2 5.06 2.251 5.666 2.707 6.121L9.293 12.707zM4.121 4.121c.211-.211.375-.211.586 0L11 10.414V11h-.586L4.121 4.707C4.016 4.602 4 4.479 4 4.414 4 4.351 4.016 4.227 4.121 4.121zM29 2h-1.171C26.056 2 24.373 2.586 23 3.665 21.627 2.586 19.944 2 18.171 2H17c-.552 0-1 .447-1 1v9c0 .553.448 1 1 1h1.171c1.557 0 3.021.606 4.122 1.707C22.488 14.902 22.744 15 23 15s.512-.098.707-.293C24.808 13.606 26.272 13 27.829 13H29c.552 0 1-.447 1-1V3C30 2.447 29.552 2 29 2zM18 11V4h.171C19.595 4 20.938 4.513 22 5.441v6.564C20.843 11.354 19.536 11 18.171 11H18zM28 11h-.171c-1.364 0-2.671.354-3.829 1.005V5.441C25.062 4.513 26.405 4 27.829 4H28V11zM30 19c0-.553-.448-1-1-1h-2c-.552 0-1 .447-1 1v2c0 .553.448 1 1 1 .332 0 .611-.172.793-.421C27.929 22.037 28 22.514 28 23c0 2.757-2.243 5-5 5s-5-2.243-5-5 2.243-5 5-5c.552 0 1-.447 1-1s-.448-1-1-1c-3.86 0-7 3.141-7 7s3.14 7 7 7 7-3.141 7-7c0-1.07-.247-2.11-.709-3.059C29.699 19.815 30 19.449 30 19zM13 17h-2c0-1.103-.897-2-2-2H7c-1.103 0-2 .897-2 2H3c-.281 0-.549.118-.738.325-.189.208-.283.485-.258.766l1 11C3.051 29.605 3.483 30 4 30h8c.517 0 .949-.395.996-.909l1-11c.025-.28-.068-.558-.258-.766C13.549 17.118 13.281 17 13 17zM11.087 28H11v-6c0-.553-.448-1-1-1s-1 .447-1 1v6H7v-6c0-.553-.448-1-1-1s-1 .447-1 1v6H4.913l-.818-9h7.81L11.087 28z"/>
</svg>