<svg fill="#94a4ad" xmlns="http://www.w3.org/2000/svg"  viewBox="0 0 32 32" width="500px" height="500px">
	<path d="M 9 2 C 7.346 2 6 3.346 6 5 L 6 9 C 6 10.654 7.346 12 9 12 L 23 12 C 24.654 12 26 10.654 26 9 L 26 5 C 26 3.346 24.654 2 23 2 L 9 2 z M 9 4 L 23 4 C 23.551 4 24 4.448 24 5 L 24 9 C 24 9.552 23.551 10 23 10 L 9 10 C 8.449 10 8 9.552 8 9 L 8 5 C 8 4.448 8.449 4 9 4 z M 16 5 C 15.448 5 15 5.447 15 6 L 15 8 C 15 8.553 15.448 9 16 9 C 16.552 9 17 8.553 17 8 L 17 6 C 17 5.447 16.552 5 16 5 z M 19 5 C 18.448 5 18 5.447 18 6 L 18 8 C 18 8.553 18.448 9 19 9 C 19.552 9 20 8.553 20 8 L 20 6 C 20 5.447 19.552 5 19 5 z M 22 5 C 21.448 5 21 5.447 21 6 L 21 8 C 21 8.553 21.448 9 22 9 C 22.552 9 23 8.553 23 8 L 23 6 C 23 5.447 22.552 5 22 5 z M 13 13 C 12.74425 13 12.488469 13.097469 12.292969 13.292969 L 10.292969 15.292969 C 9.9019687 15.683969 9.9019687 16.316031 10.292969 16.707031 C 10.683969 17.098031 11.316031 17.098031 11.707031 16.707031 L 12 16.414062 L 12 23 C 12 23.552 11.551 24 11 24 L 11 22 C 11 21.734 10.895031 21.479969 10.707031 21.292969 L 8.7070312 19.292969 C 8.5200312 19.104969 8.265 19 8 19 L 3 19 C 2.448 19 2 19.447 2 20 L 2 29 C 2 29.553 2.448 30 3 30 L 10 30 C 10.552 30 11 29.553 11 29 L 11 26 C 12.654 26 14 24.654 14 23 L 14 16.414062 L 14.292969 16.707031 C 14.487969 16.902031 14.744 17 15 17 C 15.256 17 15.512031 16.902031 15.707031 16.707031 C 15.902031 16.512031 16 16.256 16 16 C 16 15.744 15.902031 15.487969 15.707031 15.292969 L 13.707031 13.292969 C 13.511531 13.097469 13.25575 13 13 13 z M 16 16 C 16 16.256 16.097969 16.512031 16.292969 16.707031 C 16.683969 17.098031 17.316031 17.098031 17.707031 16.707031 L 18 16.414062 L 18 23 C 18 24.654 19.346 26 21 26 L 21 29 C 21 29.553 21.448 30 22 30 L 29 30 C 29.552 30 30 29.553 30 29 L 30 22 C 30 21.734 29.895031 21.479969 29.707031 21.292969 L 27.707031 19.292969 C 27.520031 19.104969 27.265 19 27 19 L 22 19 C 21.448 19 21 19.447 21 20 L 21 24 C 20.449 24 20 23.552 20 23 L 20 16.414062 L 20.292969 16.707031 C 20.487969 16.902031 20.744 17 21 17 C 21.256 17 21.512031 16.902031 21.707031 16.707031 C 22.098031 16.316031 22.098031 15.683969 21.707031 15.292969 L 19.707031 13.292969 C 19.316031 12.901969 18.683969 12.901969 18.292969 13.292969 L 16.292969 15.292969 C 16.097969 15.487969 16 15.744 16 16 z M 4 21 L 7.5859375 21 L 9 22.414062 L 9 28 L 4 28 L 4 21 z M 23 21 L 26.585938 21 L 28 22.414062 L 28 28 L 23 28 L 23 21 z"/>
</svg>