<svg fill="#94a4ad"  viewBox="-382.359 -525.743 1751.6837 1792" xmlns="http://www.w3.org/2000/svg">
	<path d="M 555.641 1196.257 C 562.308 1207.59 569.308 1218.59 576.641 1229.257 C 583.308 1239.924 590.641 1250.59 598.641 1261.257 C 584.641 1262.59 570.641 1263.924 556.641 1265.257 C 542.641 1265.924 528.308 1266.257 513.641 1266.257 C 426.308 1266.257 343.641 1254.924 265.641 1232.257 C 187.641 1209.59 115.641 1178.257 49.641 1138.257 C -17.026 1097.59 -77.026 1049.59 -130.359 994.257 C -183.692 938.257 -229.026 877.257 -266.359 811.257 C -303.692 744.59 -332.359 673.924 -352.359 599.257 C -372.359 524.59 -382.359 448.257 -382.359 370.257 C -382.359 294.257 -372.359 219.257 -352.359 145.257 C -332.359 71.257 -303.692 1.257 -266.359 -64.743 C -229.692 -131.41 -184.692 -192.743 -131.359 -248.743 C -78.692 -305.41 -19.026 -354.076 47.641 -394.743 C 113.641 -436.076 185.974 -468.076 264.641 -490.743 C 342.641 -514.076 425.641 -525.743 513.641 -525.743 C 592.308 -525.743 669.308 -515.41 744.641 -494.743 C 819.308 -474.743 889.974 -445.743 956.641 -407.743 C 1023.308 -369.743 1084.308 -323.743 1139.641 -269.743 C 1194.974 -216.41 1242.641 -156.41 1282.641 -89.743 C 1322.641 -23.743 1347.72 20.32 1368.048 98.962 C 1379.2 142.106 1313.85 109.328 1305.641 114.257 L 942.641 114.257 C 946.224 119.103 881.692 128.393 878.641 114.257 L 148.641 114.257 C 142.641 154.257 137.974 195.257 134.641 237.257 C 131.308 279.257 129.641 323.59 129.641 370.257 C 129.641 416.257 131.308 460.257 134.641 502.257 C 137.974 544.257 142.641 585.59 148.641 626.257 L 159.641 690.257 C 173.641 764.257 192.974 832.59 217.641 895.257 C 242.308 957.924 270.308 1012.257 301.641 1058.257 C 332.974 1103.59 366.974 1138.924 403.641 1164.257 C 439.641 1189.59 476.308 1202.257 513.641 1202.257 C 520.974 1202.257 527.974 1201.59 534.641 1200.257 C 541.308 1198.924 548.308 1197.59 555.641 1196.257 M 891.641 -370.743 C 832.308 -401.41 770.308 -424.41 705.641 -439.743 C 757.641 -389.743 803.308 -322.743 842.641 -238.743 C 881.308 -154.743 911.308 -58.41 932.641 50.257 L 1281.641 50.257 C 1243.641 -41.076 1190.974 -123.076 1123.641 -195.743 C 1056.308 -268.41 978.974 -326.743 891.641 -370.743 M 407.641 -425.743 C 382.308 -409.743 357.308 -386.743 332.641 -356.743 C 307.308 -327.41 283.974 -292.41 262.641 -251.743 C 240.641 -211.743 220.974 -166.076 203.641 -114.743 C 185.641 -64.076 170.974 -9.076 159.641 50.257 L 867.641 50.257 C 852.308 -31.743 831.641 -104.41 805.641 -167.743 C 778.974 -231.743 749.641 -285.41 717.641 -328.743 C 685.641 -372.076 651.974 -405.076 616.641 -427.743 C 581.308 -450.41 546.974 -461.743 513.641 -461.743 C 477.641 -461.743 442.308 -449.743 407.641 -425.743 M -158.359 -119.743 C -197.692 -65.743 -229.692 -9.076 -254.359 50.257 L 94.641 50.257 C 115.308 -57.743 145.641 -153.743 185.641 -237.743 C 224.974 -322.41 270.308 -389.743 321.641 -439.743 C 223.641 -417.076 133.974 -377.743 52.641 -321.743 C -29.359 -265.743 -99.692 -198.41 -158.359 -119.743 M 84.641 626.257 C 77.308 585.59 72.308 543.924 69.641 501.257 C 66.974 458.59 65.641 414.924 65.641 370.257 C 65.641 326.257 66.974 282.924 69.641 240.257 C 72.308 196.924 77.308 154.924 84.641 114.257 L -278.359 114.257 C -291.692 155.59 -301.692 197.59 -308.359 240.257 C -315.026 282.257 -318.359 325.59 -318.359 370.257 C -318.359 415.59 -315.026 459.257 -308.359 501.257 C -301.692 543.257 -291.692 584.924 -278.359 626.257 M 135.641 1112.257 C 195.641 1142.924 257.641 1165.59 321.641 1180.257 C 270.308 1130.924 224.974 1063.924 185.641 979.257 C 145.641 894.59 115.308 798.257 94.641 690.257 L -254.359 690.257 C -216.359 783.59 -163.692 865.924 -96.359 937.257 C -29.026 1007.924 48.308 1066.257 135.641 1112.257 Z" style=""/>
	<path d="M 602.941 130.687 C 562.462 130.687 523.316 137.365 486.376 153.356 C 479.255 156.131 474.212 162.561 473.3 170.157 C 472.304 177.735 475.631 185.145 481.905 189.548 C 488.113 194.037 496.401 194.766 503.354 191.511 C 534.231 178.214 567.189 172.433 602.941 172.433 C 744.173 172.433 857.263 283.808 857.263 422.904 C 857.263 561.998 744.173 673.377 602.941 673.377 C 499.645 673.377 411.407 613.8 371.455 527.376 C 356.78 495.634 348.618 460.268 348.618 422.904 C 348.618 359.474 373.287 302.721 412.199 257.72 L 412.199 312.259 C 412.113 319.772 416.099 326.786 422.712 330.605 C 429.345 334.362 437.463 334.362 444.075 330.605 C 450.709 326.786 454.673 319.772 454.586 312.259 L 454.586 193.305 L 333.803 193.305 C 326.195 193.222 319.075 197.147 315.175 203.659 C 311.382 210.193 311.382 218.164 315.175 224.699 C 319.075 231.211 326.195 235.134 333.803 235.051 L 376.024 235.051 C 333.486 286.168 306.232 350.999 306.232 422.904 C 306.232 584.417 438.945 715.121 602.941 715.121 C 766.959 715.121 899.652 584.417 899.652 422.904 C 899.652 261.391 766.959 130.687 602.941 130.687 Z M 1111.587 130.687 C 1088.422 130.687 1069.199 149.597 1069.199 172.433 L 1069.199 214.177 L 867.203 214.177 C 877.97 227.308 887.57 241.334 896.175 255.925 L 1069.199 255.925 L 1069.199 297.669 C 1069.199 320.505 1088.422 339.414 1111.587 339.414 L 1153.973 339.414 C 1177.16 339.414 1196.359 320.505 1196.359 297.669 L 1196.359 255.925 L 1302.328 255.925 L 1302.328 402.03 L 940.978 402.03 C 941.381 408.961 942.039 415.809 942.039 422.904 C 942.039 430.001 941.381 436.847 940.978 443.777 L 1302.328 443.777 L 1302.328 1090.829 L 412.199 1090.829 L 412.199 698.817 C 397.067 688.615 383.058 677.133 369.811 664.818 L 369.811 1090.829 C 369.811 1115.039 387.616 1132.572 412.199 1132.572 L 1302.328 1132.572 C 1326.932 1132.572 1344.715 1115.039 1344.715 1090.829 L 1344.715 255.925 C 1344.715 231.712 1326.932 214.177 1302.328 214.177 L 1196.359 214.177 L 1196.359 172.433 C 1196.359 149.597 1177.16 130.687 1153.973 130.687 L 1111.587 130.687 Z M 1111.587 172.433 L 1153.973 172.433 L 1153.973 297.669 L 1111.587 297.669 L 1111.587 172.433 Z M 602.623 234.717 C 590.946 234.968 581.601 244.422 581.748 255.925 L 581.748 419.564 C 581.09 424.052 581.833 428.602 584.079 432.611 C 585.986 436.367 589.038 439.456 592.768 441.501 L 675.062 502.241 C 684.407 509.171 697.655 507.292 704.692 498.005 C 711.728 488.778 709.82 475.732 700.387 468.802 L 624.136 412.468 L 624.136 255.925 C 624.22 250.288 621.993 244.841 617.926 240.834 C 613.877 236.846 608.324 234.633 602.623 234.717 Z M 924.828 527.267 C 920.02 541.691 914.061 555.55 907.364 569.014 L 984.424 569.014 L 984.424 673.377 L 836.069 673.377 L 836.069 819.484 L 730.101 819.484 L 730.101 732.32 C 716.456 737.787 702.211 742.193 687.717 745.867 L 687.717 819.484 L 581.748 819.484 L 581.748 755.801 C 567.357 754.904 553.2 753.36 539.359 750.75 L 539.359 1007.338 L 1175.167 1007.338 L 1175.167 527.267 L 924.828 527.267 Z M 1026.812 569.014 L 1132.779 569.014 L 1132.779 673.377 L 1026.812 673.377 L 1026.812 569.014 Z M 878.459 715.121 L 984.424 715.121 L 984.424 819.484 L 878.459 819.484 L 878.459 715.121 Z M 1026.812 715.121 L 1132.779 715.121 L 1132.779 819.484 L 1026.812 819.484 L 1026.812 715.121 Z M 581.748 861.231 L 687.717 861.231 L 687.717 965.593 L 581.748 965.593 L 581.748 861.231 Z M 730.101 861.231 L 836.069 861.231 L 836.069 965.593 L 730.101 965.593 L 730.101 861.231 Z M 878.459 861.231 L 984.424 861.231 L 984.424 965.593 L 878.459 965.593 L 878.459 861.231 Z M 1026.812 861.231 L 1132.779 861.231 L 1132.779 965.593 L 1026.812 965.593 L 1026.812 861.231 Z" style="transform-origin: 825.473px 631.63px;" transform="matrix(0.999902009964, 0.013998001814, -0.013998001814, 0.999902009964, -6.70636e-7, 5.39707e-7)"/>
</svg>