<svg fill="#94a4ad" id="Layer_1" data-name="Layer 1" xmlns="http://www.w3.org/2000/svg" viewBox="0 0 16 16"><path d="M11.11,5.67a.35.35,0,0,0,.22,0h2.93A1.7,1.7,0,0,1,16,7.39c0,2.3,0,4.59,0,6.89A1.72,1.72,0,0,1,14.28,16h-8a1.7,1.7,0,0,1-1.68-1.64c0-.4,0-.81,0-1.21a.59.59,0,0,1,.49-.58.6.6,0,0,1,.66.39.62.62,0,0,1,0,.19v1a.59.59,0,0,0,.66.66h7.75a.59.59,0,0,0,.65-.66c0-.84,0-1.68,0-2.52,0-.16-.06-.2-.2-.2H8.08a.61.61,0,0,1-.61-.36A.57.57,0,0,1,8,10.26h6.59c.21,0,.21,0,.21-.22V7.53a.63.63,0,0,0-.18-.5.5.5,0,0,0-.35-.14H9.94a.35.35,0,0,0-.18.06,3.31,3.31,0,0,1-1.69.51.58.58,0,0,1-.65-.61,3.2,3.2,0,0,1,.95-2.31C9.72,3.16,11.08,1.81,12.45.45A1.36,1.36,0,0,1,13.87.11a1.27,1.27,0,0,1,.93,1.06,1.36,1.36,0,0,1-.42,1.28L11.29,5.54A1.4,1.4,0,0,1,11.11,5.67Zm-2.4.49a2.23,2.23,0,0,0,.71-.42l3.07-3.06h0a.08.08,0,0,0,0-.14l-.1-.09c-.14-.14-.14-.14-.28,0L9.25,5.31a1.54,1.54,0,0,0-.17.19A2,2,0,0,0,8.71,6.16Zm4.94-4.74a.22.22,0,0,0-.2-.22c-.08,0-.33.19-.33.26s.23.28.28.28S13.65,1.51,13.65,1.42Z"/><path d="M2,8h.81a.63.63,0,0,1,.5.2C3.9,8.75,4.46,9.31,5,9.86c.14.15.14.15.28,0L6.93,8.23A.75.75,0,0,1,7.53,8c.34,0,.68,0,1,0a.58.58,0,0,1,.61.56.59.59,0,0,1-.58.6H7.82a.31.31,0,0,0-.24.1L6.1,10.73c-.08.08-.09.13,0,.22l1.5,1.49a.24.24,0,0,0,.21.09h.74a.58.58,0,0,1,.61.56.58.58,0,0,1-.58.6H7.43A.65.65,0,0,1,7,13.48l-1.7-1.7c-.09-.1-.14-.09-.23,0-.55.56-1.11,1.11-1.67,1.67a.77.77,0,0,1-.6.25h-.7c0,.08.07.11.11.15a.59.59,0,0,1,0,.8.58.58,0,0,1-.81,0L.18,13.49a.55.55,0,0,1,0-.77l1.19-1.19a.58.58,0,0,1,.8,0,.6.6,0,0,1,0,.8l-.15.18c.29,0,.55.07.78-.18.44-.48.91-.93,1.38-1.39.11-.1.1-.16,0-.26-.47-.46-.94-.94-1.41-1.41a.39.39,0,0,0-.33-.14H2.08c0,.08.07.1.11.15a.58.58,0,0,1-.82.83L.18,9a.55.55,0,0,1,0-.77C.57,7.77,1,7.38,1.37,7a.57.57,0,0,1,.8,0,.6.6,0,0,1,0,.8A1.9,1.9,0,0,1,2,8Z"/><path d="M2.88,5.74A2.86,2.86,0,1,1,5.75,2.91,2.85,2.85,0,0,1,2.88,5.74Zm0-1.17a1.56,1.56,0,0,0,.55-.1c.1,0,.11-.07,0-.15l-2-2c-.08-.08-.11,0-.14,0A2,2,0,0,0,1.22,3,1.68,1.68,0,0,0,2.91,4.57ZM4.57,2.92A1.68,1.68,0,0,0,2.35,1.3c-.15.05-.16.06,0,.17L4,3.2c.1.1.21.2.3.3s.11,0,.14,0A1.47,1.47,0,0,0,4.57,2.92Z"/><path d="M4.57,7.9A4,4,0,0,1,4.63,7,1.7,1.7,0,0,1,6.29,5.72a.58.58,0,0,1,.6.55.61.61,0,0,1-.54.61c-.45.06-.61.24-.61.69v1a.57.57,0,0,1-.58.6.6.6,0,0,1-.59-.59Z"/></svg>