<svg fill="#94a4ad" id="Layer_1" data-name="Layer 1" xmlns="http://www.w3.org/2000/svg" viewBox="0 0 16 16"><path d="M7.91,15c-.44,0-1,0-1.52,0a3.73,3.73,0,0,1-1.18-.39.27.27,0,0,0-.39.06c-.34.36-.7.72-1.07,1.07a1,1,0,0,1-1,.25,1,1,0,0,1-.36-1.75c.34-.35.69-.7,1.05-1a.26.26,0,0,0,0-.35A4,4,0,0,1,3,10.91c0-1,0-2,0-3A2.84,2.84,0,0,1,4.77,5.25.32.32,0,0,0,5,4.92c0-.74,0-1.47,0-2.2a3,3,0,0,1,6-.25A8.68,8.68,0,0,1,11,4.08c0,.3,0,.59,0,.88,0,.09,0,.18.09.22a.22.22,0,0,0,.28,0c.28-.29.56-.57.85-.84a1,1,0,0,1,1-.26,1,1,0,0,1,.4,1.71c-.26.27-.52.54-.79.79a.3.3,0,0,0-.09.37A3,3,0,0,1,13,8.05c0,1,0,2,0,3A4,4,0,0,1,9.06,15ZM9.44,7.07,9.35,7H5.91a.88.88,0,0,0-.86.9c0,1,0,2.09,0,3.13,0,.1,0,.23.07.27s.15-.08.21-.14L9.27,7.26ZM11,8.51l-.24.21L6.79,12.66c-.06.06-.18.11-.14.2s.16.08.26.08c.56,0,1.13,0,1.69,0A2.07,2.07,0,0,0,11,10.59C10.92,9.92,11,9.25,11,8.51ZM9,3.83h0c0-.31,0-.62,0-.92A.94.94,0,0,0,8,2.06a.93.93,0,0,0-1,.85c0,.62,0,1.24,0,1.86,0,.16.07.22.23.21H8.73C8.89,5,9,4.91,9,4.76Z"/></svg>