<svg fill="#94a4ad" xmlns="http://www.w3.org/2000/svg"  viewBox="0 0 32 32" width="500px" height="500px">
	<path d="M29 14H19c-.553 0-1 .448-1 1v8 6c0 .552.447 1 1 1h10c.553 0 1-.448 1-1V15C30 14.448 29.553 14 29 14zM20 16h8v1h-8V16zM28 28h-8v-9h8V28zM15.707 20.293c-.391-.391-1.023-.391-1.414 0s-.391 1.023 0 1.414L14.586 22H9v-4h4c.553 0 1-.448 1-1V3c0-.552-.447-1-1-1H3C2.447 2 2 2.448 2 3v14c0 .552.447 1 1 1h4v5c0 .552.447 1 1 1h6.586l-.293.293c-.391.391-.391 1.023 0 1.414C14.488 25.902 14.744 26 15 26s.512-.098.707-.293l2-2C17.902 23.512 18 23.256 18 23s-.098-.512-.293-.707L15.707 20.293zM4 4h8v1H4V4zM4 16V7h8v9H4z"/>
</svg>