<svg fill="#94a4ad" xmlns="http://www.w3.org/2000/svg"  viewBox="0 0 32 32" width="500px" height="500px">
	<path d="M 3 2 C 2.447 2 2 2.448 2 3 L 2 5 C 2 5.552 2.447 6 3 6 C 3.43 6 3.7896406 5.7257031 3.9316406 5.3457031 L 7.1914062 8.6054688 C 6.4724063 9.1494687 6 10.01 6 11 L 6 21.039062 C 6 22.026062 6.459875 22.879063 7.171875 23.414062 L 3.9296875 26.654297 C 3.7886875 26.274297 3.43 26 3 26 C 2.447 26 2 26.448 2 27 L 2 29 C 2 29.552 2.447 30 3 30 L 5 30 C 5.553 30 6 29.552 6 29 C 6 28.57 5.72575 28.211312 5.34375 28.070312 L 9.4140625 24 L 22.585938 24 L 26.65625 28.070312 C 26.27425 28.211312 26 28.57 26 29 C 26 29.552 26.447 30 27 30 L 29 30 C 29.553 30 30 29.552 30 29 L 30 27 C 30 26.448 29.553 26 29 26 C 28.57 26 28.211312 26.274297 28.070312 26.654297 L 24.794922 23.378906 C 25.498922 22.837906 25.960938 21.996969 25.960938 21.042969 L 26 10.960938 C 26 9.9949375 25.527547 9.1425625 24.810547 8.6015625 L 28.070312 5.34375 C 28.211312 5.72475 28.57 6 29 6 C 29.553 6 30 5.552 30 5 L 30 3 C 30 2.448 29.553 2 29 2 L 27 2 C 26.447 2 26 2.448 26 3 C 26 3.43 26.273297 3.7886875 26.654297 3.9296875 L 22.585938 8 L 9.4140625 8 L 5.34375 3.9296875 C 5.72575 3.7886875 6 3.43 6 3 C 6 2.448 5.553 2 5 2 L 3 2 z M 9 10 L 23.039062 10 C 23.568062 10 24 10.431031 24 10.957031 L 23.984375 15 L 8 15 L 8 10.960938 C 8 10.431937 8.431 10 9 10 z M 16 11 C 15.447 11 15 11.448 15 12 L 15 13 C 15 13.552 15.447 14 16 14 C 16.553 14 17 13.552 17 13 L 17 12 C 17 11.448 16.553 11 16 11 z M 19 11 C 18.447 11 18 11.448 18 12 L 18 13 C 18 13.552 18.447 14 19 14 C 19.553 14 20 13.552 20 13 L 20 12 C 20 11.448 19.553 11 19 11 z M 22 11 C 21.447 11 21 11.448 21 12 L 21 13 C 21 13.552 21.447 14 22 14 C 22.553 14 23 13.552 23 13 L 23 12 C 23 11.448 22.553 11 22 11 z M 8 17 L 23.976562 17 L 23.960938 21.039062 C 23.960938 21.568062 23.529 22 23 22 L 8.921875 22 C 8.404875 22 8 21.577063 8 21.039062 L 8 17 z M 16 18 C 15.447 18 15 18.448 15 19 L 15 20 C 15 20.552 15.447 21 16 21 C 16.553 21 17 20.552 17 20 L 17 19 C 17 18.448 16.553 18 16 18 z M 19 18 C 18.447 18 18 18.448 18 19 L 18 20 C 18 20.552 18.447 21 19 21 C 19.553 21 20 20.552 20 20 L 20 19 C 20 18.448 19.553 18 19 18 z M 22 18 C 21.447 18 21 18.448 21 19 L 21 20 C 21 20.552 21.447 21 22 21 C 22.553 21 23 20.552 23 20 L 23 19 C 23 18.448 22.553 18 22 18 z"/>
</svg>