<svg fill="#94a4ad" xmlns="http://www.w3.org/2000/svg"  viewBox="0 0 32 32" width="500px" height="500px">
	<path d="M 11.001953 2.03125 C 10.126078 2.03125 9.2507812 2.3512344 8.6132812 2.9902344 L 7.9902344 3.6132812 C 7.3522344 4.2522812 7 5.1009062 7 6.0039062 C 7 6.9069063 7.3522344 7.7555312 7.9902344 8.3945312 L 8.0917969 8.4941406 L 2.7070312 13.878906 C 1.7660313 14.819906 1.7660312 16.351969 2.7070312 17.292969 C 3.1780313 17.763969 3.7960625 17.998047 4.4140625 17.998047 C 5.0320625 17.998047 5.6500938 17.763969 6.1210938 17.292969 L 11.505859 11.908203 L 11.605469 12.009766 C 12.244469 12.648766 13.093094 13 13.996094 13 C 14.899094 13 15.748719 12.647766 16.386719 12.009766 L 17.009766 11.386719 C 17.647766 10.747719 18 9.8990937 18 8.9960938 C 18 8.0930937 17.647766 7.2444688 17.009766 6.6054688 L 13.394531 2.9902344 C 12.755531 2.3512344 11.877828 2.03125 11.001953 2.03125 z M 11.003906 4 C 11.372906 4 11.719469 4.1442969 11.980469 4.4042969 L 15.595703 8.0195312 C 15.855703 8.2805313 16 8.6270938 16 8.9960938 C 16 9.3650937 15.855703 9.7116562 15.595703 9.9726562 L 14.972656 10.595703 C 14.451656 11.116703 13.541531 11.116703 13.019531 10.595703 L 9.4042969 6.9804688 C 9.1442969 6.7194687 9 6.3729063 9 6.0039062 C 9 5.6349062 9.1442969 5.2883438 9.4042969 5.0273438 L 10.027344 4.4042969 C 10.288344 4.1442969 10.634906 4 11.003906 4 z M 18 4 C 17.448 4 17 4.448 17 5 C 17 5.552 17.448 6 18 6 L 27 6 C 27.551 6 28 6.449 28 7 L 28 12 L 18 12 C 17.448 12 17 12.448 17 13 C 17 13.552 17.448 14 18 14 L 28 14 L 28 20 L 12 20 L 12 15 C 12 14.448 11.552 14 11 14 C 10.448 14 10 14.448 10 15 L 10 27 C 10 28.654 11.346 30 13 30 L 27 30 C 28.654 30 30 28.654 30 27 L 30 7 C 30 5.346 28.654 4 27 4 L 18 4 z M 20 7 C 19.448 7 19 7.448 19 8 L 19 10 C 19 10.552 19.448 11 20 11 C 20.552 11 21 10.552 21 10 L 21 8 C 21 7.448 20.552 7 20 7 z M 23 7 C 22.448 7 22 7.448 22 8 L 22 10 C 22 10.552 22.448 11 23 11 C 23.552 11 24 10.552 24 10 L 24 8 C 24 7.448 23.552 7 23 7 z M 26 7 C 25.448 7 25 7.448 25 8 L 25 10 C 25 10.552 25.448 11 26 11 C 26.552 11 27 10.552 27 10 L 27 8 C 27 7.448 26.552 7 26 7 z M 9.5058594 9.9082031 L 10.091797 10.494141 L 4.7070312 15.878906 C 4.5450313 16.039906 4.2830937 16.039906 4.1210938 15.878906 C 3.9590938 15.716906 3.9590938 15.454969 4.1210938 15.292969 L 9.5058594 9.9082031 z M 20 15 C 19.448 15 19 15.448 19 16 L 19 18 C 19 18.552 19.448 19 20 19 C 20.552 19 21 18.552 21 18 L 21 16 C 21 15.448 20.552 15 20 15 z M 23 15 C 22.448 15 22 15.448 22 16 L 22 18 C 22 18.552 22.448 19 23 19 C 23.552 19 24 18.552 24 18 L 24 16 C 24 15.448 23.552 15 23 15 z M 26 15 C 25.448 15 25 15.448 25 16 L 25 18 C 25 18.552 25.448 19 26 19 C 26.552 19 27 18.552 27 18 L 27 16 C 27 15.448 26.552 15 26 15 z M 12 22 L 28 22 L 28 27 C 28 27.551 27.551 28 27 28 L 13 28 C 12.449 28 12 27.551 12 27 L 12 22 z M 20 23 C 19.448 23 19 23.448 19 24 L 19 26 C 19 26.552 19.448 27 20 27 C 20.552 27 21 26.552 21 26 L 21 24 C 21 23.448 20.552 23 20 23 z M 23 23 C 22.448 23 22 23.448 22 24 L 22 26 C 22 26.552 22.448 27 23 27 C 23.552 27 24 26.552 24 26 L 24 24 C 24 23.448 23.552 23 23 23 z M 26 23 C 25.448 23 25 23.448 25 24 L 25 26 C 25 26.552 25.448 27 26 27 C 26.552 27 27 26.552 27 26 L 27 24 C 27 23.448 26.552 23 26 23 z"/>
</svg>