<svg fill="#94a4ad" xmlns="http://www.w3.org/2000/svg"  viewBox="0 0 32 32" width="500px" height="500px">
	<path d="M 7 2 C 5.346 2 4 3.346 4 5 L 4 7 C 4 7.059 4.0242031 7.1080625 4.0332031 7.1640625 C 2.8702031 7.5640625 2 8.695 2 10 L 2 12.027344 C 2 14.218344 3.7816563 16 5.9726562 16 L 8.0273438 16 C 10.217344 16 12 14.218344 12 12.027344 L 12 10 C 12 8.711 11.132844 7.5936875 9.9648438 7.1796875 C 9.9758437 7.1196875 10 7.064 10 7 L 10 5 C 10 3.346 8.654 2 7 2 z M 15 3 C 14.447 3 14 3.448 14 4 C 14 4.552 14.447 5 15 5 L 15 6.0117188 C 14.738 6.0117188 14.474063 6.1040625 14.289062 6.2890625 C 14.108063 6.4790625 14 6.74 14 7 C 14 7.26 14.108063 7.5209375 14.289062 7.7109375 C 14.478063 7.8909375 14.74 8 15 8 L 15 10.183594 C 13.839 10.597594 13 11.698 13 13 C 13 14.654 14.346 16 16 16 C 17.654 16 19 14.654 19 13 C 19 11.698 18.161 10.597594 17 10.183594 L 17 4 C 17 3.448 16.553 3 16 3 L 15 3 z M 7 4 C 7.552 4 8 4.449 8 5 L 8 7 L 6 7 L 6 5 C 6 4.449 6.448 4 7 4 z M 19 4 C 18.447 4 18 4.448 18 5 C 18 5.552 18.447 6 19 6 L 27 6 C 27.552 6 28 6.449 28 7 L 28 12 L 21 12 C 20.447 12 20 12.448 20 13 C 20 13.552 20.447 14 21 14 L 28 14 L 28 20 L 12 20 L 12 17 C 12 16.448 11.553 16 11 16 C 10.447 16 10 16.448 10 17 L 10 27 C 10 28.654 11.346 30 13 30 L 27 30 C 28.654 30 30 28.654 30 27 L 30 7 C 30 5.346 28.654 4 27 4 L 19 4 z M 20 7 C 19.447 7 19 7.448 19 8 L 19 10 C 19 10.552 19.447 11 20 11 C 20.553 11 21 10.552 21 10 L 21 8 C 21 7.448 20.553 7 20 7 z M 23 7 C 22.447 7 22 7.448 22 8 L 22 10 C 22 10.552 22.447 11 23 11 C 23.553 11 24 10.552 24 10 L 24 8 C 24 7.448 23.553 7 23 7 z M 26 7 C 25.447 7 25 7.448 25 8 L 25 10 C 25 10.552 25.447 11 26 11 C 26.553 11 27 10.552 27 10 L 27 8 C 27 7.448 26.553 7 26 7 z M 4.9316406 9 L 9 9 C 9.514 9 10 9.486 10 10 L 10 12.027344 C 10 13.115344 9.1153438 14 8.0273438 14 L 5.9726562 14 C 4.8846562 14 4 13.115344 4 12.027344 L 4 10 C 4 9.467 4.4356406 9 4.9316406 9 z M 7 10 C 6.447 10 6 10.448 6 11 L 6 12 C 6 12.552 6.447 13 7 13 C 7.553 13 8 12.552 8 12 L 8 11 C 8 10.448 7.553 10 7 10 z M 16 12 C 16.552 12 17 12.449 17 13 C 17 13.551 16.552 14 16 14 C 15.448 14 15 13.551 15 13 C 15 12.449 15.448 12 16 12 z M 20 15 C 19.447 15 19 15.448 19 16 L 19 18 C 19 18.552 19.447 19 20 19 C 20.553 19 21 18.552 21 18 L 21 16 C 21 15.448 20.553 15 20 15 z M 23 15 C 22.447 15 22 15.448 22 16 L 22 18 C 22 18.552 22.447 19 23 19 C 23.553 19 24 18.552 24 18 L 24 16 C 24 15.448 23.553 15 23 15 z M 26 15 C 25.447 15 25 15.448 25 16 L 25 18 C 25 18.552 25.447 19 26 19 C 26.553 19 27 18.552 27 18 L 27 16 C 27 15.448 26.553 15 26 15 z M 12 22 L 28 22 L 28 27 C 28 27.551 27.552 28 27 28 L 13 28 C 12.448 28 12 27.551 12 27 L 12 22 z M 20 23 C 19.447 23 19 23.448 19 24 L 19 26 C 19 26.552 19.447 27 20 27 C 20.553 27 21 26.552 21 26 L 21 24 C 21 23.448 20.553 23 20 23 z M 23 23 C 22.447 23 22 23.448 22 24 L 22 26 C 22 26.552 22.447 27 23 27 C 23.553 27 24 26.552 24 26 L 24 24 C 24 23.448 23.553 23 23 23 z M 26 23 C 25.447 23 25 23.448 25 24 L 25 26 C 25 26.552 25.447 27 26 27 C 26.553 27 27 26.552 27 26 L 27 24 C 27 23.448 26.553 23 26 23 z"/>
</svg>