<svg fill="#94a4ad" xmlns="http://www.w3.org/2000/svg"  viewBox="0 0 32 32" width="500px" height="500px">
	<path d="M 10.998047 2 C 10.742297 2 10.488469 2.0974687 10.292969 2.2929688 L 7.6914062 4.8925781 L 4.2421875 4.0292969 C 3.8621875 3.9352969 3.4657031 4.069 3.2207031 4.375 C 2.9767031 4.679 2.9314688 5.0982656 3.1054688 5.4472656 L 4.7109375 8.65625 L 2.4433594 10.167969 C 2.1663594 10.354969 2 10.666 2 11 C 2 11.334 2.1673125 11.646031 2.4453125 11.832031 L 4.7109375 13.341797 L 3.1054688 16.552734 C 2.9314688 16.901734 2.9767031 17.321 3.2207031 17.625 C 3.4657031 17.93 3.8621875 18.064703 4.2421875 17.970703 L 7.6933594 17.107422 L 10.294922 19.707031 C 10.488922 19.902031 10.744 20 11 20 C 11.256 20 11.512031 19.902031 11.707031 19.707031 L 14.306641 17.107422 L 17.757812 17.970703 C 18.137812 18.065703 18.53625 17.93 18.78125 17.625 C 19.02525 17.321 19.069531 16.901734 18.894531 16.552734 L 17.289062 13.341797 L 19.556641 11.832031 C 19.833641 11.646031 20 11.334 20 11 C 20 10.666 19.832687 10.353969 19.554688 10.167969 L 17.289062 8.6582031 L 18.894531 5.4472656 C 19.068531 5.0982656 19.023297 4.679 18.779297 4.375 C 18.534297 4.07 18.137812 3.9352969 17.757812 4.0292969 L 14.306641 4.8925781 L 11.705078 2.2929688 C 11.509578 2.0974687 11.253797 2 10.998047 2 z M 21 4 C 20.448 4 20 4.448 20 5 C 20 5.552 20.448 6 21 6 L 27.039062 6 C 27.568062 6 28 6.4319375 28 6.9609375 L 28 12 L 21 12 C 20.448 12 20 12.448 20 13 C 20 13.552 20.448 14 21 14 L 28 14 L 28 20 L 14 20 C 13.448 20 13 20.448 13 21 C 13 21.552 13.448 22 14 22 L 28 22 L 28 27.039062 C 28 27.569063 27.568062 28 27.039062 28 L 12.960938 28 C 12.430938 28 12 27.568062 12 27.039062 L 12 22 C 12 21.448 11.552 21 11 21 C 10.448 21 10 21.448 10 22 L 10 27.039062 C 10 28.671063 11.328938 30 12.960938 30 L 27.039062 30 C 28.671063 30 30 28.671062 30 27.039062 L 30 6.9609375 C 30 5.3289375 28.671062 4 27.039062 4 L 21 4 z M 11 4.4140625 L 13.292969 6.7070312 C 13.541969 6.9560312 13.900187 7.0557031 14.242188 6.9707031 L 16.134766 6.4960938 L 15.105469 8.5527344 C 14.879469 9.0037344 15.025312 9.5510781 15.445312 9.8300781 L 17.197266 11 L 15.445312 12.167969 C 15.026312 12.447969 14.880469 12.996266 15.105469 13.447266 L 16.132812 15.501953 L 14.242188 15.029297 C 13.903187 14.946297 13.541969 15.044969 13.292969 15.292969 L 11 17.585938 L 8.7070312 15.292969 C 8.5170312 15.102969 8.262 15 8 15 C 7.919 15 7.8388125 15.009297 7.7578125 15.029297 L 5.8652344 15.503906 L 6.8945312 13.447266 C 7.1205312 12.996266 6.9746875 12.448922 6.5546875 12.169922 L 4.8027344 11 L 6.5546875 9.8320312 C 6.9736875 9.5520313 7.1195312 9.0037344 6.8945312 8.5527344 L 5.8671875 6.4980469 L 7.7578125 6.9707031 C 8.0998125 7.0567031 8.4580313 6.9560312 8.7070312 6.7070312 L 11 4.4140625 z M 10 7 C 9.7 7 9.4165625 7.1332344 9.2265625 7.3652344 C 9.0365625 7.5972344 8.9595313 7.9013125 9.0195312 8.1953125 L 10.019531 13.195312 C 10.112531 13.663312 10.523 14 11 14 C 11.477 14 11.887469 13.663312 11.980469 13.195312 L 12.980469 8.1953125 C 13.039469 7.9013125 12.963437 7.5962344 12.773438 7.3652344 C 12.583438 7.1332344 12.3 7 12 7 L 10 7 z M 23 7 C 22.448 7 22 7.448 22 8 L 22 10 C 22 10.552 22.448 11 23 11 C 23.552 11 24 10.552 24 10 L 24 8 C 24 7.448 23.552 7 23 7 z M 26 7 C 25.448 7 25 7.448 25 8 L 25 10 C 25 10.552 25.448 11 26 11 C 26.552 11 27 10.552 27 10 L 27 8 C 27 7.448 26.552 7 26 7 z M 11.019531 14 C 10.467531 14 10.025391 14.448 10.025391 15 C 10.025391 15.552 10.477297 16 11.029297 16 C 11.582297 16 12.029297 15.552 12.029297 15 C 12.029297 14.448 11.582297 14 11.029297 14 L 11.019531 14 z M 23 15 C 22.448 15 22 15.448 22 16 L 22 18 C 22 18.552 22.448 19 23 19 C 23.552 19 24 18.552 24 18 L 24 16 C 24 15.448 23.552 15 23 15 z M 26 15 C 25.448 15 25 15.448 25 16 L 25 18 C 25 18.552 25.448 19 26 19 C 26.552 19 27 18.552 27 18 L 27 16 C 27 15.448 26.552 15 26 15 z M 20 23 C 19.448 23 19 23.448 19 24 L 19 26 C 19 26.552 19.448 27 20 27 C 20.552 27 21 26.552 21 26 L 21 24 C 21 23.448 20.552 23 20 23 z M 23 23 C 22.448 23 22 23.448 22 24 L 22 26 C 22 26.552 22.448 27 23 27 C 23.552 27 24 26.552 24 26 L 24 24 C 24 23.448 23.552 23 23 23 z M 26 23 C 25.448 23 25 23.448 25 24 L 25 26 C 25 26.552 25.448 27 26 27 C 26.552 27 27 26.552 27 26 L 27 24 C 27 23.448 26.552 23 26 23 z"/>
</svg>