<svg fill="#94a4ad" id="Layer_1" data-name="Layer 1" xmlns="http://www.w3.org/2000/svg" viewBox="0 0 16 16"><path d="M8,16a8,8,0,1,1,8-8A8,8,0,0,1,8,16ZM3.79,3.54H7a1,1,0,0,1,.75.3C8.37,4.42,9,5,9.52,5.58a.9.9,0,0,1,.28.68v.63c0,.08,0,.18.1.18h1.19l-.19-.2A.91.91,0,1,1,12.2,5.6l1.94,1.87A6.14,6.14,0,0,0,3.79,3.54Zm0,8.91A6.13,6.13,0,0,0,14.14,8.53L12.42,10.2c-.12.11-.23.23-.36.33a.89.89,0,0,1-1,0,.91.91,0,0,1-.36-1,1.91,1.91,0,0,1,.42-.64c-.37,0-.7,0-1,0s-.27.08-.27.28c0,.77,0,1.54,0,2.31a.89.89,0,0,1-1,1H3.77ZM4.5,8v2.39c0,.17,0,.25.23.25,1,0,2,0,3,0,.16,0,.22-.05.22-.22C8,10,8,9.56,8,9.14,8,9,7.92,8.9,7.74,8.9H6.19a.81.81,0,0,1-.7-.38.85.85,0,0,1-.08-.92.87.87,0,0,1,.83-.52H7.75c.09,0,.21,0,.22-.11a.55.55,0,0,0-.13-.5c-.34-.31-.65-.64-1-1a.43.43,0,0,0-.33-.14H4.76c-.2,0-.27.06-.27.27C4.5,6.42,4.5,7.2,4.5,8ZM2.61,11c.05-.25,0-5.71,0-5.91A6,6,0,0,0,2.61,11Z"/></svg>