<svg fill="#94a4ad" xmlns="http://www.w3.org/2000/svg"  viewBox="0 0 32 32" width="500px" height="500px">
	<path d="M 3 2 C 2.448 2 2 2.447 2 3 L 2 15 C 2 15.553 2.448 16 3 16 L 11 16 C 11.552 16 12 15.553 12 15 L 12 9 L 13 9 L 13 21 L 6 21 C 5.803 21 5.6093125 21.058969 5.4453125 21.167969 L 2.4453125 23.167969 C 2.1673125 23.353969 2 23.666 2 24 C 2 24.334 2.1673125 24.646031 2.4453125 24.832031 L 5.4453125 26.832031 C 5.6093125 26.941031 5.803 27 6 27 L 8.7636719 27 L 10.552734 27.894531 C 10.833734 28.035531 11.165266 28.035531 11.447266 27.894531 L 13 27.117188 L 14.552734 27.894531 C 14.833734 28.035531 15.165266 28.035531 15.447266 27.894531 L 17.236328 27 L 18.808594 27 C 19.872594 28.842 21.843047 30 23.998047 30 C 27.307047 30 29.998047 27.309 29.998047 24 C 29.998047 20.691 27.307047 18 23.998047 18 C 21.960047 18 20.096047 19.044844 18.998047 20.714844 L 18.998047 13 L 19.998047 13 L 19.998047 15 C 19.999047 15.553 20.447 16 21 16 L 29 16 C 29.553 16 30 15.553 30 15 L 30 3 C 30 2.447 29.553 2 29 2 L 21 2 C 20.447 2 20 2.447 20 3 L 20 11 L 18 11 C 17.447 11 17 11.447 17 12 L 17 21 L 15 21 L 15 8 C 15 7.447 14.552 7 14 7 L 12 7 L 12 3 C 12 2.447 11.552 2 11 2 L 3 2 z M 4 4 L 10 4 L 10 5 L 4 5 L 4 4 z M 22 4 L 28 4 L 28 5 L 22 5 L 22 4 z M 4 7 L 10 7 L 10 14 L 4 14 L 4 7 z M 22 7 L 28 7 L 28 14 L 22 14 L 22 7 z M 24 20 C 26.206 20 28 21.794 28 24 C 28 26.206 26.206 28 24 28 C 22.414 28 20.976891 27.058609 20.337891 25.599609 C 20.178891 25.235609 19.818875 25 19.421875 25 L 17 25 C 16.845 25 16.690734 25.036469 16.552734 25.105469 L 15 25.882812 L 13.447266 25.105469 C 13.166266 24.964469 12.834734 24.964469 12.552734 25.105469 L 11 25.882812 L 9.4472656 25.105469 C 9.3092656 25.035469 9.155 25 9 25 L 6.3027344 25 L 4.8027344 24 L 6.3027344 23 L 19.421875 23 C 19.818875 23 20.178891 22.764391 20.337891 22.400391 C 20.976891 20.941391 22.414 20 24 20 z M 24 21 C 22.346 21 21 22.346 21 24 C 21 25.654 22.346 27 24 27 C 25.654 27 27 25.654 27 24 C 27 22.346 25.654 21 24 21 z M 24 23 C 24.552 23 25 23.448 25 24 C 25 24.552 24.552 25 24 25 C 23.448 25 23 24.552 23 24 C 23 23.448 23.448 23 24 23 z"/>
</svg>