<svg fill="#94a4ad" height="56" viewBox="0 0 56 56" width="56" xmlns="http://www.w3.org/2000/svg"><path d="m27.9266 43.8337c.7134 0 1.217-.3987 1.217-1.1121 0-.3147-.0839-.4825-.3147-.9232-2.5598-3.9655-4.0076-8.5185-4.0076-13.4492 0-4.7629 1.3639-9.5257 4.0076-13.5123.2308-.4406.3147-.6084.3147-.9232 0-.6714-.5036-1.112-1.217-1.112-.6923 0-1.2589.3147-1.9303 1.2379-3.1472 4.0075-4.7418 9.0012-4.7418 14.2886s1.5316 10.1341 4.7418 14.2676c.6714.9231 1.238 1.2379 1.9303 1.2379zm21.4224 0c.6923 0 1.238-.3148 1.9092-1.2379 3.2103-4.1335 4.7418-8.9802 4.7418-14.2676s-1.5736-10.2811-4.7418-14.2886c-.6712-.9232-1.2169-1.2379-1.9092-1.2379-.7133 0-1.2169.4406-1.2169 1.112 0 .3148.0627.4826.2935.9232 2.665 3.9866 4.0285 8.7494 4.0285 13.5123 0 4.9307-1.4683 9.4837-4.0075 13.4492-.2518.4407-.3145.6085-.3145.9232 0 .6715.5036 1.1121 1.2169 1.1121zm-46.5165-.042c4.1124 0 6.0218-1.7625 7.0079-6.4833l2.3919-11.477h3.7977c1.217 0 1.9933-.6505 1.9933-1.6996 0-.9022-.5875-1.4687-1.5527-1.4687h-3.5459l.5875-2.8535c.5455-2.6647 1.3848-3.7557 3.7138-3.7557.3357 0 .6714-.021.9022-.042 1.0491-.1049 1.5107-.5875 1.5107-1.4897 0-1.175-.9862-1.6995-3.0004-1.6995-4.0075 0-6.0637 1.9933-6.9869 6.4833l-.7134 3.3571h-2.6017c-1.217 0-2.0143.6505-2.0143 1.6995 0 .9022.6085 1.4688 1.5737 1.4688h2.3709l-2.308 10.9734c-.5875 2.7486-1.4478 3.7557-3.6928 3.7557-.2937 0-.5665.021-.7763.042-.9652.1259-1.4897.6504-1.4897 1.5317 0 1.133.9652 1.6575 2.8325 1.6575zm29.4793-5.5182c.6924 0 1.154-.2308 1.6786-.9861l4.5949-6.5463h.0838l4.7001 6.6512c.5247.7344 1.0279.8812 1.5315.8812 1.0072 0 1.6789-.7134 1.6789-1.5736 0-.3987-.1259-.7763-.3988-1.133l-5.3713-7.3017 5.3713-7.1967c.2729-.3567.3988-.7344.3988-1.175 0-.9022-.7555-1.5316-1.5947-1.5316-.7554 0-1.1963.3777-1.5946.9861l-4.4273 6.4834h-.1048l-4.4482-6.5044c-.3986-.6085-.9022-.9651-1.6995-.9651-.9652 0-1.6996.7763-1.6996 1.6155 0 .6085.1679.9862.4617 1.3429l5.0985 6.84-5.4133 7.4905c-.3147.3987-.3776.7554-.3776 1.175 0 .8183.6924 1.4477 1.5316 1.4477z"/></svg>