<svg fill="#94a4ad" xmlns="http://www.w3.org/2000/svg" viewBox="0 0 16 16">
	<path d="M3.36,5.06a.52.52,0,0,1-.27,0L1.23,3.94a.57.57,0,0,1-.16-.75A.59.59,0,0,1,1.81,3L3.68,4.05a.58.58,0,0,1,.21.74A.74.74,0,0,1,3.36,5.06Z"/>
	<path d="M2.67,7.73H.53A.51.51,0,0,1,0,7.19a.5.5,0,0,1,.53-.53H2.67a.5.5,0,0,1,.53.53A.51.51,0,0,1,2.67,7.73Z"/>
	<path d="M1.55,11.46a.63.63,0,0,1-.48-.27.53.53,0,0,1,.21-.74L3.15,9.38a.55.55,0,0,1,.53,1L1.81,11.41A.58.58,0,0,1,1.55,11.46Z"/>
	<path d="M14.45,11.46a.48.48,0,0,1-.26-.05l-1.87-1.07a.55.55,0,0,1,.53-1l1.87,1.07a.58.58,0,0,1,.21.74A.55.55,0,0,1,14.45,11.46Z"/>
	<path d="M15.47,7.73H13.33a.51.51,0,0,1-.53-.54.5.5,0,0,1,.53-.53h2.14a.5.5,0,0,1,.53.53A.51.51,0,0,1,15.47,7.73Z"/>
	<path d="M12.64,5.06a.65.65,0,0,1-.48-.27.54.54,0,0,1,.21-.74L14.24,3a.54.54,0,0,1,.48,1L12.85,5A.33.33,0,0,1,12.64,5.06Z"/>
	<path d="M8,13.59A1.57,1.57,0,0,1,6.4,12a.5.5,0,0,1,.53-.53H9.07A.5.5,0,0,1,9.6,12,1.57,1.57,0,0,1,8,13.59Z"/>
	<path d="M10.51,3.35a3.7,3.7,0,0,0-2.94-.9A3.85,3.85,0,0,0,4.32,5.54a3.74,3.74,0,0,0,1,3.2,2,2,0,0,1,.54,1.49v.16a.51.51,0,0,0,.53.54H9.6a.51.51,0,0,0,.53-.54v-.26a2.18,2.18,0,0,1,.64-1.5,3.68,3.68,0,0,0,1-2.5A3.87,3.87,0,0,0,10.51,3.35ZM9.92,6.23a3.26,3.26,0,0,1-2.61.59L8.48,10a.54.54,0,0,1-.32.69c-.05,0-.11.06-.16.06a.51.51,0,0,1-.48-.38L5.92,6a.51.51,0,0,1,.8-.59,2.07,2.07,0,0,0,2.56,0,.57.57,0,0,1,.75.11A.58.58,0,0,1,9.92,6.23Z"/>
</svg>