<svg fill="#94a4ad" xmlns="http://www.w3.org/2000/svg"  viewBox="0 0 48 48" width="48px" height="48px"><path d="M 9.5 6 C 8.0833337 6 6.8935589 6.5672556 6.1269531 7.4296875 C 5.3603473 8.2921194 5 9.4027779 5 10.5 C 5 11.597222 5.3603473 12.707881 6.1269531 13.570312 C 6.8935589 14.432745 8.0833337 15 9.5 15 C 10.916666 15 12.106441 14.432744 12.873047 13.570312 C 13.639653 12.707882 14 11.597222 14 10.5 C 14 9.4027779 13.639653 8.2921194 12.873047 7.4296875 C 12.106441 6.5672556 10.916666 6 9.5 6 z M 19 7 A 1.0001 1.0001 0 1 0 19 9 L 42 9 A 1.0001 1.0001 0 1 0 42 7 L 19 7 z M 9.5 8 C 10.416666 8 10.976893 8.3077444 11.376953 8.7578125 C 11.777013 9.2078806 12 9.8472221 12 10.5 C 12 11.152778 11.777013 11.792119 11.376953 12.242188 C 10.976893 12.692255 10.416666 13 9.5 13 C 8.5833339 13 8.0231072 12.692256 7.6230469 12.242188 C 7.2229865 11.792118 7 11.152778 7 10.5 C 7 9.8472221 7.2229865 9.2078806 7.6230469 8.7578125 C 8.0231072 8.3077444 8.5833339 8 9.5 8 z M 19 12 A 1.0001 1.0001 0 1 0 19 14 L 34 14 A 1.0001 1.0001 0 1 0 34 12 L 19 12 z M 9.5 20 C 8.0833337 20 6.8935589 20.567256 6.1269531 21.429688 C 5.3603473 22.292119 5 23.402778 5 24.5 C 5 25.597222 5.3603473 26.707882 6.1269531 27.570312 C 6.8935589 28.432744 8.0833337 29 9.5 29 C 10.916666 29 12.106441 28.432744 12.873047 27.570312 C 13.639653 26.707881 14 25.597222 14 24.5 C 14 23.402778 13.639653 22.292118 12.873047 21.429688 C 12.106441 20.567256 10.916666 20 9.5 20 z M 19 21 A 1.0001 1.0001 0 1 0 19 23 L 42 23 A 1.0001 1.0001 0 1 0 42 21 L 19 21 z M 9.5 22 C 10.416666 22 10.976893 22.307744 11.376953 22.757812 C 11.777013 23.207881 12 23.847222 12 24.5 C 12 25.152778 11.777013 25.792118 11.376953 26.242188 C 10.976893 26.692256 10.416666 27 9.5 27 C 8.5833339 27 8.0231072 26.692256 7.6230469 26.242188 C 7.2229865 25.792119 7 25.152778 7 24.5 C 7 23.847222 7.2229865 23.207882 7.6230469 22.757812 C 8.0231072 22.307744 8.5833339 22 9.5 22 z M 19 26 A 1.0001 1.0001 0 1 0 19 28 L 34 28 A 1.0001 1.0001 0 1 0 34 26 L 19 26 z M 9.5 34 C 8.0833337 34 6.8935589 34.567256 6.1269531 35.429688 C 5.3603473 36.292119 5 37.402778 5 38.5 C 5 39.597222 5.3603473 40.707881 6.1269531 41.570312 C 6.8935589 42.432744 8.0833337 43 9.5 43 C 10.916666 43 12.106441 42.432744 12.873047 41.570312 C 13.639653 40.707881 14 39.597222 14 38.5 C 14 37.402778 13.639653 36.292119 12.873047 35.429688 C 12.106441 34.567256 10.916666 34 9.5 34 z M 19 35 A 1.0001 1.0001 0 1 0 19 37 L 42 37 A 1.0001 1.0001 0 1 0 42 35 L 19 35 z M 9.5 36 C 10.416666 36 10.976893 36.307744 11.376953 36.757812 C 11.777013 37.207881 12 37.847222 12 38.5 C 12 39.152778 11.777013 39.792119 11.376953 40.242188 C 10.976893 40.692256 10.416666 41 9.5 41 C 8.5833339 41 8.0231072 40.692256 7.6230469 40.242188 C 7.2229865 39.792119 7 39.152778 7 38.5 C 7 37.847222 7.2229865 37.207881 7.6230469 36.757812 C 8.0231072 36.307744 8.5833339 36 9.5 36 z M 19 40 A 1.0001 1.0001 0 1 0 19 42 L 34 42 A 1.0001 1.0001 0 1 0 34 40 L 19 40 z"/></svg>