<svg fill="#94a4ad" id="Layer_1" data-name="Layer 1" xmlns="http://www.w3.org/2000/svg" viewBox="0 0 16 16"><path d="M16,14c0,.37,0,.66,0,.95A1,1,0,0,1,15,16c-.59,0-1.18,0-1.77,0a1,1,0,0,1-1-.69.93.93,0,0,1,.37-1.07c.16-.12.08-.18,0-.27l-1.69-1.69c-.6-.6-1.21-1.2-1.8-1.81a.28.28,0,0,0-.42,0,5.41,5.41,0,0,1-3.15.88,5.65,5.65,0,1,1,5.69-6.64,5.59,5.59,0,0,1-.79,4,.32.32,0,0,0,.06.47l3.44,3.44c.14.14.21.17.35,0a.87.87,0,0,1,1-.34A.93.93,0,0,1,16,13,6.3,6.3,0,0,1,16,14ZM1.93,5.66a3.69,3.69,0,0,0,3.73,3.7,3.63,3.63,0,0,0,3.7-3.71A3.65,3.65,0,0,0,5.64,2,3.68,3.68,0,0,0,1.93,5.66Z"/><path d="M8.49,5.64a1,1,0,0,1-.91,1H6.83c-.16,0-.22.06-.22.22s0,.46,0,.7a1,1,0,1,1-1.92,0q0-.35,0-.69c0-.17-.06-.23-.22-.22h-.7a1,1,0,1,1,0-1.93h.72c.14,0,.2-.05.2-.19s0-.48,0-.73a1,1,0,1,1,1.92,0q0,.36,0,.72c0,.14.06.19.2.19h.74A1,1,0,0,1,8.49,5.64Z"/></svg>