<svg fill="#94a4ad" xmlns="http://www.w3.org/2000/svg"  viewBox="0 0 32 32" width="500px" height="500px">
	<path d="M 16 2 C 8.28 2 2 8.28 2 16 C 2 23.72 8.28 30 16 30 C 23.72 30 30 23.72 30 16 C 30 8.28 23.72 2 16 2 z M 16 4 C 19.161 4 22.030781 5.2362344 24.175781 7.2402344 C 23.814781 7.0862344 23.417 7 23 7 L 9 7 C 8.583 7 8.1852187 7.0862344 7.8242188 7.2402344 C 9.9692187 5.2362344 12.839 4 16 4 z M 9 9 L 23 9 C 23.552 9 24 9.449 24 10 L 24 15 L 8 15 L 8 10 C 8 9.449 8.448 9 9 9 z M 6.1210938 9.203125 C 6.0500937 9.459125 6 9.722 6 10 L 6 22 C 6 22.278 6.0500938 22.540875 6.1210938 22.796875 C 4.7860937 20.862875 4 18.522 4 16 C 4 13.478 4.7860938 11.137125 6.1210938 9.203125 z M 25.878906 9.203125 C 27.213906 11.137125 28 13.478 28 16 C 28 18.522 27.213906 20.862875 25.878906 22.796875 C 25.949906 22.540875 26 22.278 26 22 L 26 10 C 26 9.722 25.949906 9.459125 25.878906 9.203125 z M 16 10 C 15.447 10 15 10.448 15 11 L 15 13 C 15 13.552 15.447 14 16 14 C 16.553 14 17 13.552 17 13 L 17 11 C 17 10.448 16.553 10 16 10 z M 19 10 C 18.447 10 18 10.448 18 11 L 18 13 C 18 13.552 18.447 14 19 14 C 19.553 14 20 13.552 20 13 L 20 11 C 20 10.448 19.553 10 19 10 z M 22 10 C 21.447 10 21 10.448 21 11 L 21 13 C 21 13.552 21.447 14 22 14 C 22.553 14 23 13.552 23 13 L 23 11 C 23 10.448 22.553 10 22 10 z M 8 17 L 24 17 L 24 22 C 24 22.551 23.552 23 23 23 L 9 23 C 8.448 23 8 22.551 8 22 L 8 17 z M 16 18 C 15.447 18 15 18.448 15 19 L 15 21 C 15 21.552 15.447 22 16 22 C 16.553 22 17 21.552 17 21 L 17 19 C 17 18.448 16.553 18 16 18 z M 19 18 C 18.447 18 18 18.448 18 19 L 18 21 C 18 21.552 18.447 22 19 22 C 19.553 22 20 21.552 20 21 L 20 19 C 20 18.448 19.553 18 19 18 z M 22 18 C 21.447 18 21 18.448 21 19 L 21 21 C 21 21.552 21.447 22 22 22 C 22.553 22 23 21.552 23 21 L 23 19 C 23 18.448 22.553 18 22 18 z M 7.8242188 24.757812 C 8.1852188 24.912813 8.582 25 9 25 L 23 25 C 23.418 25 23.814781 24.913766 24.175781 24.759766 C 22.030781 26.763766 19.161 28 16 28 C 12.839 28 9.9692188 26.762812 7.8242188 24.757812 z"/>
</svg>