<svg fill="#94a4ad" xmlns="http://www.w3.org/2000/svg"  viewBox="0 0 32 32" width="500px" height="500px">
	<path d="M 9 2 C 5.141 2 2 5.14 2 9 C 2 12.86 5.141 16 9 16 C 12.859 16 16 12.86 16 9 C 16 5.14 12.859 2 9 2 z M 9 4 C 11.757 4 14 6.243 14 9 C 14 11.757 11.757 14 9 14 C 6.243 14 4 11.757 4 9 C 4 6.243 6.243 4 9 4 z M 17 4 C 16.447 4 16 4.448 16 5 C 16 5.552 16.447 6 17 6 L 27 6 C 27.552 6 28 6.449 28 7 L 28 12 L 17 12 C 16.447 12 16 12.448 16 13 C 16 13.552 16.447 14 17 14 L 28 14 L 28 20 L 12 20 L 12 18 C 12 17.448 11.553 17 11 17 C 10.447 17 10 17.448 10 18 L 10 27 C 10 28.654 11.346 30 13 30 L 27 30 C 28.654 30 30 28.654 30 27 L 30 7 C 30 5.346 28.654 4 27 4 L 17 4 z M 9 5 C 8.447 5 8 5.448 8 6 L 8 9 C 8 9.552 8.447 10 9 10 C 9.553 10 10 9.552 10 9 L 10 6 C 10 5.448 9.553 5 9 5 z M 20 7 C 19.447 7 19 7.448 19 8 L 19 10 C 19 10.552 19.447 11 20 11 C 20.553 11 21 10.552 21 10 L 21 8 C 21 7.448 20.553 7 20 7 z M 23 7 C 22.447 7 22 7.448 22 8 L 22 10 C 22 10.552 22.447 11 23 11 C 23.553 11 24 10.552 24 10 L 24 8 C 24 7.448 23.553 7 23 7 z M 26 7 C 25.447 7 25 7.448 25 8 L 25 10 C 25 10.552 25.447 11 26 11 C 26.553 11 27 10.552 27 10 L 27 8 C 27 7.448 26.553 7 26 7 z M 9.0195312 11 C 8.4675313 11 8.0253906 11.448 8.0253906 12 C 8.0253906 12.552 8.47825 13 9.03125 13 C 9.58325 13 10.03125 12.552 10.03125 12 C 10.03125 11.448 9.5812969 11 9.0292969 11 L 9.0195312 11 z M 20 15 C 19.447 15 19 15.448 19 16 L 19 18 C 19 18.552 19.447 19 20 19 C 20.553 19 21 18.552 21 18 L 21 16 C 21 15.448 20.553 15 20 15 z M 23 15 C 22.447 15 22 15.448 22 16 L 22 18 C 22 18.552 22.447 19 23 19 C 23.553 19 24 18.552 24 18 L 24 16 C 24 15.448 23.553 15 23 15 z M 26 15 C 25.447 15 25 15.448 25 16 L 25 18 C 25 18.552 25.447 19 26 19 C 26.553 19 27 18.552 27 18 L 27 16 C 27 15.448 26.553 15 26 15 z M 12 22 L 28 22 L 28 27 C 28 27.551 27.552 28 27 28 L 13 28 C 12.448 28 12 27.551 12 27 L 12 22 z M 20 23 C 19.447 23 19 23.448 19 24 L 19 26 C 19 26.552 19.447 27 20 27 C 20.553 27 21 26.552 21 26 L 21 24 C 21 23.448 20.553 23 20 23 z M 23 23 C 22.447 23 22 23.448 22 24 L 22 26 C 22 26.552 22.447 27 23 27 C 23.553 27 24 26.552 24 26 L 24 24 C 24 23.448 23.553 23 23 23 z M 26 23 C 25.447 23 25 23.448 25 24 L 25 26 C 25 26.552 25.447 27 26 27 C 26.553 27 27 26.552 27 26 L 27 24 C 27 23.448 26.553 23 26 23 z"/>
</svg>