<svg fill="#94a4ad" id="Layer_1" data-name="Layer 1" xmlns="http://www.w3.org/2000/svg" viewBox="0 0 16 16"><path d="M9.72,5.86c0,1.15,0,2.3,0,3.45a.31.31,0,0,0,.16.3,3.32,3.32,0,0,1,1.53,2.89,3.41,3.41,0,0,1-6.78.43A3.29,3.29,0,0,1,6.12,9.61a.34.34,0,0,0,.16-.3A2,2,0,0,0,6,8c-.07-.11-.12-.24-.18-.36a.64.64,0,0,1,0-.57c.13-.24.24-.49.37-.73a.22.22,0,0,0,0-.22l-.35-.69a.67.67,0,0,1,0-.66l0,0a3,3,0,0,0,.46-1.91c0-.84-.06-.65.39-1.33L7.46.32a.61.61,0,0,1,1.08,0l1,1.55a.88.88,0,0,1,.15.52Zm-1.18.32V2.59a.48.48,0,0,0-.08-.28c-.13-.17-.24-.36-.36-.54s-.1-.13-.19,0-.25.37-.37.55a.39.39,0,0,0-.08.25V3.84a1,1,0,0,1-.11.48c-.11.21-.21.43-.33.64a.26.26,0,0,0,0,.27c.12.22.22.45.34.67a.63.63,0,0,1,0,.65c-.12.24-.23.48-.36.71a.2.2,0,0,0,0,.2l.35.7a1,1,0,0,1,.1.44V9.76a.66.66,0,0,1-.43.67,2.24,2.24,0,1,0,3.2,1.82A2.14,2.14,0,0,0,9,10.45a.74.74,0,0,1-.45-.74Z"/><path d="M8,10.73a1.71,1.71,0,0,1,1.7,1.73A1.69,1.69,0,0,1,8,14.17a1.7,1.7,0,0,1-1.71-1.72A1.73,1.73,0,0,1,8,10.73ZM8,13a.54.54,0,1,0-.54-.54A.52.52,0,0,0,8,13Z"/></svg>