<svg xmlns="http://www.w3.org/2000/svg" xmlns:xlink="http://www.w3.org/1999/xlink" width="37.5pt" height="37.5pt" viewBox="0 0 37.5 37.5" version="1.1">
	<g id="surface16765">
		<path style="fill:none;stroke-width:2;stroke-linecap:butt;stroke-linejoin:miter;stroke:#94a4ad;stroke-opacity:1;stroke-miterlimit:10;" d="M 2.000633 6.999578 L 6.0019 6.999578 C 7.105152 6.999578 8.002534 7.896959 8.002534 9.000211 L 8.002534 43.000422 " transform="matrix(0.74,0,0,0.74,0,0)"/>
		<path style="fill:none;stroke-width:2;stroke-linecap:butt;stroke-linejoin:miter;stroke:#94a4ad;stroke-opacity:1;stroke-miterlimit:10;" d="M 8.002534 15.002111 L 8.002534 38.001478 L 13.001478 38.001478 L 13.001478 34.997889 C 13.001478 34.448902 13.450169 34.000211 13.999155 34.000211 L 24.002323 34.000211 C 24.551309 34.000211 25 34.448902 25 34.997889 L 25 38.001478 L 47.001689 38.001478 L 47.001689 15.002111 Z M 8.002534 15.002111 " transform="matrix(0.74,0,0,0.74,0,0)"/>
		<path style="fill:none;stroke-width:2;stroke-linecap:butt;stroke-linejoin:miter;stroke:#94a4ad;stroke-opacity:1;stroke-miterlimit:10;" d="M 8.002534 20.998733 L 13.001478 20.998733 L 13.001478 29.001267 L 8.002534 29.001267 Z M 8.002534 20.998733 " transform="matrix(0.74,0,0,0.74,0,0)"/>
		<path style="fill:none;stroke-width:2;stroke-linecap:butt;stroke-linejoin:miter;stroke:#94a4ad;stroke-opacity:1;stroke-miterlimit:10;" d="M 31.0019 20.998733 L 40.999789 20.998733 L 40.999789 31.0019 L 31.0019 31.0019 Z M 31.0019 20.998733 " transform="matrix(0.74,0,0,0.74,0,0)"/>
		<path style=" stroke:none;fill-rule:nonzero;fill:#94a4ad;fill-opacity:1;" d="M 22.941406 22.941406 L 24.421875 22.941406 L 24.421875 25.160156 L 22.941406 25.160156 Z M 22.941406 22.941406 "/>
		<path style=" stroke:none;fill-rule:nonzero;fill:#94a4ad;fill-opacity:1;" d="M 25.898438 22.941406 L 27.378906 22.941406 L 27.378906 25.160156 L 25.898438 25.160156 Z M 25.898438 22.941406 "/>
		<path style=" stroke:none;fill-rule:nonzero;fill:#94a4ad;fill-opacity:1;" d="M 28.859375 22.941406 L 30.339844 22.941406 L 30.339844 25.160156 L 28.859375 25.160156 Z M 28.859375 22.941406 "/>
		<path style=" stroke:none;fill-rule:nonzero;fill:#94a4ad;fill-opacity:1;" d="M 22.941406 13.320312 L 24.421875 13.320312 L 24.421875 15.539062 L 22.941406 15.539062 Z M 22.941406 13.320312 "/>
		<path style=" stroke:none;fill-rule:nonzero;fill:#94a4ad;fill-opacity:1;" d="M 25.898438 13.320312 L 27.378906 13.320312 L 27.378906 15.539062 L 25.898438 15.539062 Z M 25.898438 13.320312 "/>
		<path style=" stroke:none;fill-rule:nonzero;fill:#94a4ad;fill-opacity:1;" d="M 28.859375 13.320312 L 30.339844 13.320312 L 30.339844 15.539062 L 28.859375 15.539062 Z M 28.859375 13.320312 "/>
		<path style=" stroke:none;fill-rule:nonzero;fill:#94a4ad;fill-opacity:1;" d="M 32.558594 15.539062 L 32.558594 17.019531 L 30.339844 17.019531 L 30.339844 15.539062 Z M 32.558594 15.539062 "/>
		<path style=" stroke:none;fill-rule:nonzero;fill:#94a4ad;fill-opacity:1;" d="M 32.558594 18.5 L 32.558594 19.980469 L 30.339844 19.980469 L 30.339844 18.5 Z M 32.558594 18.5 "/>
		<path style=" stroke:none;fill-rule:nonzero;fill:#94a4ad;fill-opacity:1;" d="M 32.558594 21.460938 L 32.558594 22.941406 L 30.339844 22.941406 L 30.339844 21.460938 Z M 32.558594 21.460938 "/>
		<path style=" stroke:none;fill-rule:nonzero;fill:#94a4ad;fill-opacity:1;" d="M 22.941406 21.460938 L 22.941406 22.941406 L 20.71875 22.941406 L 20.71875 21.460938 Z M 22.941406 21.460938 "/>
		<path style=" stroke:none;fill-rule:nonzero;fill:#94a4ad;fill-opacity:1;" d="M 20.71875 18.5 L 22.199219 18.5 L 22.199219 19.980469 L 20.71875 19.980469 Z M 20.71875 18.5 "/>
		<path style=" stroke:none;fill-rule:nonzero;fill:#94a4ad;fill-opacity:1;" d="M 20.71875 15.539062 L 22.199219 15.539062 L 22.199219 17.019531 L 20.71875 17.019531 Z M 20.71875 15.539062 "/>
		<path style=" stroke:none;fill-rule:nonzero;fill:#94a4ad;fill-opacity:1;" d="M 17.019531 16.28125 C 17.019531 17.097656 16.355469 17.761719 15.539062 17.761719 C 14.722656 17.761719 14.058594 17.097656 14.058594 16.28125 C 14.058594 15.460938 14.722656 14.800781 15.539062 14.800781 C 16.355469 14.800781 17.019531 15.460938 17.019531 16.28125 Z M 17.019531 16.28125 "/>
	</g>
</svg>