<svg fill="#94a4ad" xmlns="http://www.w3.org/2000/svg"  viewBox="0 0 32 32" width="500px" height="500px">
	<path d="M 5.1210938 2.0292969 C 4.3123438 2.0291719 3.5031094 2.3245625 2.9121094 2.9140625 C 1.6961094 4.1310625 1.6961094 6.111125 2.9121094 7.328125 L 6.2929688 10.707031 C 6.4809688 10.895031 6.735 11 7 11 L 7.5859375 11 L 8.2929688 11.707031 C 8.4879687 11.902031 8.744 12 9 12 C 9.256 12 9.5120312 11.902031 9.7070312 11.707031 L 10.066406 11.347656 C 10.115406 11.478656 10.187969 11.602031 10.292969 11.707031 L 16.292969 17.707031 C 16.487969 17.902031 16.744 18 17 18 C 17.256 18 17.512031 17.902031 17.707031 17.707031 C 18.098031 17.316031 18.098031 16.683969 17.707031 16.292969 L 11.707031 10.292969 C 11.602031 10.187969 11.478656 10.115406 11.347656 10.066406 L 11.707031 9.7070312 C 12.098031 9.3160312 12.098031 8.6839688 11.707031 8.2929688 L 11 7.5859375 L 11 7 C 11 6.735 10.895031 6.4799688 10.707031 6.2929688 L 7.328125 2.9140625 C 6.739125 2.3250625 5.9298437 2.0294219 5.1210938 2.0292969 z M 13 4 C 12.448 4 12 4.448 12 5 C 12 5.552 12.448 6 13 6 L 27 6 C 27.551 6 28 6.449 28 7 L 28 12 L 17 12 C 16.448 12 16 12.448 16 13 C 16 13.552 16.448 14 17 14 L 28 14 L 28 20 L 12 20 L 12 15 C 12 14.448 11.552 14 11 14 C 10.448 14 10 14.448 10 15 L 10 27 C 10 28.654 11.346 30 13 30 L 27 30 C 28.654 30 30 28.654 30 27 L 30 7 C 30 5.346 28.654 4 27 4 L 13 4 z M 5.1210938 4.0117188 C 5.4115937 4.0119688 5.7020625 4.116625 5.9140625 4.328125 L 9 7.4140625 L 9 8 C 9 8.265 9.1049688 8.5200312 9.2929688 8.7070312 L 9.5859375 9 L 9 9.5859375 L 8.7070312 9.2929688 C 8.5200312 9.1049688 8.265 9 8 9 L 7.4140625 9 L 4.328125 5.9140625 C 3.891125 5.4770625 3.891125 4.765125 4.328125 4.328125 C 4.540125 4.115625 4.8305938 4.0114687 5.1210938 4.0117188 z M 20 7 C 19.448 7 19 7.448 19 8 L 19 10 C 19 10.552 19.448 11 20 11 C 20.552 11 21 10.552 21 10 L 21 8 C 21 7.448 20.552 7 20 7 z M 23 7 C 22.448 7 22 7.448 22 8 L 22 10 C 22 10.552 22.448 11 23 11 C 23.552 11 24 10.552 24 10 L 24 8 C 24 7.448 23.552 7 23 7 z M 26 7 C 25.448 7 25 7.448 25 8 L 25 10 C 25 10.552 25.448 11 26 11 C 26.552 11 27 10.552 27 10 L 27 8 C 27 7.448 26.552 7 26 7 z M 20 15 C 19.448 15 19 15.448 19 16 L 19 18 C 19 18.552 19.448 19 20 19 C 20.552 19 21 18.552 21 18 L 21 16 C 21 15.448 20.552 15 20 15 z M 23 15 C 22.448 15 22 15.448 22 16 L 22 18 C 22 18.552 22.448 19 23 19 C 23.552 19 24 18.552 24 18 L 24 16 C 24 15.448 23.552 15 23 15 z M 26 15 C 25.448 15 25 15.448 25 16 L 25 18 C 25 18.552 25.448 19 26 19 C 26.552 19 27 18.552 27 18 L 27 16 C 27 15.448 26.552 15 26 15 z M 12 22 L 28 22 L 28 27 C 28 27.551 27.551 28 27 28 L 13 28 C 12.449 28 12 27.551 12 27 L 12 22 z M 20 23 C 19.448 23 19 23.448 19 24 L 19 26 C 19 26.552 19.448 27 20 27 C 20.552 27 21 26.552 21 26 L 21 24 C 21 23.448 20.552 23 20 23 z M 23 23 C 22.448 23 22 23.448 22 24 L 22 26 C 22 26.552 22.448 27 23 27 C 23.552 27 24 26.552 24 26 L 24 24 C 24 23.448 23.552 23 23 23 z M 26 23 C 25.448 23 25 23.448 25 24 L 25 26 C 25 26.552 25.448 27 26 27 C 26.552 27 27 26.552 27 26 L 27 24 C 27 23.448 26.552 23 26 23 z"/>
</svg>