<svg fill="#94a4ad" xmlns="http://www.w3.org/2000/svg"  viewBox="0 0 32 32" width="500px" height="500px">
	<path d="M29,9H17c-0.552,0-1,0.447-1,1v5h-1V9c0-0.553-0.448-1-1-1h-2V3c0-0.553-0.448-1-1-1H3C2.448,2,2,2.447,2,3v11 c0,0.553,0.448,1,1,1h8c0.552,0,1-0.447,1-1v-4h1v12h-1v-4c0-0.553-0.448-1-1-1H3c-0.552,0-1,0.447-1,1v11c0,0.553,0.448,1,1,1h8 c0.552,0,1-0.447,1-1v-5h2c0.552,0,1-0.447,1-1v-6h1v5c0,0.553,0.448,1,1,1h12c0.552,0,1-0.447,1-1V10C30,9.447,29.552,9,29,9z M4,4h6v1H4V4z M10,13H4V7h6V13z M4,19h6v1H4V19z M10,28H4v-6h6V28z M28,11v1h-4v-1H28z M18,11h4v1h-4V11z M18,21v-7h4v7H18z M28,21h-4v-7h4V21z"/>
</svg>