<svg fill="#94a4ad" xmlns="http://www.w3.org/2000/svg"  viewBox="0 0 32 32" width="500px" height="500px">
	<path d="M 5 2 C 3.346 2 2 3.346 2 5 L 2 9 C 2 10.654 3.346 12 5 12 L 11 12 L 11 14 C 11 14.553 11.448 15 12 15 L 19 15 L 19 16.585938 L 18.707031 16.292969 C 18.316031 15.901969 17.683969 15.901969 17.292969 16.292969 C 16.901969 16.683969 16.901969 17.316031 17.292969 17.707031 L 19 19.414062 L 19 20 L 13 20 C 11.346 20 10 21.346 10 23 L 10 27 C 10 28.654 11.346 30 13 30 L 27 30 C 28.654 30 30 28.654 30 27 L 30 23 C 30 21.346 28.654 20 27 20 L 21 20 L 21 19.414062 L 22.707031 17.707031 C 23.098031 17.316031 23.098031 16.683969 22.707031 16.292969 C 22.316031 15.901969 21.683969 15.901969 21.292969 16.292969 L 21 16.585938 L 21 14 C 21 13.447 20.553 13 20 13 L 13 13 L 13 12 L 19 12 C 20.654 12 22 10.654 22 9 L 22 5 C 22 3.346 20.654 2 19 2 L 5 2 z M 5 4 L 19 4 C 19.552 4 20 4.448 20 5 L 20 9 C 20 9.552 19.552 10 19 10 L 5 10 C 4.449 10 4 9.552 4 9 L 4 5 C 4 4.448 4.449 4 5 4 z M 12 5 C 11.448 5 11 5.447 11 6 L 11 8 C 11 8.553 11.448 9 12 9 C 12.552 9 13 8.553 13 8 L 13 6 C 13 5.447 12.552 5 12 5 z M 15 5 C 14.448 5 14 5.447 14 6 L 14 8 C 14 8.553 14.448 9 15 9 C 15.552 9 16 8.553 16 8 L 16 6 C 16 5.447 15.552 5 15 5 z M 18 5 C 17.447 5 17 5.447 17 6 L 17 8 C 17 8.553 17.447 9 18 9 C 18.553 9 19 8.553 19 8 L 19 6 C 19 5.447 18.553 5 18 5 z M 13 22 L 27 22 C 27.552 22 28 22.448 28 23 L 28 27 C 28 27.552 27.552 28 27 28 L 13 28 C 12.449 28 12 27.552 12 27 L 12 23 C 12 22.448 12.449 22 13 22 z M 20 23 C 19.447 23 19 23.447 19 24 L 19 26 C 19 26.553 19.447 27 20 27 C 20.553 27 21 26.553 21 26 L 21 24 C 21 23.447 20.553 23 20 23 z M 23 23 C 22.447 23 22 23.447 22 24 L 22 26 C 22 26.553 22.447 27 23 27 C 23.553 27 24 26.553 24 26 L 24 24 C 24 23.447 23.553 23 23 23 z M 26 23 C 25.447 23 25 23.447 25 24 L 25 26 C 25 26.553 25.447 27 26 27 C 26.553 27 27 26.553 27 26 L 27 24 C 27 23.447 26.553 23 26 23 z"/>
</svg>