<svg fill="#94a4ad" xmlns="http://www.w3.org/2000/svg"  viewBox="0 0 32 32" width="500px" height="500px">
	<path d="M29,17h-4v-2c0-0.553-0.447-1-1-1h-5v-1h6c0.553,0,1-0.447,1-1V3c0-0.553-0.447-1-1-1H7C6.447,2,6,2.447,6,3v9 c0,0.553,0.447,1,1,1h6v1H8c-0.553,0-1,0.447-1,1v2H3c-0.553,0-1,0.447-1,1v11c0,0.553,0.447,1,1,1h10c0.553,0,1-0.447,1-1V18 c0-0.553-0.447-1-1-1H9v-1h5c0.553,0,1-0.447,1-1v-2h2v2c0,0.553,0.447,1,1,1h5v1h-4c-0.553,0-1,0.447-1,1v11c0,0.553,0.447,1,1,1 h10c0.553,0,1-0.447,1-1V18C30,17.447,29.553,17,29,17z M12,28H4v-6h8V28z M12,19v1H4v-1H12z M8,4h16v1H8V4z M8,11V7h16v4H8z M20,19h8v1h-8V19z M28,28h-8v-6h8V28z"/>
</svg>