<svg fill="#94a4ad" xmlns="http://www.w3.org/2000/svg"  viewBox="0 0 32 32" width="500px" height="500px">
	<path d="M 5 2 C 3.346 2 2 3.346 2 5 L 2 9 C 2 10.654 3.346 12 5 12 L 6 12 L 6 14.277344 C 5.405 14.624344 5 15.263 5 16 C 5 17.103 5.897 18 7 18 C 7.737 18 8.3756562 17.595 8.7226562 17 L 13 17 L 13 18 C 13 18.553 13.447 19 14 19 L 18 19 C 18.553 19 19 18.553 19 18 L 19 17 L 23.277344 17 C 23.452344 17.299 23.7 17.547656 24 17.722656 L 24 20 L 13 20 C 11.346 20 10 21.346 10 23 L 10 27 C 10 28.654 11.346 30 13 30 L 27 30 C 28.654 30 30 28.654 30 27 L 30 23 C 30 21.346 28.654 20 27 20 L 26 20 L 26 17.722656 C 26.595 17.375656 27 16.737 27 16 C 27 14.897 26.103 14 25 14 C 24.263 14 23.624344 14.405 23.277344 15 L 19 15 L 19 14 C 19 13.447 18.553 13 18 13 L 14 13 C 13.447 13 13 13.447 13 14 L 13 15 L 8.7226562 15 C 8.5476563 14.701 8.299 14.452344 8 14.277344 L 8 12 L 19 12 C 20.654 12 22 10.654 22 9 L 22 5 C 22 3.346 20.654 2 19 2 L 5 2 z M 5 4 L 19 4 C 19.552 4 20 4.448 20 5 L 20 9 C 20 9.552 19.552 10 19 10 L 5 10 C 4.448 10 4 9.552 4 9 L 4 5 C 4 4.448 4.448 4 5 4 z M 12 5 C 11.447 5 11 5.447 11 6 L 11 8 C 11 8.553 11.447 9 12 9 C 12.553 9 13 8.553 13 8 L 13 6 C 13 5.447 12.553 5 12 5 z M 15 5 C 14.447 5 14 5.447 14 6 L 14 8 C 14 8.553 14.447 9 15 9 C 15.553 9 16 8.553 16 8 L 16 6 C 16 5.447 15.553 5 15 5 z M 18 5 C 17.447 5 17 5.447 17 6 L 17 8 C 17 8.553 17.447 9 18 9 C 18.553 9 19 8.553 19 8 L 19 6 C 19 5.447 18.553 5 18 5 z M 15 15 L 17 15 L 17 17 L 15 17 L 15 15 z M 13 22 L 27 22 C 27.552 22 28 22.448 28 23 L 28 27 C 28 27.552 27.552 28 27 28 L 13 28 C 12.448 28 12 27.552 12 27 L 12 23 C 12 22.448 12.448 22 13 22 z M 20 23 C 19.447 23 19 23.447 19 24 L 19 26 C 19 26.553 19.447 27 20 27 C 20.553 27 21 26.553 21 26 L 21 24 C 21 23.447 20.553 23 20 23 z M 23 23 C 22.447 23 22 23.447 22 24 L 22 26 C 22 26.553 22.447 27 23 27 C 23.553 27 24 26.553 24 26 L 24 24 C 24 23.447 23.553 23 23 23 z M 26 23 C 25.447 23 25 23.447 25 24 L 25 26 C 25 26.553 25.447 27 26 27 C 26.553 27 27 26.553 27 26 L 27 24 C 27 23.447 26.553 23 26 23 z"/>
</svg>