<svg fill="#94a4ad" xmlns="http://www.w3.org/2000/svg"  viewBox="0 0 32 32" width="500px" height="500px">
	<path d="M 6 2 C 5.735 2 5.4799688 2.1049688 5.2929688 2.2929688 L 2.2949219 5.2929688 C 2.2019219 5.3849688 2.1271719 5.4941875 2.0761719 5.6171875 C 2.0261719 5.7391875 2 5.87 2 6 L 2 18 C 2 18.553 2.448 19 3 19 L 15 19 C 15.13 19 15.260812 18.973828 15.382812 18.923828 C 15.505812 18.872828 15.614031 18.798078 15.707031 18.705078 L 18.707031 15.707031 C 18.895031 15.520031 19 15.266 19 15 L 19 3 C 19 2.987 18.992187 2.9758906 18.992188 2.9628906 C 18.988187 2.8458906 18.970828 2.7291875 18.923828 2.6171875 C 18.923828 2.6161875 18.922875 2.6142813 18.921875 2.6132812 C 18.917875 2.6042813 18.91025 2.5988438 18.90625 2.5898438 C 18.86125 2.4898437 18.800516 2.4022187 18.728516 2.3242188 C 18.704516 2.2982188 18.678344 2.2788594 18.652344 2.2558594 C 18.588344 2.1998594 18.520312 2.1532344 18.445312 2.1152344 C 18.413312 2.0992344 18.383609 2.0833125 18.349609 2.0703125 C 18.238609 2.0293125 18.123 2 18 2 L 6 2 z M 6.4140625 4 L 9.5859375 4 L 8.5859375 5 L 5.4140625 5 L 6.4140625 4 z M 12.414062 4 L 15.585938 4 L 14.585938 5 L 11.414062 5 L 12.414062 4 z M 21 4 C 20.448 4 20 4.447 20 5 C 20 5.553 20.448 6 21 6 L 27.039062 6 C 27.568062 6 28 6.4319375 28 6.9609375 L 28 12 L 21 12 C 20.448 12 20 12.447 20 13 C 20 13.553 20.448 14 21 14 L 28 14 L 28 20 L 11 20 C 10.448 20 10 20.447 10 21 L 10 27.039062 C 10 28.671063 11.328938 30 12.960938 30 L 27.039062 30 C 28.671063 30 30 28.671062 30 27.039062 L 30 6.9609375 C 30 5.3289375 28.671062 4 27.039062 4 L 21 4 z M 17 5.4140625 L 17 8.5859375 L 16 9.5859375 L 16 6.4140625 L 17 5.4140625 z M 4 7 L 8 7 L 8 11 L 4 11 L 4 7 z M 10 7 L 14 7 L 14 11 L 10 11 L 10 7 z M 23 7 C 22.448 7 22 7.447 22 8 L 22 10 C 22 10.553 22.448 11 23 11 C 23.552 11 24 10.553 24 10 L 24 8 C 24 7.447 23.552 7 23 7 z M 26 7 C 25.448 7 25 7.447 25 8 L 25 10 C 25 10.553 25.448 11 26 11 C 26.552 11 27 10.553 27 10 L 27 8 C 27 7.447 26.552 7 26 7 z M 17 11.414062 L 17 14.585938 L 16 15.585938 L 16 12.414062 L 17 11.414062 z M 4 13 L 8 13 L 8 17 L 4 17 L 4 13 z M 10 13 L 14 13 L 14 17 L 10 17 L 10 13 z M 23 15 C 22.448 15 22 15.447 22 16 L 22 18 C 22 18.553 22.448 19 23 19 C 23.552 19 24 18.553 24 18 L 24 16 C 24 15.447 23.552 15 23 15 z M 26 15 C 25.448 15 25 15.447 25 16 L 25 18 C 25 18.553 25.448 19 26 19 C 26.552 19 27 18.553 27 18 L 27 16 C 27 15.447 26.552 15 26 15 z M 12 22 L 28 22 L 28 27.039062 C 28 27.568062 27.568062 28 27.039062 28 L 12.960938 28 C 12.430938 28 12 27.568062 12 27.039062 L 12 22 z M 20 23 C 19.448 23 19 23.447 19 24 L 19 26 C 19 26.553 19.448 27 20 27 C 20.552 27 21 26.553 21 26 L 21 24 C 21 23.447 20.552 23 20 23 z M 23 23 C 22.448 23 22 23.447 22 24 L 22 26 C 22 26.553 22.448 27 23 27 C 23.552 27 24 26.553 24 26 L 24 24 C 24 23.447 23.552 23 23 23 z M 26 23 C 25.448 23 25 23.447 25 24 L 25 26 C 25 26.553 25.448 27 26 27 C 26.552 27 27 26.553 27 26 L 27 24 C 27 23.447 26.552 23 26 23 z"/>
</svg>