<svg fill="#94a4ad" xmlns="http://www.w3.org/2000/svg"  viewBox="0 0 32 32" width="500px" height="500px">
	<path d="M 17 2 C 16.74425 2 16.488469 2.0974688 16.292969 2.2929688 C 15.901969 2.6839688 15.901969 3.3160313 16.292969 3.7070312 L 16.585938 4 L 12.021484 4 C 8.1494844 4 5 7.1494844 5 11.021484 L 5 16 C 5 16.553 5.448 17 6 17 C 6.552 17 7 16.553 7 16 L 7 11.021484 C 7 8.2524844 9.2524844 6 12.021484 6 L 16.585938 6 L 16.292969 6.2929688 C 15.901969 6.6839688 15.901969 7.3160312 16.292969 7.7070312 C 16.487969 7.9020313 16.744 8 17 8 C 17.256 8 17.512031 7.9020313 17.707031 7.7070312 L 19.707031 5.7070312 C 20.098031 5.3160312 20.098031 4.6839687 19.707031 4.2929688 L 17.707031 2.2929688 C 17.511531 2.0974687 17.25575 2 17 2 z M 22 4 C 21.448 4 21 4.447 21 5 C 21 5.553 21.448 6 22 6 L 27.039062 6 C 27.568062 6 28 6.4319375 28 6.9609375 L 28 12 L 19 12 C 18.448 12 18 12.447 18 13 C 18 13.553 18.448 14 19 14 L 28 14 L 28 20 L 16 20 C 15.448 20 15 20.447 15 21 C 15 21.553 15.448 22 16 22 L 28 22 L 28 27.039062 C 28 27.568062 27.568062 28 27.039062 28 L 12.960938 28 C 12.430938 28 12 27.568062 12 27.039062 L 12 24 C 12 23.447 11.552 23 11 23 C 10.448 23 10 23.447 10 24 L 10 27.039062 C 10 28.671063 11.328938 30 12.960938 30 L 27.039062 30 C 28.671063 30 30 28.671062 30 27.039062 L 30 6.9609375 C 30 5.3289375 28.671062 4 27.039062 4 L 22 4 z M 11 7 C 10.448 7 10 7.447 10 8 L 10 8.1835938 C 8.839 8.5975938 8 9.698 8 11 C 8 12.654 9.346 14 11 14 C 11.551 14 12 14.448 12 15 C 12 15.552 11.551 16 11 16 C 10.449 16 10 15.552 10 15 C 10 14.447 9.552 14 9 14 C 8.448 14 8 14.447 8 15 C 8 16.302 8.839 17.402406 10 17.816406 L 10 18 C 10 18.553 10.448 19 11 19 C 11.552 19 12 18.553 12 18 L 12 17.816406 C 13.161 17.402406 14 16.302 14 15 C 14 13.346 12.654 12 11 12 C 10.449 12 10 11.552 10 11 C 10 10.448 10.449 10 11 10 C 11.551 10 12 10.448 12 11 C 12 11.553 12.448 12 13 12 C 13.552 12 14 11.553 14 11 C 14 9.698 13.161 8.5975937 12 8.1835938 L 12 8 C 12 7.447 11.552 7 11 7 z M 20 7 C 19.448 7 19 7.447 19 8 L 19 10 C 19 10.553 19.448 11 20 11 C 20.552 11 21 10.553 21 10 L 21 8 C 21 7.447 20.552 7 20 7 z M 23 7 C 22.448 7 22 7.447 22 8 L 22 10 C 22 10.553 22.448 11 23 11 C 23.552 11 24 10.553 24 10 L 24 8 C 24 7.447 23.552 7 23 7 z M 26 7 C 25.448 7 25 7.447 25 8 L 25 10 C 25 10.553 25.448 11 26 11 C 26.552 11 27 10.553 27 10 L 27 8 C 27 7.447 26.552 7 26 7 z M 16 9 C 15.448 9 15 9.447 15 10 L 15 14.978516 C 15 17.747516 12.747516 20 9.9785156 20 L 5.4140625 20 L 5.7070312 19.707031 C 6.0980313 19.316031 6.0980313 18.683969 5.7070312 18.292969 C 5.3160312 17.901969 4.6839687 17.901969 4.2929688 18.292969 L 2.2929688 20.292969 C 1.9019687 20.683969 1.9019688 21.316031 2.2929688 21.707031 L 4.2929688 23.707031 C 4.4879688 23.902031 4.744 24 5 24 C 5.256 24 5.5120312 23.902031 5.7070312 23.707031 C 6.0980313 23.316031 6.0980313 22.683969 5.7070312 22.292969 L 5.4140625 22 L 9.9785156 22 C 13.850516 22 17 18.850516 17 14.978516 L 17 10 C 17 9.447 16.552 9 16 9 z M 20 15 C 19.448 15 19 15.447 19 16 L 19 18 C 19 18.553 19.448 19 20 19 C 20.552 19 21 18.553 21 18 L 21 16 C 21 15.447 20.552 15 20 15 z M 23 15 C 22.448 15 22 15.447 22 16 L 22 18 C 22 18.553 22.448 19 23 19 C 23.552 19 24 18.553 24 18 L 24 16 C 24 15.447 23.552 15 23 15 z M 26 15 C 25.448 15 25 15.447 25 16 L 25 18 C 25 18.553 25.448 19 26 19 C 26.552 19 27 18.553 27 18 L 27 16 C 27 15.447 26.552 15 26 15 z M 20 23 C 19.448 23 19 23.447 19 24 L 19 26 C 19 26.553 19.448 27 20 27 C 20.552 27 21 26.553 21 26 L 21 24 C 21 23.447 20.552 23 20 23 z M 23 23 C 22.448 23 22 23.447 22 24 L 22 26 C 22 26.553 22.448 27 23 27 C 23.552 27 24 26.553 24 26 L 24 24 C 24 23.447 23.552 23 23 23 z M 26 23 C 25.448 23 25 23.447 25 24 L 25 26 C 25 26.553 25.448 27 26 27 C 26.552 27 27 26.553 27 26 L 27 24 C 27 23.447 26.552 23 26 23 z"/>
</svg>