<svg fill="#94a4ad" xmlns="http://www.w3.org/2000/svg"  viewBox="0 0 32 32" width="500px" height="500px">
	<path d="M 14 2 C 7.383 2 2 7.383 2 14 C 2 14.553 2.447 15 3 15 L 11 15 C 11.062 15 11.115828 14.975844 11.173828 14.964844 C 11.578828 16.143844 12.685 17 14 17 C 15.315 17 16.421172 16.143844 16.826172 14.964844 C 16.884172 14.975844 16.938 15 17 15 L 25 15 C 25.553 15 26 14.553 26 14 L 27 14 C 27.552 14 28 14.448 28 15 L 28 20 L 12 20 L 12 18 C 12 17.447 11.553 17 11 17 C 10.447 17 10 17.447 10 18 L 10 27 C 10 28.654 11.346 30 13 30 L 27 30 C 28.654 30 30 28.654 30 27 L 30 15 C 30 13.346 28.654 12 27 12 L 25.818359 12 C 24.862359 6.334 19.934 2 14 2 z M 13 4.0527344 L 13 5 C 13 5.553 13.447 6 14 6 C 14.553 6 15 5.553 15 5 L 15 4.0527344 C 19.717 4.5237344 23.479219 8.284 23.949219 13 L 17 13 C 16.938 13 16.884172 13.024156 16.826172 13.035156 C 16.788172 12.925156 16.749219 12.816891 16.699219 12.712891 C 16.702219 12.709891 16.704031 12.710031 16.707031 12.707031 L 20.707031 8.7070312 C 21.098031 8.3160312 21.098031 7.6839687 20.707031 7.2929688 L 19.707031 6.2929688 C 19.316031 5.9019687 18.685922 5.9019688 18.294922 6.2929688 C 17.903922 6.6839688 17.903922 7.3160313 18.294922 7.7070312 L 18.585938 8 L 18 8.5859375 L 17.707031 8.2929688 C 17.316031 7.9019687 16.683969 7.9019688 16.292969 8.2929688 C 15.901969 8.6839688 15.901969 9.3160312 16.292969 9.7070312 L 16.585938 10 L 15.292969 11.292969 C 15.289969 11.295969 15.290109 11.299734 15.287109 11.302734 C 14.896109 11.114734 14.463 11 14 11 C 12.685 11 11.578828 11.856156 11.173828 13.035156 C 11.115828 13.024156 11.062 13 11 13 L 4.0507812 13 C 4.2507813 10.989 5.0554844 9.1587813 6.2714844 7.6757812 C 6.2804844 7.6857812 6.2839688 7.6970312 6.2929688 7.7070312 L 7.2929688 8.7070312 C 7.4879688 8.9020312 7.744 9 8 9 C 8.256 9 8.5120312 8.9020312 8.7070312 8.7070312 C 9.0980313 8.3160312 9.0980313 7.6839687 8.7070312 7.2929688 L 7.7070312 6.2929688 C 7.6980312 6.2839687 7.6847813 6.2804844 7.6757812 6.2714844 C 9.1577812 5.0554844 10.989 4.2527344 13 4.0527344 z M 14 13 C 14.552 13 15 13.448 15 14 C 15 14.552 14.552 15 14 15 C 13.448 15 13 14.552 13 14 C 13 13.448 13.448 13 14 13 z M 20 16 C 19.447 16 19 16.447 19 17 L 19 18 C 19 18.553 19.447 19 20 19 C 20.553 19 21 18.553 21 18 L 21 17 C 21 16.447 20.553 16 20 16 z M 23 16 C 22.447 16 22 16.447 22 17 L 22 18 C 22 18.553 22.447 19 23 19 C 23.553 19 24 18.553 24 18 L 24 17 C 24 16.447 23.553 16 23 16 z M 26 16 C 25.447 16 25 16.447 25 17 L 25 18 C 25 18.553 25.447 19 26 19 C 26.553 19 27 18.553 27 18 L 27 17 C 27 16.447 26.553 16 26 16 z M 12 22 L 28 22 L 28 27 C 28 27.552 27.552 28 27 28 L 13 28 C 12.448 28 12 27.552 12 27 L 12 22 z M 20 24 C 19.447 24 19 24.447 19 25 L 19 26 C 19 26.553 19.447 27 20 27 C 20.553 27 21 26.553 21 26 L 21 25 C 21 24.447 20.553 24 20 24 z M 23 24 C 22.447 24 22 24.447 22 25 L 22 26 C 22 26.553 22.447 27 23 27 C 23.553 27 24 26.553 24 26 L 24 25 C 24 24.447 23.553 24 23 24 z M 26 24 C 25.447 24 25 24.447 25 25 L 25 26 C 25 26.553 25.447 27 26 27 C 26.553 27 27 26.553 27 26 L 27 25 C 27 24.447 26.553 24 26 24 z"/>
</svg>