<svg fill="#94a4ad" xmlns="http://www.w3.org/2000/svg" xmlns:xlink="http://www.w3.org/1999/xlink" viewBox="0,0,256,256" width="66px" height="66px">
	<g stroke="none" stroke-width="1" stroke-linecap="butt" stroke-linejoin="miter" stroke-miterlimit="10" stroke-dasharray="" stroke-dashoffset="0" font-family="none" font-weight="none" font-size="none" text-anchor="none" style="mix-blend-mode: normal">
		<g transform="translate(256,0) rotate(90) scale(3.76471,3.76471)">
			<path d="M12.85333,8.09003v1.53998c-1.13965,-0.51001 -2.37988,-0.77002 -3.6499,-0.77002c-1.2998,0 -2.5498,0.27002 -3.66992,0.76001v-1.52997c0,-2.03003 1.62988,-3.67004 3.65967,-3.67004c1.94911,0 3.66016,1.56305 3.66016,3.67004zM12.85333,26.51001v33.40997c0,2.02002 -1.62988,3.66003 -3.66016,3.66003c-2.05097,0 -3.65967,-1.64724 -3.65967,-3.66003v-33.41998c1.12012,0.48999 2.37012,0.76001 3.66992,0.76001c1.30029,0 2.52979,-0.27002 3.6499,-0.75zM16.39966,18.05811c0,4.05392 -3.31658,7.20654 -7.19328,7.20654c-3.94935,0 -7.20638,-3.22405 -7.20638,-7.20654c0,-4.01477 3.30292,-7.19311 7.20638,-7.19311c1.32857,0 2.57687,0.36237 3.65021,1.0065c2.12047,1.23462 3.54307,3.54291 3.54307,6.18661zM37.65363,8.09003v25.27997c-1.12012,-0.47998 -2.3501,-0.75 -3.6499,-0.75c-1.30029,0 -2.54004,0.27002 -3.66016,0.76001v-25.28998c0,-2.03003 1.63965,-3.67004 3.66016,-3.67004c1.9512,0 3.6499,1.57834 3.6499,3.67004zM37.65363,50.27002v9.64996c0,2.02002 -1.63037,3.66003 -3.6499,3.66003c-2.11522,0 -3.66016,-1.72358 -3.66016,-3.66003v-9.65997c1.12012,0.48999 2.35986,0.76001 3.66016,0.76001c1.2998,0 2.52979,-0.27002 3.6499,-0.75zM41.19983,41.81157c0,4.05283 -3.31556,7.20655 -7.19295,7.20655c-3.9957,0 -7.20671,-3.25541 -7.20671,-7.20655c0,-3.9907 3.2637,-7.19311 7.20671,-7.19311c3.85949,0 7.19295,3.12308 7.19295,7.19311zM62.47345,8.09003v1.52997c-1.12012,-0.48999 -2.37012,-0.76001 -3.66992,-0.76001c-1.2998,0 -2.54004,0.27002 -3.66016,0.76001v-1.52997c0,-2.03003 1.64014,-3.67004 3.66016,-3.67004c2.11142,0 3.66992,1.7411 3.66992,3.67004zM62.47345,26.5v33.41998c0,2.02002 -1.64014,3.66003 -3.66992,3.66003c-2.11995,0 -3.66016,-1.73016 -3.66016,-3.66003v-33.41998c1.12012,0.48999 2.36035,0.76001 3.66016,0.76001c1.27979,0 2.54004,-0.26001 3.66992,-0.76001zM66,18.05811c0,2.63035 -1.40916,4.93856 -3.52931,6.18669c-1.07367,0.65757 -2.32164,1.01985 -3.66364,1.01985c-3.99408,0 -7.20671,-3.25426 -7.20671,-7.20654c0,-3.99062 3.26386,-7.19311 7.20671,-7.19311c3.89174,0 7.19295,3.15507 7.19295,7.19311z"></path>
		</g>
	</g>
</svg>