<svg enable-background="new 0 0 20 20" viewBox="0 0 20 20" xmlns="http://www.w3.org/2000/svg">
	<path d="m3 5h-2c-.55 0-1 .45-1 1v13c0 .55.45 1 1 1h2c.55 0 1-.45 1-1v-13c0-.55-.45-1-1-1zm0-5h-2c-.55 0-1 .45-1 1v2c0 .55.45 1 1 1h2c.55 0 1-.45 1-1v-2c0-.55-.45-1-1-1zm13.71 5.29c-.18-.18-.43-.29-.71-.29s-.53.11-.71.29l-3 3c-.18.18-.29.43-.29.71 0 .55.45 1 1 1 .28 0 .53-.11.71-.29l1.29-1.3v2.59c0 2.21-1.79 4-4 4h-2.59l1.29-1.29c.19-.18.3-.43.3-.71 0-.55-.45-1-1-1-.28 0-.53.11-.71.29l-3 3c-.18.18-.29.43-.29.71s.11.53.29.71l3 3c.18.18.43.29.71.29.55 0 1-.45 1-1 0-.28-.11-.53-.29-.71l-1.3-1.29h2.59c3.31 0 6-2.69 6-6v-2.59l1.29 1.29c.18.19.43.3.71.3.55 0 1-.45 1-1 0-.28-.11-.53-.29-.71zm2.29-5.29h-13c-.55 0-1 .45-1 1v2c0 .55.45 1 1 1h13c.55 0 1-.45 1-1v-2c0-.55-.45-1-1-1z"/>
</svg>