<svg fill="#94a4ad" xmlns="http://www.w3.org/2000/svg"  viewBox="0 0 32 32" width="32px" height="32px"><path d="M 26 1 C 25.74425 1 25.488469 1.0994219 25.292969 1.2949219 C 24.901969 1.6859219 24.901969 2.3160312 25.292969 2.7070312 L 26.585938 4 L 12.5 4 C 10.019 4 8 6.019 8 8.5 C 8 10.981 10.019 13 12.5 13 L 16.183594 13 C 16.597594 14.161 17.698 15 19 15 C 20.302 15 21.402406 14.161 21.816406 13 L 24 13 C 25.103 13 26 13.897 26 15 L 26 17.183594 C 24.839 17.597594 24 18.698 24 20 C 24 21.302 24.839 22.402406 26 22.816406 L 26 24 C 26 25.103 25.103 26 24 26 L 19 26 C 18.447 26 18 26.448 18 27 C 18 27.552 18.447 28 19 28 L 24 28 C 26.206 28 28 26.206 28 24 L 28 22.816406 C 29.161 22.402406 30 21.302 30 20 C 30 18.698 29.161 17.597594 28 17.183594 L 28 15 C 28 12.794 26.206 11 24 11 L 21.816406 11 C 21.402406 9.839 20.302 9 19 9 C 17.698 9 16.597594 9.839 16.183594 11 L 12.5 11 C 11.121 11 10 9.878 10 8.5 C 10 7.122 11.121 6 12.5 6 L 26.585938 6 L 25.292969 7.2929688 C 24.901969 7.6839688 24.901969 8.3160312 25.292969 8.7070312 C 25.683969 9.0980313 26.316031 9.0980313 26.707031 8.7070312 L 29.705078 5.7070312 C 30.094078 5.3190313 30.094078 4.6809687 29.705078 4.2929688 L 26.707031 1.2949219 C 26.511531 1.0994219 26.25575 1 26 1 z M 19 11 C 19.552 11 20 11.449 20 12 C 20 12.551 19.552 13 19 13 C 18.448 13 18 12.551 18 12 C 18 11.449 18.448 11 19 11 z M 7.5722656 15.242188 C 7.4524375 15.260656 7.3336563 15.300984 7.2226562 15.365234 L 4.7753906 16.779297 C 4.3343906 17.034297 4.1553281 17.581828 4.3613281 18.048828 L 4.8671875 19.201172 C 4.5811875 19.589172 4.3424375 20.008078 4.1484375 20.455078 L 2.890625 20.59375 C 2.383625 20.64775 2 21.075938 2 21.585938 L 2 24.412109 C 2 24.923109 2.3845781 25.352203 2.8925781 25.408203 L 4.1464844 25.544922 C 4.3494844 26.014922 4.5871406 26.418875 4.8691406 26.796875 L 4.3613281 27.953125 C 4.1553281 28.420125 4.3363438 28.965703 4.7773438 29.220703 L 7.2246094 30.634766 C 7.6676094 30.890766 8.23025 30.771328 8.53125 30.361328 L 9.2792969 29.339844 C 9.7632969 29.395844 10.246609 29.39875 10.724609 29.34375 L 11.470703 30.361328 C 11.771703 30.771328 12.334344 30.890766 12.777344 30.634766 L 15.224609 29.220703 C 15.665609 28.965703 15.844672 28.418172 15.638672 27.951172 L 15.132812 26.798828 C 15.418812 26.410828 15.657562 25.991922 15.851562 25.544922 L 17.109375 25.40625 C 17.616375 25.35125 18 24.924063 18 24.414062 L 18 21.587891 C 18 21.077891 17.615422 20.64975 17.107422 20.59375 L 15.853516 20.455078 C 15.672516 20.031078 15.433859 19.610125 15.130859 19.203125 L 15.638672 18.048828 C 15.844672 17.581828 15.663656 17.034297 15.222656 16.779297 L 12.775391 15.365234 C 12.331391 15.108234 11.76975 15.229625 11.46875 15.640625 L 10.720703 16.660156 C 10.236703 16.603156 9.7533906 16.60125 9.2753906 16.65625 L 8.5292969 15.640625 C 8.3035469 15.332375 7.93175 15.186781 7.5722656 15.242188 z M 7.4472656 17.544922 L 8.0253906 18.332031 C 8.2603906 18.652031 8.6618281 18.80375 9.0488281 18.71875 C 9.6678281 18.58075 10.306312 18.582609 10.945312 18.724609 C 11.330312 18.810609 11.73375 18.659844 11.96875 18.339844 L 12.550781 17.544922 L 13.445312 18.060547 L 13.050781 18.960938 C 12.890781 19.323937 12.960516 19.744109 13.228516 20.037109 C 13.672516 20.523109 13.981688 21.057594 14.179688 21.683594 C 14.298687 22.061594 14.628437 22.333953 15.023438 22.376953 L 16 22.482422 L 16 23.517578 L 15.021484 23.623047 C 14.626484 23.666047 14.294781 23.939359 14.175781 24.318359 C 13.979781 24.942359 13.661422 25.496844 13.232422 25.964844 C 12.964422 26.256844 12.894688 26.679969 13.054688 27.042969 L 13.447266 27.939453 L 12.552734 28.455078 L 11.974609 27.667969 C 11.739609 27.347969 11.336172 27.19425 10.951172 27.28125 C 10.331172 27.41825 9.6936875 27.416391 9.0546875 27.275391 C 8.6666875 27.189391 8.26625 27.339156 8.03125 27.660156 L 7.4492188 28.455078 L 6.5546875 27.939453 L 6.9492188 27.039062 C 7.1092188 26.676063 7.0394844 26.255891 6.7714844 25.962891 C 6.3324844 25.481891 6.0203125 24.948406 5.8203125 24.316406 C 5.7013125 23.939406 5.3705625 23.666047 4.9765625 23.623047 L 4 23.517578 L 4 22.482422 L 4.9785156 22.376953 C 5.3735156 22.333953 5.7052188 22.060641 5.8242188 21.681641 C 6.0202187 21.057641 6.3385781 20.503156 6.7675781 20.035156 C 7.0355781 19.743156 7.1053125 19.320031 6.9453125 18.957031 L 6.5527344 18.060547 L 7.4472656 17.544922 z M 27 19 C 27.552 19 28 19.449 28 20 C 28 20.551 27.552 21 27 21 C 26.448 21 26 20.551 26 20 C 26 19.449 26.448 19 27 19 z M 10 20 C 8.346 20 7 21.346 7 23 C 7 24.654 8.346 26 10 26 C 11.654 26 13 24.654 13 23 C 13 21.346 11.654 20 10 20 z M 10 22 C 10.552 22 11 22.449 11 23 C 11 23.551 10.552 24 10 24 C 9.448 24 9 23.551 9 23 C 9 22.449 9.448 22 10 22 z"/></svg>