<svg fill="#94a4ad" id="Layer_1" data-name="Layer 1" xmlns="http://www.w3.org/2000/svg" viewBox="0 0 16 16"><path d="M2.35.93A2.3,2.3,0,0,1,4,1.59c.53.52,1,1.05,1.57,1.58.13.14.19.13.32,0A2.29,2.29,0,0,1,8,2.33a.23.23,0,0,0,.26-.14A2.35,2.35,0,0,1,10.11,1a2.18,2.18,0,0,1,1.78.55c.48.42.91.9,1.37,1.35s1,1,1.47,1.46a2.16,2.16,0,0,1,.68,1.47c.14,1.21.31,2.41.47,3.61,0,.28.09.56.12.84a1,1,0,0,1-.29.77Q13.85,12.91,12,14.77A.91.91,0,0,1,11,15L6.74,13.67a.93.93,0,0,1-.39-.26L3.74,10.79a1,1,0,0,1-.25-1.08c.12-.38.24-.76.38-1.14a.39.39,0,0,0-.11-.46c-1-1-2-2-3-3A2.51,2.51,0,0,1,0,3.59,2.46,2.46,0,0,1,1.92,1,3.3,3.3,0,0,1,2.35.93ZM14,9.85a.38.38,0,0,0,0-.12c-.17-1.26-.33-2.51-.5-3.76a.5.5,0,0,0-.14-.28L10.72,3.06a.45.45,0,0,0-.26-.14.38.38,0,0,0-.46.21.46.46,0,0,0,.09.57l.95,1a1,1,0,0,1-.37,1.62,1,1,0,0,1-1-.24L8.11,4.46a.54.54,0,0,0-.28-.19.42.42,0,0,0-.5.2A.46.46,0,0,0,7.42,5l.95,1a1,1,0,0,1,.3.79A1,1,0,0,1,7,7.36c-1-1-2-2-3-3-.44-.45-.87-.9-1.32-1.34A.41.41,0,0,0,2,3.08a.46.46,0,0,0,.09.63L6.27,7.9a2.4,2.4,0,0,1,.22.24.9.9,0,0,1,.1,1,.88.88,0,0,1-.83.54c-.08,0-.19,0-.23.07s.06.16.12.22l1.78,1.8a.82.82,0,0,0,.36.21l3,1a.29.29,0,0,0,.35-.08l2.69-2.69A.36.36,0,0,0,14,9.85Z"/></svg>