<svg fill="#94a4ad" id="Layer_1" data-name="Layer 1" xmlns="http://www.w3.org/2000/svg" viewBox="0 0 16 16"><path d="M16.07,7v4.85a1.09,1.09,0,0,1-1.24,1.22H13A5.87,5.87,0,0,0,8.79,14.7a1,1,0,0,1-1.57,0,5.86,5.86,0,0,0-4.17-1.65h-2A1.06,1.06,0,0,1-.07,11.93V2.07A1.05,1.05,0,0,1,1.07.94C2,1,2.92.9,3.85,1A7.88,7.88,0,0,1,7.76,2.44a.34.34,0,0,0,.47,0A7.93,7.93,0,0,1,12.88.94h2a1.06,1.06,0,0,1,1.15,1.15ZM14,7c0-1.23,0-2.46,0-3.69,0-.25-.08-.32-.32-.31-.45,0-.91,0-1.36,0A5.82,5.82,0,0,0,9.22,4.29a.44.44,0,0,0-.17.37v7.06c0,.21.07.22.23.13a8,8,0,0,1,1.52-.59A9,9,0,0,1,13.63,11c.38,0,.38,0,.38-.39ZM2,7v3.4C2,11,2,11,2.6,11a8.12,8.12,0,0,1,4.14.87C7,12,7,11.8,7,11.67v-7a.49.49,0,0,0-.22-.45,6,6,0,0,0-1.58-.88A7.86,7.86,0,0,0,2.3,3C2,3,2,3.09,2,3.32,2,4.54,2,5.77,2,7Z"/></svg>