<svg fill="#94a4ad" id="Layer_1" data-name="Layer 1" xmlns="http://www.w3.org/2000/svg" viewBox="0 0 16 16"><path d="M12.36,8.48a1,1,0,0,1-1,.41.9.9,0,0,1-.51-1.49c.6-.63,1.22-1.25,1.85-1.85a.88.88,0,0,1,1.24,0c.6.59,1.2,1.19,1.79,1.79a.91.91,0,0,1-1.23,1.34l-.3-.27a6.46,6.46,0,0,1-.35,1.78A6.91,6.91,0,0,1,8.16,15,7.1,7.1,0,0,1,5.79,1,6.24,6.24,0,0,1,7,.89a.92.92,0,0,1,1,1c0,.56,0,1.13,0,1.7a.92.92,0,0,1-1.8.27,2.93,2.93,0,0,1,0-.78c0-.19-.05-.23-.23-.19a5.33,5.33,0,0,0-4,4c0,.16,0,.24.18.23a3,3,0,0,1,.73,0,.91.91,0,0,1,0,1.78,2.42,2.42,0,0,1-.71,0C2,8.91,1.93,9,2,9.18a5.31,5.31,0,0,0,3.93,4c.28.07.29.06.29-.23a2.93,2.93,0,0,1,0-.66.92.92,0,0,1,.89-.74.93.93,0,0,1,.89.74A2.74,2.74,0,0,1,8,13c0,.21.07.24.25.2a5.28,5.28,0,0,0,4.07-4.53A.61.61,0,0,0,12.36,8.48Z"/><path d="M6.22,8.93H5.51c-.66,0-1.08-.37-1.07-.93A.94.94,0,0,1,5.5,7.08a8,8,0,0,1,.85,0,.45.45,0,0,0,.44-.23c.43-.66.87-1.32,1.31-2a.9.9,0,0,1,1.47-.14.87.87,0,0,1,.1,1.08c-.6.91-1.21,1.82-1.82,2.73a1,1,0,0,1-.8.38Z"/></svg>