<svg fill="#94a4ad" xmlns="http://www.w3.org/2000/svg"  viewBox="0 0 32 32" width="500px" height="500px">
	<path d="M29,2H19c-0.553,0-1,0.448-1,1v5h-4V3c0-0.552-0.448-1-1-1H3C2.448,2,2,2.448,2,3v11c0,0.552,0.448,1,1,1h4v9 c0,0.552,0.448,1,1,1h2v4c0,0.552,0.448,1,1,1h10c0.553,0,1-0.448,1-1v-4h2c0.553,0,1-0.448,1-1v-9h4c0.553,0,1-0.448,1-1V3 C30,2.448,29.553,2,29,2z M20,4h8v1h-8V4z M4,4h8v1H4V4z M4,13V7h8v6H4z M20,20h-8v-1h8V20z M12,28v-6h8v6H12z M23,23h-1v-5 c0-0.552-0.447-1-1-1H11c-0.552,0-1,0.448-1,1v5H9v-8h4c0.552,0,1-0.448,1-1v-4h4v4c0,0.552,0.447,1,1,1h4V23z M28,13h-8V7h8V13z"/>
</svg>