<svg fill="#94a4ad" xmlns="http://www.w3.org/2000/svg"  viewBox="0 0 32 32" width="500px" height="500px">
	<path d="M 5 2 C 3.346 2 2 3.346 2 5 L 2 9 C 2 10.654 3.346 12 5 12 L 7 12 L 15 12 L 15 14 C 15 14.553 15.447 15 16 15 L 24 15 L 24 16.585938 L 23.707031 16.292969 C 23.316031 15.901969 22.683969 15.901969 22.292969 16.292969 C 21.901969 16.683969 21.901969 17.316031 22.292969 17.707031 L 24.292969 19.707031 C 24.487969 19.902031 24.744 20 25 20 C 25.256 20 25.512031 19.902031 25.707031 19.707031 L 27.707031 17.707031 C 28.098031 17.316031 28.098031 16.683969 27.707031 16.292969 C 27.316031 15.901969 26.683969 15.901969 26.292969 16.292969 L 26 16.585938 L 26 14 C 26 13.447 25.553 13 25 13 L 17 13 L 17 12 L 19 12 C 20.654 12 22 10.654 22 9 L 22 5 C 22 3.346 20.654 2 19 2 L 5 2 z M 25 20 L 17 20 L 17 18 C 17 17.447 16.553 17 16 17 L 8 17 L 8 15.414062 L 8.2929688 15.707031 C 8.4879688 15.902031 8.744 16 9 16 C 9.256 16 9.5120312 15.902031 9.7070312 15.707031 C 10.098031 15.316031 10.098031 14.683969 9.7070312 14.292969 L 7.7070312 12.292969 C 7.5120312 12.097969 7.256 12 7 12 C 6.744 12 6.4879688 12.097969 6.2929688 12.292969 L 4.2929688 14.292969 C 3.9019687 14.683969 3.9019687 15.316031 4.2929688 15.707031 C 4.6839688 16.098031 5.3160313 16.098031 5.7070312 15.707031 L 6 15.414062 L 6 18 C 6 18.553 6.447 19 7 19 L 15 19 L 15 20 L 13 20 C 11.346 20 10 21.346 10 23 L 10 27 C 10 28.654 11.346 30 13 30 L 27 30 C 28.654 30 30 28.654 30 27 L 30 23 C 30 21.346 28.654 20 27 20 L 25 20 z M 5 4 L 19 4 C 19.552 4 20 4.448 20 5 L 20 9 C 20 9.552 19.552 10 19 10 L 5 10 C 4.448 10 4 9.552 4 9 L 4 5 C 4 4.448 4.448 4 5 4 z M 12 5 C 11.447 5 11 5.447 11 6 L 11 8 C 11 8.553 11.447 9 12 9 C 12.553 9 13 8.553 13 8 L 13 6 C 13 5.447 12.553 5 12 5 z M 15 5 C 14.447 5 14 5.447 14 6 L 14 8 C 14 8.553 14.447 9 15 9 C 15.553 9 16 8.553 16 8 L 16 6 C 16 5.447 15.553 5 15 5 z M 18 5 C 17.447 5 17 5.447 17 6 L 17 8 C 17 8.553 17.447 9 18 9 C 18.553 9 19 8.553 19 8 L 19 6 C 19 5.447 18.553 5 18 5 z M 13 22 L 27 22 C 27.552 22 28 22.448 28 23 L 28 27 C 28 27.552 27.552 28 27 28 L 13 28 C 12.448 28 12 27.552 12 27 L 12 23 C 12 22.448 12.448 22 13 22 z M 20 23 C 19.447 23 19 23.447 19 24 L 19 26 C 19 26.553 19.447 27 20 27 C 20.553 27 21 26.553 21 26 L 21 24 C 21 23.447 20.553 23 20 23 z M 23 23 C 22.447 23 22 23.447 22 24 L 22 26 C 22 26.553 22.447 27 23 27 C 23.553 27 24 26.553 24 26 L 24 24 C 24 23.447 23.553 23 23 23 z M 26 23 C 25.447 23 25 23.447 25 24 L 25 26 C 25 26.553 25.447 27 26 27 C 26.553 27 27 26.553 27 26 L 27 24 C 27 23.447 26.553 23 26 23 z"/>
</svg>