<svg fill="#94a4ad" height="56" viewBox="0 0 56 56" width="56" xmlns="http://www.w3.org/2000/svg"><path d="m19.2811 49.5156c1.2422 0 2.0625-.8437 2.0625-2.0625 0-.6093-.1875-1.0547-.5625-1.4297l-6.75-6.5859-4.4531-3.7969 5.5078.2344h29.9062c5.4609 0 7.7347-2.5078 7.7347-7.8047v-13.8515c0-5.461-2.2738-7.7344-7.7347-7.7344h-13.1249c-1.2891 0-2.1329.9375-2.1329 2.0859 0 1.1485.8438 2.0859 2.1329 2.0859h13.1249c2.4844 0 3.5625 1.0782 3.5625 3.5626v13.8515c0 2.5547-1.0781 3.6328-3.5625 3.6328h-29.9062l-5.5078.2344 4.4531-3.7969 6.75-6.5859c.375-.375.5625-.8438.5625-1.4531 0-1.1954-.8203-2.0625-2.0625-2.0625-.5156 0-1.125.2578-1.5234.6562l-13.7813 13.5235c-.4687.4452-.7031.9843-.7031 1.5703 0 .5625.2344 1.1249.7031 1.5703l13.7813 13.5234c.3984.3985 1.0078.6328 1.5234.6328z"/></svg>