<svg fill="#94a4ad" xmlns="http://www.w3.org/2000/svg"  viewBox="0 0 32 32" width="500px" height="500px">
	<path d="M 17 2 C 16.74425 2 16.488469 2.0974688 16.292969 2.2929688 L 14.585938 4 L 6 4 C 3.794 4 2 5.794 2 8 L 2 13 C 2 15.206 3.794 17 6 17 L 6 27 C 6 28.654 7.346 30 9 30 L 23 30 C 24.654 30 26 28.654 26 27 L 26 17 C 28.206 17 30 15.206 30 13 L 30 8 C 30 5.794 28.206 4 26 4 L 17.414062 4 L 17.707031 3.7070312 C 18.098031 3.3160312 18.098031 2.6839688 17.707031 2.2929688 C 17.511531 2.0974687 17.25575 2 17 2 z M 6 6 L 14.585938 6 L 16.292969 7.7070312 C 16.487969 7.9020313 16.744 8 17 8 C 17.256 8 17.512031 7.9020313 17.707031 7.7070312 C 18.098031 7.3160312 18.098031 6.6839688 17.707031 6.2929688 L 17.414062 6 L 26 6 C 27.103 6 28 6.897 28 8 L 28 13 C 28 14.103 27.103 15 26 15 C 26 13.346 24.654 12 23 12 L 9 12 C 7.346 12 6 13.346 6 15 C 4.897 15 4 14.103 4 13 L 4 8 C 4 6.897 4.897 6 6 6 z M 9 14 L 23 14 C 23.552 14 24 14.448 24 15 L 24 20 L 8 20 L 8 15 C 8 14.448 8.448 14 9 14 z M 16 15 C 15.447 15 15 15.447 15 16 L 15 18 C 15 18.553 15.447 19 16 19 C 16.553 19 17 18.553 17 18 L 17 16 C 17 15.447 16.553 15 16 15 z M 19 15 C 18.447 15 18 15.447 18 16 L 18 18 C 18 18.553 18.447 19 19 19 C 19.553 19 20 18.553 20 18 L 20 16 C 20 15.447 19.553 15 19 15 z M 22 15 C 21.447 15 21 15.447 21 16 L 21 18 C 21 18.553 21.447 19 22 19 C 22.553 19 23 18.553 23 18 L 23 16 C 23 15.447 22.553 15 22 15 z M 8 22 L 24 22 L 24 27 C 24 27.552 23.552 28 23 28 L 9 28 C 8.448 28 8 27.552 8 27 L 8 22 z M 16 23 C 15.447 23 15 23.447 15 24 L 15 26 C 15 26.553 15.447 27 16 27 C 16.553 27 17 26.553 17 26 L 17 24 C 17 23.447 16.553 23 16 23 z M 19 23 C 18.447 23 18 23.447 18 24 L 18 26 C 18 26.553 18.447 27 19 27 C 19.553 27 20 26.553 20 26 L 20 24 C 20 23.447 19.553 23 19 23 z M 22 23 C 21.447 23 21 23.447 21 24 L 21 26 C 21 26.553 21.447 27 22 27 C 22.553 27 23 26.553 23 26 L 23 24 C 23 23.447 22.553 23 22 23 z"/>
</svg>