<svg fill="#94a4ad" id="Layer_1" data-name="Layer 1" xmlns="http://www.w3.org/2000/svg" viewBox="0 0 16 16"><path d="M16,.9a1.08,1.08,0,0,1-.08.44L11.78,12.92c-.08.24-.17.48-.26.71a.92.92,0,0,1-.9.6.9.9,0,0,1-.84-.74c-.18-.84-.35-1.68-.52-2.52,0-.06,0-.14-.06-.17s-.11.07-.16.11L4.33,15.62a.93.93,0,0,1-1.5,0L.34,13.14a.91.91,0,0,1,0-1.43L5.06,7c.05-.06.17-.1.13-.2S5.06,6.74,5,6.73l-2.4-.48a.91.91,0,0,1-.79-.8.89.89,0,0,1,.64-1L9.52,1.93,14.74.07a.91.91,0,0,1,1.11.32A.85.85,0,0,1,16,.9ZM6.19,5.06v0l1.11.23A.9.9,0,0,1,8,6.12,1,1,0,0,1,7.69,7L2.42,12.22c-.15.15-.18.25,0,.41.34.31.67.64,1,1,.15.16.23.14.37,0,1.76-1.76,3.52-3.53,5.29-5.29A.92.92,0,0,1,10,8a.93.93,0,0,1,.66.81c.07.33.13.66.2,1h0l2.63-7.39Z"/></svg>