<svg fill="#94a4ad" xmlns="http://www.w3.org/2000/svg"  viewBox="0 0 32 32" width="500px" height="500px">
	<path d="M 5 2 C 3.346 2 2 3.346 2 5 C 2 6.302 2.839 7.4024062 4 7.8164062 L 4 14 C 3.448 14 3 14.448 3 15 L 3 17 C 3 17.552 3.448 18 4 18 L 4 24.183594 C 2.839 24.597594 2 25.698 2 27 C 2 28.654 3.346 30 5 30 C 6.654 30 8 28.654 8 27 C 8 25.698 7.161 24.597594 6 24.183594 L 6 18 C 6.552 18 7 17.552 7 17 L 17 17 C 17.553 17 18 16.552 18 16 C 18 15.448 17.553 15 17 15 L 7 15 C 7 14.448 6.552 14 6 14 L 6 7.8164062 C 7.161 7.4024063 8 6.302 8 5 C 8 3.346 6.654 2 5 2 z M 12.960938 3 C 11.328937 3 10 4.328 10 6 L 10 13 C 10 13.552 10.448 14 11 14 C 11.552 14 12 13.552 12 13 L 28 13 L 28 19 L 12 19 C 12 18.448 11.552 18 11 18 C 10.448 18 10 18.448 10 19 L 10 26.039062 C 10 27.671063 11.328938 29 12.960938 29 L 27.039062 29 C 28.671063 29 30 27.671062 30 26.039062 L 30 5.9609375 C 30 4.3289375 28.671062 3 27.039062 3 L 12.960938 3 z M 5 4 C 5.551 4 6 4.449 6 5 C 6 5.551 5.551 6 5 6 C 4.449 6 4 5.551 4 5 C 4 4.449 4.449 4 5 4 z M 13 5 L 27.039062 5 C 27.568062 5 28 5.4319375 28 5.9609375 L 28 11 L 12 11 L 12 5.9609375 C 12 5.4319375 12.431 5 13 5 z M 20 6 C 19.447 6 19 6.448 19 7 L 19 9 C 19 9.552 19.447 10 20 10 C 20.553 10 21 9.552 21 9 L 21 7 C 21 6.448 20.553 6 20 6 z M 23 6 C 22.447 6 22 6.448 22 7 L 22 9 C 22 9.552 22.447 10 23 10 C 23.553 10 24 9.552 24 9 L 24 7 C 24 6.448 23.553 6 23 6 z M 26 6 C 25.447 6 25 6.448 25 7 L 25 9 C 25 9.552 25.447 10 26 10 C 26.553 10 27 9.552 27 9 L 27 7 C 27 6.448 26.553 6 26 6 z M 20 14 C 19.447 14 19 14.448 19 15 L 19 17 C 19 17.552 19.447 18 20 18 C 20.553 18 21 17.552 21 17 L 21 15 C 21 14.448 20.553 14 20 14 z M 23 14 C 22.447 14 22 14.448 22 15 L 22 17 C 22 17.552 22.447 18 23 18 C 23.553 18 24 17.552 24 17 L 24 15 C 24 14.448 23.553 14 23 14 z M 26 14 C 25.447 14 25 14.448 25 15 L 25 17 C 25 17.552 25.447 18 26 18 C 26.553 18 27 17.552 27 17 L 27 15 C 27 14.448 26.553 14 26 14 z M 12 21 L 28 21 L 28 26.039062 C 28 26.569063 27.568062 27 27.039062 27 L 12.960938 27 C 12.430938 27 12 26.568062 12 26.039062 L 12 21 z M 20 22 C 19.447 22 19 22.448 19 23 L 19 25 C 19 25.552 19.447 26 20 26 C 20.553 26 21 25.552 21 25 L 21 23 C 21 22.448 20.553 22 20 22 z M 23 22 C 22.447 22 22 22.448 22 23 L 22 25 C 22 25.552 22.447 26 23 26 C 23.553 26 24 25.552 24 25 L 24 23 C 24 22.448 23.553 22 23 22 z M 26 22 C 25.447 22 25 22.448 25 23 L 25 25 C 25 25.552 25.447 26 26 26 C 26.553 26 27 25.552 27 25 L 27 23 C 27 22.448 26.553 22 26 22 z M 5 26 C 5.551 26 6 26.449 6 27 C 6 27.551 5.551 28 5 28 C 4.449 28 4 27.551 4 27 C 4 26.449 4.449 26 5 26 z"/>
</svg>