<svg fill="#94a4ad" id="Layer_1" data-name="Layer 1" xmlns="http://www.w3.org/2000/svg" viewBox="0 0 16 16"><path d="M6.06,13.68V6a1.31,1.31,0,0,1,0-.34.66.66,0,0,1,.64-.52.65.65,0,0,1,.63.52,1.31,1.31,0,0,1,0,.34v7.69c.09,0,.12-.05.16-.09a.66.66,0,0,1,.91,0,.65.65,0,0,1,0,.92l-1.3,1.3a.65.65,0,0,1-.91,0C5.83,15.38,5.4,15,5,14.51a.64.64,0,0,1,0-.92.67.67,0,0,1,.91,0A.29.29,0,0,0,6.06,13.68Z"/><path d="M8.58,2.3l-.13.13a.65.65,0,0,1-.9,0,.64.64,0,0,1,0-.91c.44-.46.89-.9,1.35-1.34a.6.6,0,0,1,.86,0c.46.43.9.87,1.33,1.33a.63.63,0,0,1,0,.9.63.63,0,0,1-.9,0L10,2.3a.33.33,0,0,0,0,.21V10a1.72,1.72,0,0,1,0,.32.69.69,0,0,1-.64.54.68.68,0,0,1-.65-.53,1.77,1.77,0,0,1,0-.32V2.52A.44.44,0,0,0,8.58,2.3Z"/><path d="M11.85,8v4a.7.7,0,0,1-.79.79H8.68a.65.65,0,0,1-.69-.7.62.62,0,0,1,.62-.61h1.73c.16,0,.2-.05.2-.2V3.87a.64.64,0,0,1,.92-.61.67.67,0,0,1,.39.67Z"/><path d="M4.15,8V4a.68.68,0,0,1,.77-.78H7.37A.66.66,0,0,1,7.5,4.5l-.2,0H5.67c-.17,0-.21,0-.21.22v7.4a.64.64,0,0,1-.92.61.66.66,0,0,1-.39-.66V8Z"/></svg>