<svg fill="#94a4ad" xmlns="http://www.w3.org/2000/svg"  viewBox="0 0 32 32" width="500px" height="500px">
	<path d="M 9 2 C 7.346 2 6 3.346 6 5 L 6 9 C 6 10.654 7.346 12 9 12 L 15 12 L 15 14.585938 L 11.929688 17.65625 C 11.788687 17.27525 11.43 17 11 17 C 10.448 17 10 17.448 10 18 L 10 20 C 10 20.13 10.026172 20.260813 10.076172 20.382812 C 10.177172 20.626812 10.372188 20.821828 10.617188 20.923828 C 10.739187 20.973828 10.87 21 11 21 L 13 21 C 13.552 21 14 20.552 14 20 C 14 19.57 13.72475 19.211312 13.34375 19.070312 L 16 16.414062 L 18.65625 19.070312 C 18.27425 19.211312 18 19.57 18 20 C 18 20.552 18.447 21 19 21 L 21 21 C 21.553 21 22 20.552 22 20 L 22 18 C 22 17.448 21.553 17 21 17 C 20.57 17 20.211312 17.274297 20.070312 17.654297 L 17 14.585938 L 17 12 L 23 12 C 24.654 12 26 10.654 26 9 L 26 5 C 26 3.346 24.654 2 23 2 L 9 2 z M 9 4 L 23 4 C 23.552 4 24 4.449 24 5 L 24 9 C 24 9.551 23.552 10 23 10 L 9 10 C 8.449 10 8 9.551 8 9 L 8 5 C 8 4.449 8.449 4 9 4 z M 16 5 C 15.448 5 15 5.448 15 6 L 15 8 C 15 8.552 15.448 9 16 9 C 16.552 9 17 8.552 17 8 L 17 6 C 17 5.448 16.552 5 16 5 z M 19 5 C 18.447 5 18 5.448 18 6 L 18 8 C 18 8.552 18.447 9 19 9 C 19.553 9 20 8.552 20 8 L 20 6 C 20 5.448 19.553 5 19 5 z M 22 5 C 21.447 5 21 5.448 21 6 L 21 8 C 21 8.552 21.447 9 22 9 C 22.553 9 23 8.552 23 8 L 23 6 C 23 5.448 22.553 5 22 5 z M 4.9824219 22 C 3.3384219 22 2 23.335516 2 24.978516 L 2 27.021484 C 2 28.664484 3.3384219 30 4.9824219 30 L 13.017578 30 C 14.662578 30 16 28.664484 16 27.021484 C 16 28.664484 17.338422 30 18.982422 30 L 27.017578 30 C 28.662578 30 30 28.664484 30 27.021484 L 30 24.978516 C 30 23.335516 28.661578 22 27.017578 22 L 18.982422 22 C 17.337422 22 16 23.335516 16 24.978516 C 16 23.335516 14.661578 22 13.017578 22 L 4.9824219 22 z M 4.9824219 24 L 13.017578 24 C 13.559578 24 14 24.438516 14 24.978516 L 14 27.021484 C 14 27.561484 13.558578 28 13.017578 28 L 4.9824219 28 C 4.4414219 28 4 27.561484 4 27.021484 L 4 24.978516 C 4 24.438516 4.4414219 24 4.9824219 24 z M 18.982422 24 L 27.017578 24 C 27.560578 24 28 24.438516 28 24.978516 L 28 27.021484 C 28 27.561484 27.559578 28 27.017578 28 L 18.982422 28 C 18.439422 28 18 27.561484 18 27.021484 L 18 24.978516 C 18 24.438516 18.440422 24 18.982422 24 z M 7.9980469 25 C 7.4460469 25 7.0039062 25.448 7.0039062 26 C 7.0039062 26.552 7.4577656 27 8.0097656 27 C 8.5577656 27 9.0008125 26.557719 9.0078125 26.011719 C 9.0138125 26.557719 9.4617656 27 10.009766 27 C 10.557766 27 11.000813 26.557719 11.007812 26.011719 C 11.013813 26.557719 11.461766 27 12.009766 27 C 12.562766 27 13.009766 26.552 13.009766 26 C 13.009766 25.448 12.562766 25 12.009766 25 L 11.998047 25 C 11.450047 25 11.012859 25.442281 11.005859 25.988281 C 10.998859 25.442281 10.557766 25 10.009766 25 L 9.9980469 25 C 9.4500469 25 9.0128594 25.442281 9.0058594 25.988281 C 8.9988594 25.442281 8.5577656 25 8.0097656 25 L 7.9980469 25 z M 21.998047 25 C 21.446047 25 21.005859 25.448 21.005859 26 C 21.005859 26.552 21.456766 27 22.009766 27 C 22.556766 27 23.000812 26.557719 23.007812 26.011719 C 23.013812 26.557719 23.460766 27 24.009766 27 C 24.556766 27 25.000812 26.557719 25.007812 26.011719 C 25.013812 26.557719 25.460766 27 26.009766 27 C 26.561766 27 27.009766 26.552 27.009766 26 C 27.009766 25.448 26.561766 25 26.009766 25 L 25.998047 25 C 25.451047 25 25.014813 25.442281 25.007812 25.988281 C 25.000812 25.442281 24.556766 25 24.009766 25 L 23.998047 25 C 23.451047 25 23.014813 25.442281 23.007812 25.988281 C 23.000812 25.442281 22.556766 25 22.009766 25 L 21.998047 25 z"/>
</svg>