<svg fill="#94a4ad" xmlns="http://www.w3.org/2000/svg"  viewBox="0 0 32 32" width="500px" height="500px">
	<path d="M 5 2 C 4.448 2 4 2.448 4 3 L 4 3.3828125 L 3.4472656 3.1054688 C 2.9522656 2.8584688 2.3524688 3.0587344 2.1054688 3.5527344 C 1.8584688 4.0467344 2.0587344 4.6465312 2.5527344 4.8945312 L 2.7636719 5 L 2.5527344 5.1054688 C 2.0587344 5.3534687 1.8584688 5.9532656 2.1054688 6.4472656 C 2.2814688 6.7982656 2.6349531 7 3.0019531 7 C 3.1519531 7 3.3042656 6.9655313 3.4472656 6.8945312 L 4 6.6171875 L 4 7 C 4 7.552 4.448 8 5 8 C 5.552 8 6 7.552 6 7 L 6 6.6171875 L 6.5527344 6.8945312 C 6.6957344 6.9665313 6.8480469 7 6.9980469 7 C 7.3650469 7 7.7185313 6.7982656 7.8945312 6.4472656 C 8.1415312 5.9532656 7.9412656 5.3524688 7.4472656 5.1054688 L 7.2363281 5 L 7.4472656 4.8945312 C 7.9412656 4.6475313 8.1415312 4.0467344 7.8945312 3.5527344 C 7.6485312 3.0587344 7.0477344 2.8584688 6.5527344 3.1054688 L 6 3.3828125 L 6 3 C 6 2.448 5.552 2 5 2 z M 10 3 C 9.448 3 9 3.448 9 4 L 9 10 C 9 10.552 9.448 11 10 11 L 12 11 C 12.552 11 13 10.552 13 10 C 13 9.448 12.552 9 12 9 L 11 9 L 11 5 L 12 5 C 12.552 5 13 4.552 13 4 C 13 3.448 12.552 3 12 3 L 10 3 z M 21 3 C 20.448 3 20 3.448 20 4 C 20 4.552 20.448 5 21 5 L 22 5 L 22 9 L 21 9 C 20.448 9 20 9.448 20 10 C 20 10.552 20.448 11 21 11 L 23 11 C 23.552 11 24 10.552 24 10 L 24 4 C 24 3.448 23.552 3 23 3 L 21 3 z M 26 3 C 25.74425 3 25.488469 3.0974687 25.292969 3.2929688 C 24.901969 3.6839688 24.901969 4.3160313 25.292969 4.7070312 L 27.585938 7 L 25.292969 9.2929688 C 24.901969 9.6839688 24.901969 10.316031 25.292969 10.707031 C 25.487969 10.902031 25.744 11 26 11 C 26.256 11 26.512031 10.902031 26.707031 10.707031 L 29.707031 7.7070312 C 30.098031 7.3160312 30.098031 6.6839688 29.707031 6.2929688 L 26.707031 3.2929688 C 26.511531 3.0974687 26.25575 3 26 3 z M 15 9 C 14.448 9 14 9.448 14 10 C 14 10.552 14.448 11 15 11 L 18 11 C 18.552 11 19 10.552 19 10 C 19 9.448 18.552 9 18 9 L 15 9 z M 9 12 C 7.346 12 6 13.346 6 15 L 6 27 C 6 28.654 7.346 30 9 30 L 23 30 C 24.654 30 26 28.654 26 27 L 26 15 C 26 13.346 24.654 12 23 12 L 9 12 z M 9 14 L 23 14 C 23.551 14 24 14.449 24 15 L 24 20 L 8 20 L 8 15 C 8 14.449 8.449 14 9 14 z M 16 15 C 15.448 15 15 15.448 15 16 L 15 18 C 15 18.552 15.448 19 16 19 C 16.552 19 17 18.552 17 18 L 17 16 C 17 15.448 16.552 15 16 15 z M 19 15 C 18.448 15 18 15.448 18 16 L 18 18 C 18 18.552 18.448 19 19 19 C 19.552 19 20 18.552 20 18 L 20 16 C 20 15.448 19.552 15 19 15 z M 22 15 C 21.448 15 21 15.448 21 16 L 21 18 C 21 18.552 21.448 19 22 19 C 22.552 19 23 18.552 23 18 L 23 16 C 23 15.448 22.552 15 22 15 z M 8 22 L 24 22 L 24 27 C 24 27.551 23.551 28 23 28 L 9 28 C 8.449 28 8 27.551 8 27 L 8 22 z M 16 23 C 15.448 23 15 23.448 15 24 L 15 26 C 15 26.552 15.448 27 16 27 C 16.552 27 17 26.552 17 26 L 17 24 C 17 23.448 16.552 23 16 23 z M 19 23 C 18.448 23 18 23.448 18 24 L 18 26 C 18 26.552 18.448 27 19 27 C 19.552 27 20 26.552 20 26 L 20 24 C 20 23.448 19.552 23 19 23 z M 22 23 C 21.448 23 21 23.448 21 24 L 21 26 C 21 26.552 21.448 27 22 27 C 22.552 27 23 26.552 23 26 L 23 24 C 23 23.448 22.552 23 22 23 z"/>
</svg>