<svg fill="#94a4ad" xmlns="http://www.w3.org/2000/svg"  viewBox="0 0 50 50" width="16" height="16">
	<path d="M 42.09375 0.96875 C 41.80875 0.94075 41.5235 1.0392812 41.3125 1.2382812 C 41.1055 1.4342812 40.988 1.711 41 2 L 41 8.5 C 36.883 4.496 31.223 2 25 2 C 12.266 2 2 12.266 2 25 C 2 37.734 12.266 48 25 48 C 37.734 48 48 37.734 48 25 C 48 21.234 47.066 17.5735 45.5 14.4375 L 43.71875 15.34375 C 45.15175 18.20675 46 21.566 46 25 C 46 36.664 36.664 46 25 46 C 13.336 46 4 36.664 4 25 C 4 13.336 13.336 4 25 4 C 30.73 4 35.89525 6.305 39.65625 10 L 33 10 C 32.641 9.996 32.305094 10.184094 32.121094 10.496094 C 31.941094 10.808094 31.941094 11.190906 32.121094 11.503906 C 32.305094 11.815906 32.641 12.004 33 12 L 43 12 L 43 2 C 43.012 1.523 42.68375 1.105 42.21875 1 C 42.17975 0.988 42.13675 0.97675 42.09375 0.96875 z M 24 10 L 24 24.28125 C 23.402 24.62925 23 25.261 23 26 C 23 26.172 23.0205 26.34 23.0625 26.5 L 16.28125 33.28125 L 17.71875 34.71875 L 24.5 27.9375 C 24.66 27.9795 24.828 28 25 28 C 26.105 28 27 27.105 27 26 C 27 25.262 26.598 24.62925 26 24.28125 L 26 10 L 24 10 z"/>
</svg>