<svg fill="#94a4ad" xmlns="http://www.w3.org/2000/svg"  viewBox="0 0 32 32" width="500px" height="500px">
	<path d="M 8 2 C 7.448 2 7 2.448 7 3 L 7 15 C 7 15.552 7.448 16 8 16 C 8.552 16 9 15.552 9 15 L 9 8 L 14 8 L 14 17 C 14 17.552 14.448 18 15 18 C 15.552 18 16 17.552 16 17 L 16 8 L 21 8 L 21 16 C 21 16.552 21.448 17 22 17 C 22.552 17 23 16.552 23 16 L 23 8 L 28 8 L 28 28 L 23 28 L 23 27 C 23 26.448 22.552 26 22 26 C 21.448 26 21 26.448 21 27 L 21 28 L 16 28 C 15.448 28 15 28.448 15 29 C 15 29.552 15.448 30 16 30 L 29 30 C 29.552 30 30 29.552 30 29 L 30 3 C 30 2.448 29.552 2 29 2 L 8 2 z M 9 4 L 14 4 L 14 6 L 9 6 L 9 4 z M 16 4 L 21 4 L 21 6 L 16 6 L 16 4 z M 23 4 L 28 4 L 28 6 L 23 6 L 23 4 z M 7.0058594 17 C 6.8438594 17.038 6.6704844 17.041094 6.5214844 17.121094 L 2.5214844 19.298828 C 2.1994844 19.473828 2 19.811734 2 20.177734 L 2 25.833984 C 2 26.089984 2.0974375 26.335484 2.2734375 26.521484 L 5.2734375 29.6875 C 5.4624375 29.8865 5.726 30 6 30 L 11.994141 30 L 12.009766 30 C 12.587766 30 13.058203 29.823656 13.408203 29.472656 C 13.938203 28.942656 14.003 28.194562 14 27.601562 C 13.999 27.333562 13.980266 27.092 13.947266 26.875 C 14.129266 26.78 14.269047 26.6675 14.373047 26.5625 C 14.940047 25.9975 15.003 25.161031 15 24.582031 C 14.999 24.369031 14.976078 24.189766 14.955078 24.009766 L 18.011719 24.025391 L 18.021484 24.025391 C 18.807484 24.025391 19.729312 23.629063 20.320312 23.039062 C 20.767312 22.592063 21.003 22.065625 21 21.515625 C 20.993 19.990625 19.220141 19.007953 17.994141 19.001953 L 13.435547 19.025391 L 11.703125 17.310547 C 11.517125 17.125547 11.267859 17.021531 11.005859 17.019531 L 7.0058594 17 z M 24 17 C 23.74425 17 23.488469 17.097469 23.292969 17.292969 L 21.292969 19.292969 C 20.901969 19.683969 20.901969 20.316031 21.292969 20.707031 C 21.487969 20.902031 21.744 21 22 21 C 22.256 21 22.512031 20.902031 22.707031 20.707031 L 24.707031 18.707031 C 25.098031 18.316031 25.098031 17.683969 24.707031 17.292969 C 24.511531 17.097469 24.25575 17 24 17 z M 7.2519531 19.001953 L 10.585938 19.017578 L 10.753906 19.183594 C 10.453906 19.357594 10.242141 19.670016 10.244141 20.041016 C 10.247141 20.591016 10.694141 21.035156 11.244141 21.035156 L 11.25 21.035156 L 17.994141 21 C 18.378141 21.002 18.944906 21.365094 19.003906 21.496094 C 18.944906 21.676094 18.394484 22.023438 18.021484 22.023438 L 18.019531 22.023438 L 13.005859 22 L 13 22 C 12.997 22 12.993234 22.001953 12.990234 22.001953 C 12.983234 22.001953 12.977703 22.001953 12.970703 22.001953 L 10.970703 22.060547 C 10.418703 22.077547 9.984 22.538844 10 23.089844 C 10.016 23.641844 10.503297 24.087547 11.029297 24.060547 L 12.943359 24.005859 C 12.967359 24.095859 12.998 24.27075 13 24.59375 C 13.001 24.85375 12.981891 25.005844 12.962891 25.089844 L 12.554688 25.070312 C 12.357687 25.019312 12.167 25.001 12 25 L 10 25 C 9.448 25 9 25.448 9 26 C 9 26.552 9.448 27 10 27 L 11.951172 27.044922 C 11.974172 27.144922 11.999 27.318328 12 27.611328 C 12.001 27.801328 11.989516 27.923 11.978516 28 L 6.4296875 28 L 4 25.435547 L 4 20.771484 L 7.2519531 19.001953 z M 22 22 C 21.74425 22 21.488469 22.097469 21.292969 22.292969 C 20.901969 22.683969 20.901969 23.316031 21.292969 23.707031 L 23.292969 25.707031 C 23.487969 25.902031 23.744 26 24 26 C 24.256 26 24.512031 25.902031 24.707031 25.707031 C 25.098031 25.316031 25.098031 24.683969 24.707031 24.292969 L 22.707031 22.292969 C 22.511531 22.097469 22.25575 22 22 22 z"/>
</svg>