<svg fill="#94a4ad" id="Layer_1" data-name="Layer 1" xmlns="http://www.w3.org/2000/svg" viewBox="0 0 16 16"><path d="M8,5.33c.91,0,1.81,0,2.72,0A2.52,2.52,0,0,1,13.12,7a2.52,2.52,0,0,1-.49,2.83,2.6,2.6,0,0,1-2.06.89H5.42a2.68,2.68,0,0,1-.21-5.36Zm.62,1.82h-2c-.32,0-.32,0-.32.31s0,.74,0,1.11.06.31.3.31c.85,0,1.7,0,2.55,0,.5,0,1,0,1.49,0A.89.89,0,0,0,11.51,8a.85.85,0,0,0-.95-.85Z"/><path d="M14.23,2.68v.8a.92.92,0,0,1-1,1q-.85,0-1.71,0a.91.91,0,0,1-.91-.66.87.87,0,0,1,.39-1c.18-.13,0-.16-.05-.2a5.82,5.82,0,0,0-2.3-.74A6,6,0,0,0,4.23,3.12a6,6,0,0,0-2.39,4.5A6.7,6.7,0,0,0,2,9.52.92.92,0,1,1,.23,10,7.88,7.88,0,0,1,3,1.76,7.51,7.51,0,0,1,7.1.05a7.83,7.83,0,0,1,5.18,1.2c.16.1.23.11.35-.05a.88.88,0,0,1,1-.27,1,1,0,0,1,.62.85v.9Z"/><path d="M4.81,13.28a5.66,5.66,0,0,0,2.3.83,6,6,0,0,0,5.34-1.85,6.06,6.06,0,0,0,1.7-4.75A8.7,8.7,0,0,0,14,6.39a.88.88,0,0,1,.66-1A.91.91,0,0,1,15.74,6,7.15,7.15,0,0,1,16,7.35a8,8,0,0,1-6.07,8.42,7.89,7.89,0,0,1-6.19-1c-.17-.11-.25-.11-.38.05a.86.86,0,0,1-1,.25.87.87,0,0,1-.58-.84c0-.6,0-1.2,0-1.79a.88.88,0,0,1,.89-.91H4.41a.91.91,0,0,1,.5,1.69Z"/></svg>