<svg fill="none" height="24" viewBox="0 0 24 24" width="24" xmlns="http://www.w3.org/2000/svg">
	<g clip-rule="evenodd" fill="#94a4ad" fill-rule="evenodd">
		<path d="m6 4.5c-.82843 0-1.5.67157-1.5 1.5s.67157 1.5 1.5 1.5 1.5-.67157 1.5-1.5-.67157-1.5-1.5-1.5zm-2.5 1.5c0-1.38071 1.11929-2.5 2.5-2.5s2.5 1.11929 2.5 2.5-1.11929 2.5-2.5 2.5-2.5-1.11929-2.5-2.5z"/>
		<path d="m18 16.5c-.8284 0-1.5.6716-1.5 1.5s.6716 1.5 1.5 1.5 1.5-.6716 1.5-1.5-.6716-1.5-1.5-1.5zm-2.5 1.5c0-1.3807 1.1193-2.5 2.5-2.5s2.5 1.1193 2.5 2.5-1.1193 2.5-2.5 2.5-2.5-1.1193-2.5-2.5z"/>
		<path d="m15.55 5.5c.2316-1.14112 1.2405-2 2.45-2 1.3807 0 2.5 1.11929 2.5 2.5s-1.1193 2.5-2.5 2.5c-1.2095 0-2.2184-.85888-2.45-2h-3.05v11.5c0 .2761-.2239.5-.5.5h-3.55001c-.23163 1.1411-1.24051 2-2.44999 2-1.38071 0-2.5-1.1193-2.5-2.5s1.11929-2.5 2.5-2.5c1.20948 0 2.21836.8589 2.44999 2h3.05001v-11.5c0-.27614.2239-.5.5-.5zm2.45-1c-.8284 0-1.5.67157-1.5 1.5s.6716 1.5 1.5 1.5 1.5-.67157 1.5-1.5-.6716-1.5-1.5-1.5zm-12 12c-.82843 0-1.5.6716-1.5 1.5s.67157 1.5 1.5 1.5 1.5-.6716 1.5-1.5-.67157-1.5-1.5-1.5z"/>
	</g>
</svg>