<svg xmlns="http://www.w3.org/2000/svg" viewBox="6.1498 117.6443 387.7803 387.7803" width="387.78px" height="387.78px">
	<g transform="matrix(1.8424510955810547, 0, 0, 1.8424510955810547, -35.82476043701172, 117.6443099975586)" style="">
		<path d="m128.01682 0c-22.03188.04678314-43.493448 7.0072685-61.359063 19.900168l23.902685 23.902684c11.277448-6.898594 24.236288-10.559734 37.456378-10.582214 39.77241-.000079 72.01434 32.241846 72.01426 72.014262-.0318 13.21538-3.69956 26.16719-10.60151 37.43708l23.94799 23.94799c12.8888-17.87595 19.8404-39.34715 19.87417-61.38507 0-58.119626-47.11529-105.2349-105.23491-105.2349z"/>
		<path d="m189.37588 190.56963-23.90269-23.90268c-11.27745 6.89859-24.23629 10.55974-37.45637 10.58221-39.772417.00008-72.014343-32.24185-72.014264-72.01426.03183-13.215382 3.699547-26.167196 10.60151-37.437081l-23.947999-23.947987c-12.888817 17.875937-19.840381 39.347145-19.874149 61.385068 0 58.11962 47.115274 105.2349 105.234902 105.2349 22.03188-.0468 43.49344-7.00726 61.35906-19.90017z"/>
		<circle cx="128" cy="105.2349" r="33.503357"/>
	</g>
</svg>