<svg fill="#FF642F" xmlns="http://www.w3.org/2000/svg" viewBox="-0.003 0 37.009 37" width="37.009pt" height="37pt">
	<path d="M 2.082 0 C 0.945 0 0 0.945 0 2.082 L 0 5.781 C -0.004 5.828 -0.004 5.875 0 5.922 L 0 29.602 C 0 30.008 0.332 30.34 0.738 30.34 L 1.723 30.319 C 1.988 30.323 2.051 30.258 2.22 29.918 C 2.389 29.578 2.188 28.85 1.923 28.854 L 1.48 28.859 L 1.48 6.66 L 31.078 6.66 L 31.078 22.941 C 31.078 23.207 31.215 23.453 31.445 23.59 C 31.68 23.723 31.961 23.723 32.191 23.59 C 32.426 23.453 32.563 23.207 32.559 22.941 L 32.559 5.922 C 32.566 5.875 32.566 5.828 32.559 5.781 L 32.559 2.082 C 32.559 0.945 31.613 0 30.48 0 L 2.082 0 Z M 2.082 1.48 L 30.48 1.48 C 30.824 1.48 31.078 1.738 31.078 2.082 L 31.078 5.18 L 1.48 5.18 L 1.48 2.082 C 1.48 1.738 1.738 1.48 2.082 1.48 Z M 5.18 11.102 L 5.18 12.578 L 8.141 12.578 L 8.141 11.102 L 5.18 11.102 Z M 10.359 11.102 L 10.359 12.578 L 27.379 12.578 L 27.379 11.102 L 10.359 11.102 Z M 5.18 14.801 L 5.18 16.281 L 8.141 16.281 L 8.141 14.801 L 5.18 14.801 Z M 10.359 14.801 L 10.359 16.281 L 27.379 16.281 L 27.379 14.801 L 10.359 14.801 Z M 5.18 18.5 L 5.18 19.98 L 8.141 19.98 L 8.141 18.5 L 5.18 18.5 Z M 10.359 18.5 L 10.359 19.98 L 27.379 19.98 L 27.379 18.5 L 10.359 18.5 Z M 26.641 23.68 C 20.762 23.68 16.418 29.902 16.418 29.902 C 16.227 30.16 16.227 30.52 16.418 30.781 C 16.418 30.781 20.762 37 26.641 37 C 32.516 37 36.859 30.781 36.859 30.781 C 37.055 30.52 37.055 30.16 36.859 29.902 C 36.859 29.902 32.516 23.68 26.641 23.68 Z M 26.641 25.16 C 31.051 25.16 34.66 29.602 35.242 30.34 C 34.66 31.078 31.051 35.52 26.641 35.52 C 22.23 35.52 18.621 31.078 18.039 30.34 C 18.621 29.602 22.23 25.16 26.641 25.16 Z M 26.641 25.898 C 24.199 25.898 22.199 27.898 22.199 30.34 C 22.199 32.781 24.199 34.781 26.641 34.781 C 29.082 34.781 31.078 32.781 31.078 30.34 C 31.078 27.898 29.082 25.898 26.641 25.898 Z M 26.641 27.379 C 28.285 27.379 29.602 28.695 29.602 30.34 C 29.602 31.984 28.285 33.301 26.641 33.301 C 24.996 33.301 23.68 31.984 23.68 30.34 C 23.68 28.695 24.996 27.379 26.641 27.379 Z M 26.641 28.859 C 25.82 28.859 25.16 29.523 25.16 30.34 C 25.16 31.156 25.82 31.82 26.641 31.82 C 27.457 31.82 28.121 31.156 28.121 30.34 C 28.121 29.523 27.457 28.859 26.641 28.859 Z M 26.641 28.859" transform="matrix(1, 0, 0, 1, 0, 1.7763568394002505e-15)"/>
	<g id="layer-MC1-1" transform="matrix(0.11081700026988983, 0, 0, 0.11081700026988983, -34.00966262817383, 64.32980346679688)" style="">
		<g id="g8">
			<path id="path56-6" d="M 387.682 -370.53 C 406.803 -370.53 423.952 -365.97 436.319 -357.87 L 436.319 -345.5 C 421.147 -354.13 405.454 -357.76 387.682 -357.76 C 369.912 -357.76 354.22 -354.13 339.048 -345.5 L 339.048 -357.87 C 351.622 -365.97 368.562 -370.53 387.682 -370.53" style="fill-opacity: 1; fill-rule: nonzero; stroke: none;" clip-path="url(#clipPath57-9)"/>
			<path id="path58-9" d="M 339.048 -335.72 C 354.22 -327.11 369.912 -323.36 387.682 -323.36 C 405.454 -323.36 421.147 -327.11 436.319 -335.72 L 436.319 -323.36 C 423.952 -315.14 406.803 -310.68 387.682 -310.68 C 368.562 -310.68 351.622 -315.14 339.048 -323.36 L 339.048 -335.72 Z" style="fill-opacity: 1; fill-rule: nonzero; stroke: none;" clip-path="url(#clipPath59-7)"/>
			<path id="path60-6" d="M 339.048 -304.75 C 354.22 -296.13 369.912 -292.4 387.682 -292.4 C 405.454 -292.4 421.147 -296.13 436.319 -304.75 L 436.319 -292.4 C 423.952 -284.18 406.803 -279.72 387.682 -279.72 C 368.562 -279.72 351.622 -284.18 339.048 -292.4 L 339.048 -304.75 Z" style="fill-opacity: 1; fill-rule: nonzero; stroke: none;" clip-path="url(#clipPath61-2)"/>
			<path id="path62-6" d="M 339.048 -273.79 C 354.22 -265.15 369.912 -261.42 387.682 -261.42 C 405.454 -261.42 421.147 -265.15 436.319 -273.79 L 436.319 -261.42 C 423.952 -253.21 406.803 -248.74 387.682 -248.74 C 368.562 -248.74 351.622 -253.21 339.048 -261.42 L 339.048 -273.79 Z" style="fill-opacity: 1; fill-rule: nonzero; stroke: none;" clip-path="url(#clipPath63-1)"/>
		</g>
	</g>
</svg>