<svg xmlns="http://www.w3.org/2000/svg" viewBox="214.491 214.563 48.573 48.099" width="32.573px" height="32.099px">
	<path fill="#4CAF50" d="M 232.377 226.644 L 241.615 226.644 L 241.615 229.014 L 232.377 229.014 L 232.377 226.644 Z M 232.377 221.314 L 241.615 221.314 L 241.615 223.565 L 232.377 223.565 L 232.377 221.314 Z M 232.377 237.541 L 241.615 237.541 L 241.615 239.792 L 232.377 239.792 L 232.377 237.541 Z M 232.377 232.093 L 241.615 232.093 L 241.615 234.462 L 232.377 234.462 L 232.377 232.093 Z M 219.821 226.644 L 228.942 226.644 L 228.942 229.014 L 219.821 229.014 L 219.821 226.644 Z M 219.821 221.314 L 228.942 221.314 L 228.942 223.565 L 219.821 223.565 L 219.821 221.314 Z M 219.821 237.541 L 228.942 237.541 L 228.942 239.792 L 219.821 239.792 L 219.821 237.541 Z M 219.821 232.093 L 228.942 232.093 L 228.942 234.462 L 219.821 234.462 L 219.821 232.093 Z M 214.491 246.662 L 247.064 246.662 L 247.064 214.563 L 214.491 214.563 L 214.491 246.662 Z" style=""/>
</svg>