<svg width="30" height="30" viewBox="0 0 30 30" fill="none" xmlns="http://www.w3.org/2000/svg">
	<path d="M13.6064 4.59429L10.3332 1.32107C9.91606 0.90283 9.42058 0.57089 8.87509 0.344218C8.3296 0.117546 7.74478 0.000586913 7.15407 1.93118e-05C6.06458 -0.00328922 5.01681 0.418635 4.23365 1.17603C3.82467 1.57082 3.49834 2.04305 3.27367 2.56521C3.049 3.08736 2.93048 3.649 2.925 4.21741C2.91953 4.78583 3.02722 5.34965 3.2418 5.87603C3.45637 6.40241 3.77355 6.88084 4.17485 7.28343L10.1137 13.2223C10.2397 13.3417 10.4066 13.4082 10.5802 13.4082C10.7537 13.4082 10.9207 13.3417 11.0467 13.2223L13.6025 10.6664C13.7632 10.4743 16.4367 7.42063 13.6064 4.59429Z" fill="#15A9CA"/>
	<path d="M18.9689 9.8236C18.3456 9.21992 17.6988 8.59663 17.1148 7.92238V7.89886C17.0939 7.96018 17.0782 8.02312 17.0677 8.08702C16.8225 9.51983 16.1197 10.8346 15.0646 11.8346C11.6189 15.2568 8.13396 18.7534 4.76274 22.1364L4.30801 22.5872C3.6131 23.2265 3.14408 24.0737 2.97128 25.002C2.89829 25.6637 2.96756 26.3334 3.17443 26.9662C3.38131 27.599 3.72102 28.1803 4.17081 28.6711C4.55481 29.1067 5.03077 29.4515 5.5643 29.6806C6.09784 29.9098 6.67562 30.0175 7.25588 29.9961C8.60045 30.0157 9.25509 29.8393 10.2351 28.8867C14.1551 25.049 18.0752 21.1799 21.0426 18.2399C22.4421 16.8483 22.7635 14.5433 21.7718 12.991C20.9652 11.8287 20.0244 10.7656 18.9689 9.8236Z" fill="#52CAA3"/>
	<path d="M-0.00390618 7.77345V22.2305C-0.00397307 22.3895 0.0431223 22.545 0.131419 22.6772C0.219716 22.8094 0.345246 22.9124 0.492127 22.9733C0.639009 23.0341 0.800637 23.05 0.956566 23.019C1.1125 22.988 1.25572 22.9114 1.3681 22.7989L8.64368 15.5234C8.78109 15.3846 8.85817 15.1973 8.85817 15.002C8.85817 14.8067 8.78109 14.6194 8.64368 14.4806L1.3681 7.20505C1.29503 7.1305 1.20781 7.07129 1.11155 7.0309C1.01529 6.99051 0.911933 6.96976 0.807543 6.96985C0.593686 6.96984 0.388466 7.05425 0.236514 7.20474C0.0845616 7.35522 -0.00183992 7.5596 -0.00390618 7.77345Z" fill="#5268AD"/>
</svg>