<svg xmlns="http://www.w3.org/2000/svg" id="Layer_1" data-name="Layer 1" viewBox="0 0 300 300">
	<defs>
		<style>.cls-1{fill:#003545;}</style>
	</defs>
	<path class="cls-1" d="M299.2,4.34a4.35,4.35,0,0,0-2.92-1c-2.9,0-6.65,2-8.66,3-.35.19-.62.33-.81.41A27.32,27.32,0,0,1,276,9.53c-3.86.12-7.19.35-11.5.8C238.82,13,227.43,32.6,216.42,51.6c-6,10.32-12.18,21-20.67,29.28a54.92,54.92,0,0,1-5.59,4.74c-8.78,6.54-19.81,11.17-28.43,14.47-8.26,3.15-17.28,6-26,8.74-8,2.51-15.51,4.89-22.44,7.46-3.13,1.16-5.79,2-8.13,2.83-6.31,2.1-10.87,3.62-17.51,8.17-2.59,1.77-5.19,3.69-7,5.14A73.46,73.46,0,0,0,66.8,147.05a86.62,86.62,0,0,1-11.6,14c-1.4,1.37-3.89,2-7.62,2-4.37,0-9.67-.9-15.28-1.85-5.77-1-11.75-2-16.87-2-4.17,0-7.35.67-9.74,2.06,0,0-4,2.34-5.69,5.36l1.66.75a34.71,34.71,0,0,1,7.1,5.07,35.39,35.39,0,0,0,7.37,5.25,6.61,6.61,0,0,1,2.27,1.51c-.7,1-1.73,2.35-2.8,3.76-5.92,7.74-9.37,12.63-7.39,15.29a6.09,6.09,0,0,0,3,.71c12.9,0,19.82-3.36,28.59-7.6,2.54-1.23,5.16-2.5,8.16-3.8,5.12-2.22,10.64-5.76,16.48-9.52,7.74-5,15.74-10.11,23.49-12.6a64,64,0,0,1,19.71-2.77c8.23,0,16.83,1.1,25.15,2.17,6.21.79,12.63,1.61,18.93,2,2.45.15,4.72.22,6.92.22a77.2,77.2,0,0,0,8.83-.47l.7-.24c4.42-2.72,6.49-8.55,8.5-14.18,1.29-3.63,2.37-6.89,4.05-9a2.79,2.79,0,0,1,.34-.28.4.4,0,0,1,.5.09s0,.05,0,.15c-1.06,22.06-9.9,36.05-18.88,48.49l-6,6.43s8.39,0,13.16-1.84c17.42-5.21,30.58-16.69,40.15-35a149.42,149.42,0,0,0,6.32-14.44c.16-.41,1.68-1.17,1.53.95,0,.63-.09,1.32-.14,2h0c0,.43-.06.87-.08,1.31-.25,3-1,9.57-1,9.57l5.38-2.88c13-8.22,23-24.74,30.56-50.47,3.16-10.72,5.47-21.37,7.51-30.76,2.44-11.23,4.55-20.93,7-24.68,3.78-5.89,9.55-9.87,15.13-13.73l2.28-1.58c7-4.93,14-10.62,15.54-21.22l0-.24C301.22,7.29,300.27,5.27,299.2,4.34Z" transform="translate(0 -3.38)"></path>
</svg>