<svg id="Icons" xmlns="http://www.w3.org/2000/svg" viewBox="0 0 288 288">
	<defs>
		<style>.cls-2{fill:#f80000;}.cls-3{fill:#d90000;}.cls-4{fill:#ba0000;}.cls-5{fill:#9b0000;}</style>
	</defs>
	<path class="cls-2" d="M144,78c-48,0-87-6.72-87-15V225c0,8.28,39,15,87,15s87-6.72,87-15V63C231,71.28,192,78,144,78Z"/>
	<path class="cls-3" d="M57,63V225c0,8.28,39,15,87,15V78C96,78,57,71.28,57,63Z"/>
	<path class="cls-3" d="M219,70.61v162c7.62-2.23,12-4.83,12-7.6V63C231,65.78,226.63,68.38,219,70.61Z"/>
	<ellipse class="cls-4" cx="144" cy="63" rx="87" ry="15"/>
	<path class="cls-5" d="M57,165c0,8.28,39,15,87,15s87-6.72,87-15v12c0,8.28-39,15-87,15s-87-6.72-87-15Z"/>
	<path class="cls-5" d="M231,111c0,8.28-39,15-87,15s-87-6.72-87-15v12c0,8.28,39,15,87,15s87-6.72,87-15Z"/>
</svg>