<?xml version="1.0" encoding="utf-8"?>
<svg viewBox="0 0 28.092 28" width="28.092px" height="28px" xmlns="http://www.w3.org/2000/svg">
	<defs>
		<linearGradient id="a" x1="28.092" x2="3.481" y1="28" y2="-.08" gradientUnits="userSpaceOnUse">
			<stop stop-color="#62F755"/>
			<stop offset="1" stop-color="#8FF986" stop-opacity="0"/>
		</linearGradient>
		<linearGradient id="b" x1="28.092" x2="11.421" y1="28" y2="21.494" gradientUnits="userSpaceOnUse">
			<stop stop-opacity=".9"/>
			<stop offset="1" stop-color="#1A1A1A" stop-opacity="0"/>
		</linearGradient>
	</defs>
	<path fill="#00E0D9" fill-rule="evenodd" d="M0 4.828C0 2.16 2.168 0 4.843 0h18.405c2.675 0 4.844 2.161 4.844 4.828V20.43c0 2.758-3.502 3.955-5.2 1.778l-5.31-6.809v8.256c0 2.4-1.952 4.345-4.36 4.345H4.843C2.168 28 0 25.839 0 23.172zm4.843-.966a.967.967 0 0 0-.968.966v18.344c0 .534.433.966.968.966h8.525c.267 0 .339-.216.339-.483v-11.07c0-2.76 3.502-3.956 5.2-1.779l5.31 6.809V4.828c0-.534.05-.966-.484-.966z" clip-rule="evenodd"/>
	<path fill="url(#a)" fill-rule="evenodd" d="M0 4.828C0 2.16 2.168 0 4.843 0h18.405c2.675 0 4.844 2.161 4.844 4.828V20.43c0 2.758-3.502 3.955-5.2 1.778l-5.31-6.809v8.256c0 2.4-1.952 4.345-4.36 4.345H4.843C2.168 28 0 25.839 0 23.172zm4.843-.966a.967.967 0 0 0-.968.966v18.344c0 .534.433.966.968.966h8.525c.267 0 .339-.216.339-.483v-11.07c0-2.76 3.502-3.956 5.2-1.779l5.31 6.809V4.828c0-.534.05-.966-.484-.966z" clip-rule="evenodd"/>
	<path fill="url(#b)" fill-opacity=".4" fill-rule="evenodd" d="M0 4.828C0 2.16 2.168 0 4.843 0h18.405c2.675 0 4.844 2.161 4.844 4.828V20.43c0 2.758-3.502 3.955-5.2 1.778l-5.31-6.809v8.256c0 2.4-1.952 4.345-4.36 4.345H4.843C2.168 28 0 25.839 0 23.172zm4.843-.966a.967.967 0 0 0-.968.966v18.344c0 .534.433.966.968.966h8.525c.267 0 .339-.216.339-.483v-11.07c0-2.76 3.502-3.956 5.2-1.779l5.31 6.809V4.828c0-.534.05-.966-.484-.966z" clip-rule="evenodd"/>
	<path fill="#63F655" d="M23.248 0c2.675 0 4.843 2.161 4.843 4.828V20.43c0 2.758-3.502 3.955-5.2 1.778l-5.31-6.809v8.256c0 2.4-1.951 4.345-4.359 4.345a.483.483 0 0 0 .485-.483V12.584c0-2.758 3.501-3.955 5.2-1.777l5.31 6.808V.965A.967.967 0 0 0 23.248 0"/>
</svg>